<?xml version="1.0" standalone="no"?>
<!DOCTYPE svg PUBLIC "-//W3C//DTD SVG 20010904//EN"
 "http://www.w3.org/TR/2001/REC-SVG-20010904/DTD/svg10.dtd">
<svg version="1.0" xmlns="http://www.w3.org/2000/svg"
 width="1024.000000pt" height="745.000000pt" viewBox="0 0 1024.000000 745.000000"
 preserveAspectRatio="xMidYMid meet">

<g transform="translate(0.000000,745.000000) scale(0.100000,-0.100000)"
fill="#000000" stroke="none">
<path d="M532 3648 l3 -3033 4608 -3 4607 -2 0 3035 0 3035 -4610 0 -4610 0 2
-3032z m9168 2 l0 -2980 -4550 0 c-2502 0 -4553 0 -4557 0 -5 0 -9 1341 -11
2980 l-2 2980 4560 0 4560 0 0 -2980z"/>
<path d="M1958 6140 c-456 -3 -670 -8 -678 -16 -12 -12 -24 -3153 -13 -3557 5
-201 9 -242 23 -259 l16 -20 3795 0 c2535 0 3803 4 3820 10 20 8 28 20 32 49
6 39 13 2891 8 3448 -2 246 -6 313 -17 324 -12 13 -373 15 -2626 18 -1437 2
-2856 4 -3153 6 -297 1 -840 0 -1207 -3z m2600 -95 l523 0 -4 -1828 c-2 -1005
-6 -1829 -8 -1831 -2 -2 -179 -5 -394 -7 l-390 -4 -3 25 c-9 80 -55 308 -77
385 -33 115 -64 181 -104 227 l-32 37 20 66 c12 37 38 155 58 264 36 188 38
204 37 406 l0 211 75 -43 c320 -182 596 -137 596 97 0 112 -53 174 -215 255
-67 33 -289 254 -337 336 -18 30 -44 99 -59 154 -28 105 -76 212 -118 262
l-25 30 128 6 c186 10 472 67 563 113 70 35 90 72 85 154 -5 74 -29 131 -84
191 -69 77 -201 87 -327 25 -28 -14 -99 -66 -156 -117 -177 -154 -194 -156
-260 -23 -85 170 -181 281 -305 351 -150 86 -286 118 -495 117 -313 -1 -513
-76 -701 -264 -47 -47 -85 -95 -101 -130 -14 -30 -36 -76 -48 -103 -14 -31
-30 -49 -45 -53 -51 -13 -130 54 -267 226 -132 167 -421 158 -499 -15 -56
-123 24 -305 159 -363 92 -40 409 -107 558 -118 l90 -7 -12 -51 c-16 -62 -62
-399 -76 -551 -11 -119 4 -535 23 -655 24 -148 111 -590 129 -654 11 -38 17
-72 15 -76 -3 -4 -22 -11 -42 -15 -72 -12 -200 -83 -267 -146 -114 -106 -204
-270 -241 -440 -14 -62 -26 -114 -28 -115 -1 -1 -116 0 -255 3 -174 4 -258 10
-269 18 -15 11 -16 148 -15 1820 1 1298 4 1811 12 1819 8 8 274 12 912 13 496
2 904 6 907 9 3 3 195 2 426 -3 231 -4 655 -8 943 -8z m728 -17 c-17 -56 -18
-158 -2 -237 30 -145 64 -212 171 -332 144 -161 290 -262 517 -356 73 -30 134
-56 136 -58 1 -1 -11 -16 -27 -34 -30 -32 -65 -114 -100 -236 -22 -75 -67
-157 -127 -231 -44 -53 -221 -189 -305 -234 -69 -37 -141 -113 -157 -168 -27
-90 -6 -209 44 -254 65 -58 206 -65 335 -18 75 27 170 76 228 118 24 17 25 17
17 -8 -14 -43 -19 -384 -7 -502 12 -119 43 -260 85 -390 28 -84 27 -116 -6
-181 -16 -31 -33 -44 -111 -81 -116 -55 -260 -158 -289 -205 -18 -29 -23 -51
-23 -111 0 -41 4 -87 9 -102 l8 -28 -261 0 -261 0 0 98 c0 53 -1 877 -3 1829
-2 953 -2 1735 1 1738 3 3 34 5 70 5 62 0 64 -1 58 -22z m3583 8 c7 -8 11 -34
11 -58 -1 -23 -2 -836 -3 -1805 -2 -1551 -4 -1764 -17 -1777 -13 -13 -87 -16
-467 -22 l-451 -7 -7 69 c-16 162 -51 288 -118 427 -48 101 -73 140 -102 165
l-39 31 27 93 c66 233 117 587 117 820 0 42 4 79 8 82 4 2 26 -21 47 -51 22
-31 53 -72 69 -90 l29 -35 -49 -141 -49 -142 1 -160 c0 -126 6 -193 28 -317
42 -246 72 -316 185 -425 130 -127 230 -176 356 -176 137 0 266 70 296 161 15
45 6 214 -17 296 -35 131 -80 190 -225 292 -101 72 -102 75 -65 256 41 201 56
395 49 623 -5 181 -9 214 -40 345 -55 232 -132 374 -240 437 -23 13 -43 32
-43 41 -3 214 -56 344 -188 462 -162 145 -299 197 -495 188 l-97 -5 -73 71
c-64 64 -82 76 -167 108 -131 50 -201 62 -323 56 -163 -9 -319 -72 -439 -177
-25 -23 -49 -41 -52 -41 -3 0 -39 51 -80 113 -70 104 -200 262 -232 280 -8 4
-14 12 -14 17 0 6 533 10 1429 10 1212 0 1430 -2 1440 -14z m-1959 -909 c20
-19 62 -49 93 -68 31 -18 57 -37 57 -41 0 -3 -11 -19 -24 -35 -51 -61 -71
-123 -38 -123 33 1 117 55 132 86 l16 31 71 -28 c109 -44 232 -61 405 -57 81
1 148 0 148 -4 0 -4 -12 -43 -27 -85 -26 -74 -28 -88 -28 -248 1 -154 3 -180
29 -280 28 -108 29 -114 22 -295 -3 -101 -11 -227 -17 -280 -16 -150 -75 -444
-111 -557 l-20 -61 -57 -7 c-64 -7 -1378 -11 -1385 -4 -9 9 -55 180 -62 229
l-7 50 33 0 c61 0 284 52 375 86 174 68 276 123 341 188 76 76 99 135 92 237
-7 94 -39 145 -130 209 -141 99 -284 115 -428 49 -74 -34 -105 -63 -250 -232
-70 -81 -75 -85 -78 -60 -5 39 16 175 40 266 12 42 19 80 15 83 -3 3 -43 -26
-90 -64 -173 -141 -296 -202 -409 -202 -116 0 -173 54 -172 161 1 77 25 113
114 176 239 167 287 203 334 254 64 69 96 128 145 266 48 136 71 182 112 223
29 29 36 31 78 26 25 -3 78 -8 116 -11 132 -11 329 40 455 119 30 19 59 35 64
35 5 1 25 -14 46 -32z m-2880 -72 c26 -19 55 -46 64 -59 23 -36 92 -213 111
-287 23 -87 46 -130 127 -231 75 -95 157 -162 271 -222 122 -66 167 -123 167
-215 0 -42 -5 -55 -33 -84 -18 -19 -51 -40 -75 -47 -107 -33 -373 71 -503 197
-39 37 -69 60 -69 51 0 -8 9 -50 20 -93 13 -49 20 -110 20 -164 l0 -86 -43 45
c-23 25 -71 82 -107 125 -68 83 -138 134 -215 158 -22 6 -87 12 -145 12 -121
0 -155 -12 -255 -93 -87 -70 -110 -116 -110 -222 1 -153 55 -217 276 -328 155
-77 343 -138 467 -150 l67 -7 -3 -50 c-3 -58 -29 -168 -48 -207 -14 -26 -15
-27 -101 -22 -229 11 -644 24 -990 30 -211 4 -383 8 -383 9 0 1 -29 148 -65
327 -118 591 -129 812 -64 1318 11 85 29 189 40 231 l22 77 211 7 c116 3 306
5 421 3 116 -2 291 -1 390 2 99 3 249 7 334 8 l153 2 48 -35z m-1125 -2042
c28 -114 148 -172 215 -105 20 20 30 42 35 81 l7 52 262 -6 c519 -14 578 -18
613 -43 18 -12 44 -47 58 -76 l26 -53 -36 -62 c-23 -39 -55 -76 -90 -102 -29
-22 -56 -47 -59 -55 -12 -31 -6 -72 15 -98 45 -58 124 -72 193 -35 21 11 41
17 44 14 4 -4 8 -40 10 -82 l4 -75 -192 4 c-220 4 -203 -3 -261 113 -16 33
-35 67 -42 75 -94 118 -253 0 -193 -144 l14 -33 -142 -6 c-77 -4 -229 -7 -337
-7 l-197 0 -6 25 c-22 86 -134 94 -241 17 -49 -35 -51 -36 -167 -40 -65 -3
-118 -1 -118 2 0 19 44 88 89 138 51 56 90 126 91 161 0 10 -13 32 -29 48 -25
25 -37 29 -81 29 -73 0 -116 -23 -154 -84 -69 -107 -109 -179 -131 -234 l-23
-57 -52 -3 -53 -3 7 43 c9 55 60 205 97 283 16 35 64 101 112 155 82 94 84 96
192 142 l110 47 201 1 202 0 7 -27z m4777 -50 c46 -45 109 -163 137 -258 19
-67 41 -224 41 -300 l0 -36 -385 3 -385 3 -40 45 c-22 25 -53 73 -70 107 -38
77 -69 103 -125 103 -82 0 -119 -88 -76 -185 11 -26 21 -51 21 -56 0 -5 -168
-9 -375 -9 -371 0 -375 0 -375 20 0 29 -26 76 -45 84 -55 21 -127 -8 -155 -63
-17 -34 -26 -41 -49 -41 -77 0 -107 144 -48 232 28 41 111 98 143 98 22 0 51
-30 144 -150 20 -26 34 -33 72 -37 40 -5 50 -2 72 20 55 55 19 168 -75 232
l-40 28 40 26 c52 34 71 68 71 131 l0 51 37 -3 c34 -3 37 -6 54 -58 10 -30 19
-56 19 -56 0 -1 16 -9 35 -19 23 -10 47 -14 65 -10 38 8 87 65 96 110 l6 35
272 -1 c258 0 270 -1 246 -17 -49 -34 -82 -66 -90 -86 -12 -34 9 -77 46 -92
93 -39 170 5 269 151 l26 40 162 5 c89 3 175 2 191 -2 17 -4 47 -24 68 -45z"/>
<path d="M6585 4883 c-79 -29 -243 -124 -297 -172 -27 -24 -58 -62 -69 -84
-41 -80 -20 -203 39 -225 102 -39 410 3 567 77 69 32 129 81 151 122 31 60 9
170 -46 228 -62 64 -239 91 -345 54z m254 -63 c56 -28 91 -82 91 -142 0 -65
-33 -102 -135 -149 -78 -36 -191 -67 -202 -55 -4 3 -32 70 -63 148 l-58 143
47 27 c103 60 236 71 320 28z"/>
<path d="M7137 4744 c-55 -32 -77 -50 -75 -62 6 -34 179 -23 220 15 24 21 23
48 -2 73 -30 30 -57 25 -143 -26z"/>
<path d="M3104 5015 c-26 -40 -5 -76 66 -114 69 -37 80 -38 80 -8 0 44 -78
147 -112 147 -9 0 -25 -11 -34 -25z"/>
<path d="M3390 4890 c-156 -53 -200 -242 -81 -343 140 -118 608 -200 687 -122
67 67 48 202 -40 287 -48 47 -239 158 -309 180 -77 24 -185 23 -257 -2z m285
-70 c95 -45 92 -34 42 -152 -25 -58 -51 -123 -58 -146 -14 -48 -19 -49 -103
-27 -90 24 -198 78 -230 115 -25 30 -28 40 -24 85 7 81 54 133 143 156 57 15
166 1 230 -31z"/>
<path d="M2950 4780 c-22 -22 -24 -33 -10 -60 13 -24 61 -40 145 -46 122 -9
123 16 5 87 -74 44 -110 49 -140 19z"/>
<path d="M2533 2979 c-17 -5 -41 -21 -52 -35 -40 -51 -22 -93 62 -147 52 -34
59 -43 95 -129 26 -60 61 -83 129 -83 66 0 93 23 100 87 7 64 -23 125 -104
210 -94 98 -148 121 -230 97z"/>
<path d="M3480 2984 c-67 -24 -86 -54 -69 -103 8 -23 25 -37 67 -57 32 -15 79
-46 105 -70 58 -52 103 -68 170 -61 63 6 87 31 87 92 0 56 -22 77 -151 143
-99 50 -172 70 -209 56z"/>
<path d="M3311 2775 c-18 -8 -56 -31 -83 -51 -27 -20 -84 -49 -126 -65 -95
-35 -122 -63 -122 -125 0 -69 25 -88 109 -81 90 7 223 59 277 109 76 70 97
156 49 203 -27 28 -55 31 -104 10z"/>
<path d="M7391 2934 c-39 -50 -27 -88 58 -173 24 -25 57 -75 76 -117 38 -83
68 -106 142 -106 65 0 97 32 90 90 -5 49 -108 213 -164 262 -82 72 -166 90
-202 44z"/>
<path d="M6572 2875 c-16 -14 -37 -43 -46 -66 -9 -22 -50 -76 -92 -120 -104
-109 -128 -176 -83 -233 26 -34 60 -34 128 0 123 62 221 203 229 331 4 56 2
64 -21 87 -34 34 -76 34 -115 1z"/>
<path d="M7069 2721 c-18 -18 -29 -40 -29 -57 0 -37 34 -89 75 -114 19 -12 56
-39 82 -61 54 -44 126 -75 201 -85 43 -5 53 -3 72 16 18 18 21 30 17 61 -8 58
-39 93 -124 137 -43 22 -91 55 -108 72 -61 66 -138 78 -186 31z"/>
<path d="M2610 2023 c-42 -15 -56 -102 -22 -143 21 -25 69 -30 84 -9 16 25 4
130 -17 145 -20 15 -22 15 -45 7z"/>
<path d="M4053 2019 c-18 -19 -16 -53 5 -72 10 -9 36 -19 58 -23 l41 -6 -1
-157 c-1 -86 5 -222 13 -302 14 -160 9 -189 -32 -189 -52 0 -94 -70 -51 -87
30 -11 153 -8 165 4 9 9 12 47 10 131 l-2 118 38 26 38 26 105 -102 c58 -55
106 -104 108 -107 1 -3 -9 -11 -23 -17 -38 -18 -30 -53 15 -69 38 -13 139 -15
210 -5 37 6 46 11 48 30 5 37 -15 52 -70 52 -55 0 -86 13 -108 44 -16 24 -117
132 -173 186 l-38 36 63 50 c86 68 97 73 145 74 86 0 127 37 82 73 -21 17 -35
19 -106 15 -92 -5 -80 2 -244 -131 -46 -37 -85 -64 -86 -60 -1 5 -4 106 -5
225 -2 147 -7 221 -15 229 -17 17 -175 24 -190 8z"/>
<path d="M6708 2023 c-56 -5 -76 -23 -60 -57 11 -25 50 -36 133 -36 28 0 49
-5 52 -13 2 -7 3 -131 1 -277 -2 -146 -4 -286 -4 -311 l0 -45 -82 0 c-48 0
-92 -5 -105 -12 -29 -16 -30 -55 -2 -83 17 -17 28 -20 57 -14 30 6 279 8 342
3 77 -6 137 22 124 56 -8 20 -86 46 -163 53 l-64 6 5 327 c3 180 4 339 1 354
-3 14 -14 31 -25 37 -22 12 -139 19 -210 12z"/>
<path d="M3205 2012 c-41 -5 -67 -30 -63 -61 3 -22 9 -26 39 -29 32 -3 38 -7
43 -35 13 -62 19 -582 7 -605 -6 -11 -25 -23 -43 -27 -76 -15 -85 -26 -47 -61
26 -23 111 -24 155 -1 38 19 44 44 44 168 0 84 1 89 26 105 l26 17 101 -102
c101 -102 102 -103 80 -118 -26 -18 -30 -45 -9 -66 20 -20 105 -28 201 -19
l80 7 0 35 c0 42 -28 60 -96 60 l-47 0 -116 133 -116 132 32 29 c18 15 60 46
92 67 51 34 67 39 116 39 58 0 80 11 80 41 0 29 -27 41 -99 41 -74 1 -115 -16
-158 -66 -12 -13 -62 -52 -111 -85 l-89 -60 -8 117 c-4 64 -8 161 -9 215 -2
104 -9 121 -56 129 -14 2 -38 3 -55 0z"/>
<path d="M5917 1970 c-27 -22 -15 -57 23 -65 16 -4 61 -5 99 -4 38 2 73 0 77
-4 4 -3 8 -144 8 -312 l2 -305 -87 0 c-110 0 -119 -3 -119 -46 0 -25 7 -38 26
-51 30 -19 43 -19 303 -7 148 8 175 12 185 26 20 32 -13 50 -109 59 -48 4 -89
10 -93 13 -3 4 -6 161 -6 350 -1 190 -5 348 -9 353 -5 4 -70 8 -145 8 -109 0
-139 -3 -155 -15z"/>
<path d="M1373 1960 c-40 -17 -26 -90 17 -90 14 0 15 -35 15 -307 l0 -308 -30
-5 c-22 -4 -31 -11 -33 -29 -2 -13 2 -28 10 -32 16 -11 129 -11 145 -1 8 5 11
60 10 197 -2 204 11 447 24 440 4 -3 20 -38 37 -78 139 -341 155 -377 173
-382 36 -12 55 12 87 109 34 105 90 230 116 261 16 19 17 13 14 -105 -1 -69
-1 -188 0 -266 3 -174 6 -180 90 -177 33 1 70 7 82 13 32 17 22 52 -22 72
l-37 18 3 277 c3 271 4 277 25 291 26 18 27 58 2 72 -11 5 -48 10 -84 10 -82
0 -88 -7 -162 -180 -69 -163 -93 -210 -104 -210 -7 0 -51 89 -51 104 0 4 -15
39 -34 79 -19 39 -46 105 -61 144 -15 40 -30 75 -33 77 -17 10 -179 15 -199 6z"/>
<path d="M7570 1821 c-93 -30 -164 -95 -209 -190 -22 -47 -26 -70 -26 -141 0
-80 2 -89 34 -138 46 -72 121 -137 184 -159 33 -11 81 -18 132 -18 68 0 89 4
138 28 57 28 107 79 107 110 0 27 -35 28 -94 2 -107 -47 -271 -25 -330 46 -26
30 -54 104 -44 115 3 3 117 6 254 8 177 2 249 6 252 14 9 29 -22 126 -59 180
-42 64 -94 106 -159 128 -52 18 -147 26 -180 15z m198 -123 c40 -19 92 -73 92
-95 0 -20 -31 -23 -211 -23 -134 0 -179 3 -179 12 0 20 109 117 143 127 42 12
101 4 155 -21z"/>
<path d="M8622 1812 c-17 -10 -63 -48 -102 -84 l-69 -67 -3 47 c-4 64 -26 75
-138 68 -103 -6 -118 -11 -127 -44 -11 -45 7 -57 93 -62 l79 -5 -2 -50 c-1
-27 -5 -116 -8 -197 l-7 -148 -52 0 c-29 0 -57 -5 -64 -12 -20 -20 -14 -56 13
-74 23 -15 37 -16 128 -6 56 7 158 14 227 17 134 6 150 13 150 61 0 36 -25 42
-155 36 l-122 -5 -6 33 c-4 18 -7 68 -7 111 0 76 2 81 44 147 24 38 56 78 71
90 41 32 107 54 154 50 41 -3 44 -5 60 -48 29 -78 101 -80 101 -3 0 51 -28
101 -73 134 -33 24 -50 29 -96 29 -33 -1 -69 -8 -89 -18z"/>
<path d="M2490 1793 c-65 -8 -80 -46 -33 -83 22 -17 36 -20 69 -15 29 4 45 2
50 -6 4 -7 8 -104 9 -216 1 -229 6 -218 -82 -207 -72 9 -103 0 -103 -30 0 -51
19 -56 238 -56 209 0 252 7 252 38 0 36 -37 56 -111 60 -54 3 -72 8 -79 22 -6
11 -9 113 -7 243 1 177 -1 227 -12 241 -10 12 -29 16 -85 14 -39 0 -87 -3
-106 -5z"/>
<path d="M5215 1766 c-95 -30 -162 -82 -201 -156 -14 -26 -19 -56 -19 -120 0
-76 4 -93 33 -152 36 -74 83 -113 176 -145 71 -25 240 -25 318 1 103 34 155
98 112 141 -18 18 -28 16 -129 -25 -96 -39 -158 -46 -228 -26 -61 18 -105 56
-124 108 -24 66 -22 68 70 68 46 0 146 3 222 7 120 5 140 9 156 26 39 42 13
156 -48 213 -55 52 -119 74 -213 73 -47 0 -103 -6 -125 -13z m210 -95 c44 -20
105 -75 105 -95 0 -22 -335 -36 -385 -17 -17 7 -15 12 25 55 70 74 170 96 255
57z"/>
</g>
</svg>
