<svg width="40" height="40" viewBox="0 0 40 40" fill="none" xmlns="http://www.w3.org/2000/svg">
<path d="M12.8499 25.4832L19.3166 19.0166L25.7833 25.4832C25.9376 25.6375 26.1208 25.7599 26.3224 25.8435C26.524 25.927 26.74 25.9699 26.9583 25.9699C27.1765 25.9699 27.3926 25.927 27.5942 25.8435C27.7958 25.7599 27.979 25.6375 28.1333 25.4832C28.2876 25.3289 28.41 25.1458 28.4935 24.9441C28.577 24.7425 28.62 24.5265 28.62 24.3082C28.62 24.09 28.577 23.8739 28.4935 23.6723C28.41 23.4707 28.2876 23.2875 28.1333 23.1332L20.4833 15.4833C20.3291 15.3288 20.1459 15.2062 19.9443 15.1225C19.7427 15.0389 19.5265 14.9958 19.3083 14.9958C19.09 14.9958 18.8738 15.0389 18.6722 15.1225C18.4706 15.2062 18.2875 15.3288 18.1333 15.4833L10.4833 23.1332C10.3288 23.2874 10.2062 23.4706 10.1225 23.6722C10.0389 23.8738 9.99585 24.09 9.99585 24.3082C9.99585 24.5265 10.0389 24.7427 10.1225 24.9443C10.2062 25.1459 10.3288 25.3291 10.4833 25.4832C11.1333 26.1166 12.1999 26.1332 12.8499 25.4832V25.4832Z" fill="black"/>
</svg>
