<svg width="24" height="24" viewBox="0 0 24 24" fill="none" xmlns="http://www.w3.org/2000/svg">
<path d="M12.0001 4.29593L20.7271 12.7879C20.7974 12.8578 20.8809 12.9131 20.9727 12.9506C21.0646 12.988 21.1629 13.0068 21.2621 13.006C21.3613 13.0052 21.4593 12.9847 21.5505 12.9458C21.6417 12.9068 21.7242 12.8501 21.7934 12.7791C21.8625 12.708 21.9169 12.6239 21.9534 12.5317C21.9898 12.4395 22.0076 12.3409 22.0057 12.2418C22.0038 12.1426 21.9823 12.0448 21.9424 11.954C21.9024 11.8633 21.8449 11.7813 21.7731 11.7129L12.5231 2.71293C12.3831 2.57671 12.1954 2.50049 12.0001 2.50049C11.8047 2.50049 11.6171 2.57671 11.4771 2.71293L2.22709 11.7129C2.15528 11.7813 2.09774 11.8633 2.05781 11.954C2.01788 12.0448 1.99635 12.1426 1.99446 12.2418C1.99257 12.3409 2.01037 12.4395 2.04681 12.5317C2.08326 12.6239 2.13763 12.708 2.20679 12.7791C2.27595 12.8501 2.35852 12.9068 2.44971 12.9458C2.54091 12.9847 2.63893 13.0052 2.73809 13.006C2.83726 13.0068 2.9356 12.988 3.02743 12.9506C3.11927 12.9131 3.20276 12.8578 3.27309 12.7879L12.0001 4.29493L12.0001 4.29593Z" fill="black"/>
</svg>
