<svg width="336" height="56" viewBox="0 0 336 56" fill="none" xmlns="http://www.w3.org/2000/svg">
<path d="M106.46 55.84C86.9 55.84 66.63 55.06 45.27 52.77C42.81 52.51 40.26 52.34 37.8 52.19C29.85 51.68 21.62 51.16 14.53 47.18C6.28 42.55 -2.87 29.49 1.6 19.58C6.1 9.58005 22.35 5.51005 33.11 2.82005C33.99 2.60005 34.82 2.39005 35.59 2.19005C47.53 -0.879954 106.55 0.200049 117.9 1.35005C169.24 6.55005 196.29 5.14004 222.45 3.78004C245.84 2.56004 267.94 1.41004 305.05 5.61004C318 7.08004 333.78 11.3 335.44 23.08C336.96 33.9 325.52 46.23 317.28 49.64C304.81 54.8 276.72 54.01 261.09 53.08C229.53 51.2 200.08 52.55 168.89 53.98C148.61 54.9 127.96 55.84 106.46 55.84ZM36.08 4.12004C35.3 4.32004 34.47 4.53004 33.58 4.75004C23.83 7.19004 7.51001 11.28 3.41001 20.4C-0.539991 29.16 8.07001 41.27 15.5 45.44C22.19 49.2 30.18 49.7 37.91 50.2C40.39 50.36 42.96 50.52 45.47 50.79C90.18 55.58 130.15 53.75 168.79 51.98C200.03 50.55 229.54 49.2 261.2 51.08C273.65 51.82 303.95 52.98 316.51 47.79C323.3 44.98 334.89 33.57 333.46 23.36C332.29 15.04 322.39 9.59005 304.83 7.60005C267.88 3.42005 245.87 4.57004 222.56 5.78004C196.33 7.15004 169.2 8.56005 117.7 3.35005C106.41 2.19005 47.87 1.09004 36.08 4.12004Z" fill="#005B5D"/>
</svg>
