<svg width="170" height="56" viewBox="0 0 170 56" fill="none" xmlns="http://www.w3.org/2000/svg">
<path d="M18.93 3.31001C24.8 0.290007 53.89 1.27002 59.91 2.49002C109.25 12.48 114.82 -2.00999 153.48 6.75001C178.39 12.39 165.75 43.65 159.46 48.86C153.17 54.07 138.39 53.03 131.59 52.23C95.68 47.96 63.7 60.51 23.7 51.94C18.53 50.83 13.06 51.56 8.52005 46.47C4.61005 42.09 0.160048 29.52 2.27005 20.15C4.60005 9.76 14.04 5.83001 18.93 3.31001Z" fill="#005B5D"/>
<path d="M54.24 56.0001C44.42 56.0001 34.24 55.2101 23.49 52.9101C22.29 52.6501 21.03 52.4901 19.82 52.3401C15.72 51.8201 11.47 51.2801 7.78 47.1301C3.68 42.5201 -0.889995 29.6301 1.30001 19.9201C3.56001 9.90006 12.13 5.61005 17.25 3.04005C17.69 2.82005 18.1 2.61006 18.49 2.42006C24.73 -0.789943 54.24 0.320053 60.13 1.51005C85.69 6.68005 99.16 5.28005 112.18 3.93005C123.94 2.70005 135.05 1.55006 153.72 5.77006C161.8 7.60006 166.97 12.3501 168.68 19.5101C171.38 30.8101 164.73 45.8001 160.11 49.6201C153.68 54.9401 139.41 54.1501 131.48 53.2101C115.78 51.3401 101.09 52.6901 85.54 54.1201C75.36 55.0501 65.02 56.0001 54.24 56.0001ZM19.39 4.20006C19 4.40006 18.58 4.61006 18.13 4.83006C13.02 7.39006 5.29001 11.2601 3.24001 20.3601C1.22001 29.3201 5.53001 41.6001 9.27001 45.8001C12.47 49.3901 16.16 49.8601 20.07 50.3501C21.33 50.5101 22.63 50.6801 23.91 50.9501C46.15 55.7201 66.08 53.8901 85.35 52.1201C101.01 50.6801 115.8 49.3301 131.71 51.2201C137.84 51.9501 152.75 53.1001 158.83 48.0801C162.45 45.0801 169.36 31.0001 166.73 19.9701C165.19 13.5101 160.66 9.39007 153.27 7.71007C134.92 3.56007 123.97 4.70005 112.38 5.90005C99.82 7.21005 85.59 8.69006 59.73 3.45006C53.43 2.20006 24.75 1.44006 19.39 4.20006Z" fill="#005B5D"/>
</svg>
