<?xml version="1.0" encoding="utf-8"?>
<!-- Generator: Adobe Illustrator 25.0.1, SVG Export Plug-In . SVG Version: 6.00 Build 0)  -->
<svg version="1.1" id="Layer_1" xmlns="http://www.w3.org/2000/svg" xmlns:xlink="http://www.w3.org/1999/xlink" x="0px" y="0px"
	 viewBox="0 0 750 880" style="enable-background:new 0 0 750 880;" xml:space="preserve">
<style type="text/css">
	.st0{clip-path:url(#SVGID_2_);}
	.st1{clip-path:url(#SVGID_4_);}
	.st2{clip-path:url(#SVGID_6_);}
	.st3{clip-path:url(#SVGID_8_);}
	.st4{clip-path:url(#SVGID_10_);}
</style>
<g>
	<g>
		<g>
			<defs>
				<path id="SVGID_1_" d="M390.87,393.2c-23.79,2.64-48.78,2.48-72.45,5.96c-4.43,22.72-2.94,49.37-3.25,78.81
					c4.42,3.79,9,8.54,13.77,11.93c9.28,6.6,18.56,13.21,27.85,19.81c1.55,0,52.48-4.36,78.35-5.99c0-3.15-1.19-51.28-1.12-76.58
					C434.39,426.44,408.3,403.81,390.87,393.2z"/>
			</defs>
			<clipPath id="SVGID_2_">
				<use xlink:href="#SVGID_1_"  style="overflow:visible;"/>
			</clipPath>
			<g class="st0">
				<g>
					<defs>
						<rect id="SVGID_3_" x="364.04" y="340.53" width="96.41" height="89.08"/>
					</defs>
					<clipPath id="SVGID_4_">
						<use xlink:href="#SVGID_3_"  style="overflow:visible;"/>
					</clipPath>
					<g class="st1">
						<path d="M462.01,435.76c0.93-0.34,1.99-0.28,2.92-0.65c2.53-1,2.86-4.56,5.3-5.74c0.96-0.46,2.17-0.46,3.12,0.03
							c0.95,0.49,1.61,1.45,1.67,2.46c0.04,0.68-0.16,1.35-0.43,1.99c-1.04,2.46-3.05,4.56-5.55,5.79
							c-2.07,1.01-5.49,1.87-7.82,1.14C458.69,439.99,460.08,436.47,462.01,435.76z"/>
					</g>
					<g class="st1">
						<path d="M365.6,435.76c0.93-0.34,1.99-0.28,2.92-0.65c2.53-1,2.86-4.56,5.3-5.74c0.96-0.46,2.17-0.46,3.12,0.03
							c0.95,0.49,1.61,1.45,1.67,2.46c0.04,0.68-0.16,1.35-0.43,1.99c-1.04,2.46-3.05,4.56-5.55,5.79
							c-2.07,1.01-5.49,1.87-7.82,1.14C362.28,439.99,363.67,436.47,365.6,435.76z"/>
					</g>
					<g class="st1">
						<path d="M438.37,405.02c1.57,0.17,2.66,1.58,3.18,2.98s0.7,2.93,1.5,4.21c0.95,1.53,2.66,2.51,3.89,3.86
							c1.23,1.35,1.88,3.56,0.53,4.81c-2.96,2.74-8.83-3.05-10.66-5.2C434.79,413.33,432.6,404.41,438.37,405.02z"/>
						<path d="M451.09,391.74c1.38-0.03,2.81,0.15,3.98,0.84c1.17,0.68,2.01,1.96,1.81,3.24c-0.17,1.1-1.08,2.01-2.15,2.46
							c-1.08,0.45-2.3,0.5-3.48,0.38c-0.96-0.1-1.94-0.3-2.87-0.07c-1.59,0.4-2.5,1.88-4,2.44c-1.46,0.55-3.57,0.23-4.44-1.12
							c-1.85-2.86,2.98-5.83,5.2-6.83C446.99,392.25,449.03,391.78,451.09,391.74z"/>
						<path d="M466.74,404.26c-0.72,0.84-1.7,1.43-2.62,2.08c-1.83,1.29-3.46,2.86-5.47,3.9c-2.01,1.03-4.61,1.45-6.55,0.31
							c-0.42-0.24-0.79-0.56-1.03-0.96c-0.44-0.74-0.33-1.68,0.09-2.42c0.42-0.75,1.11-1.32,1.84-1.82
							c0.61-0.42,1.26-0.79,1.99-0.96c0.86-0.2,1.78-0.09,2.64-0.27c3.01-0.61,4.06-3.89,6.69-5.06
							C467.81,397.51,468.34,402.37,466.74,404.26z"/>
						<path d="M447.18,425.21c0.49-1.29,1.68-2.34,3.09-2.71c1.17-0.31,2.43-0.19,3.6-0.51c1.7-0.47,2.94-1.78,4.34-2.8
							c1.4-1.01,3.39-1.74,4.89-0.87c0.86,0.5,1.36,1.45,1.43,2.39c0.07,0.95-0.24,1.89-0.71,2.73c-1.83,3.25-5.75,4.91-9.49,6.02
							c-1.71,0.51-4.27,1.2-5.97,0.3C446.87,428.99,446.66,426.58,447.18,425.21z"/>
						<path d="M462.01,391.22c0.93-0.34,1.99-0.28,2.92-0.65c2.53-1,2.86-4.56,5.3-5.74c0.96-0.46,2.17-0.46,3.12,0.03
							c0.95,0.49,1.61,1.45,1.67,2.46c0.04,0.68-0.16,1.35-0.43,1.99c-1.04,2.46-3.05,4.56-5.55,5.79
							c-2.07,1.01-5.49,1.87-7.82,1.14C458.69,395.45,460.08,391.93,462.01,391.22z"/>
					</g>
					<g class="st1">
						<path d="M390.16,427.29c1.57,0.17,2.66,1.58,3.18,2.98c0.52,1.4,0.7,2.93,1.5,4.21c0.95,1.53,2.66,2.51,3.89,3.86
							c1.23,1.35,1.88,3.56,0.53,4.81c-2.96,2.74-8.83-3.05-10.66-5.2C386.59,435.6,384.4,426.68,390.16,427.29z"/>
						<path d="M402.89,414.01c1.38-0.03,2.81,0.15,3.98,0.84c1.17,0.68,2.01,1.96,1.81,3.24c-0.17,1.1-1.08,2.01-2.15,2.46
							c-1.08,0.45-2.3,0.5-3.48,0.38c-0.96-0.1-1.94-0.3-2.87-0.07c-1.59,0.4-2.5,1.88-4,2.44c-1.47,0.55-3.57,0.23-4.44-1.12
							c-1.85-2.86,2.98-5.83,5.2-6.83C398.78,414.52,400.83,414.05,402.89,414.01z"/>
						<path d="M418.53,426.53c-0.72,0.84-1.7,1.43-2.62,2.08c-1.83,1.29-3.46,2.86-5.47,3.9c-2.01,1.03-4.61,1.45-6.55,0.31
							c-0.42-0.24-0.79-0.56-1.03-0.96c-0.44-0.74-0.33-1.68,0.09-2.42c0.42-0.75,1.11-1.32,1.84-1.82
							c0.61-0.42,1.26-0.79,1.99-0.96c0.86-0.2,1.78-0.09,2.64-0.27c3.01-0.61,4.06-3.89,6.69-5.06
							C419.6,419.78,420.14,424.64,418.53,426.53z"/>
						<path d="M413.8,413.49c0.93-0.34,1.99-0.28,2.92-0.65c2.53-1,2.86-4.56,5.3-5.74c0.96-0.46,2.17-0.46,3.12,0.03
							c0.95,0.49,1.61,1.45,1.67,2.46c0.04,0.68-0.16,1.35-0.43,1.99c-1.04,2.46-3.05,4.56-5.55,5.79
							c-2.07,1.01-5.49,1.87-7.82,1.14C410.49,417.72,411.88,414.2,413.8,413.49z"/>
						<path d="M435.3,433.84c-1.22-0.02-2.22-0.93-2.85-1.91c-0.63-0.98-1.05-2.09-1.84-2.96c-0.76-0.84-1.81-1.39-2.81-1.96
							c-1-0.57-2.01-1.22-2.61-2.16c-0.6-0.94-0.69-2.27,0.11-3.08c0.55-0.57,1.43-0.78,2.24-0.73c2.78,0.19,6.96,2.67,8.64,4.79
							C437.63,427.69,439.88,433.92,435.3,433.84z"/>
					</g>
					<g class="st1">
						<path d="M370.33,404.26c-0.72,0.84-1.7,1.43-2.62,2.08c-1.83,1.29-3.46,2.86-5.47,3.9c-2.01,1.03-4.61,1.45-6.55,0.31
							c-0.42-0.24-0.79-0.56-1.03-0.96c-0.44-0.74-0.33-1.68,0.09-2.42c0.42-0.75,1.11-1.32,1.84-1.82
							c0.61-0.42,1.26-0.79,1.99-0.96c0.86-0.2,1.78-0.09,2.64-0.27c3.01-0.61,4.06-3.89,6.69-5.06
							C371.4,397.51,371.94,402.37,370.33,404.26z"/>
						<path d="M350.77,425.21c0.49-1.29,1.68-2.34,3.09-2.71c1.17-0.31,2.43-0.19,3.6-0.51c1.7-0.47,2.94-1.78,4.34-2.8
							c1.4-1.01,3.39-1.74,4.89-0.87c0.86,0.5,1.36,1.45,1.43,2.39c0.07,0.95-0.24,1.89-0.71,2.73c-1.83,3.25-5.75,4.91-9.49,6.02
							c-1.71,0.51-4.27,1.2-5.97,0.3C350.46,428.99,350.25,426.58,350.77,425.21z"/>
						<path d="M372.28,410.42c1.22,0.07,2.18,1.02,2.76,2.03c0.59,1,0.95,2.13,1.71,3.03c0.72,0.87,1.74,1.46,2.72,2.08
							c0.97,0.61,1.95,1.3,2.51,2.27c0.56,0.97,0.58,2.29-0.25,3.07c-0.58,0.54-1.46,0.73-2.27,0.64c-2.77-0.3-6.83-2.95-8.41-5.14
							C369.67,416.47,367.71,410.15,372.28,410.42z"/>
						<path d="M365.6,391.22c0.93-0.34,1.99-0.28,2.92-0.65c2.53-1,2.86-4.56,5.3-5.74c0.96-0.46,2.17-0.46,3.12,0.03
							c0.95,0.49,1.61,1.45,1.67,2.46c0.04,0.68-0.16,1.35-0.43,1.99c-1.04,2.46-3.05,4.56-5.55,5.79
							c-2.07,1.01-5.49,1.87-7.82,1.14C362.28,395.45,363.67,391.93,365.6,391.22z"/>
						<path d="M387.09,411.57c-1.22-0.02-2.22-0.93-2.85-1.91c-0.63-0.98-1.05-2.09-1.84-2.96c-0.76-0.84-1.81-1.39-2.81-1.96
							c-1-0.57-2.01-1.22-2.61-2.16c-0.6-0.94-0.69-2.27,0.11-3.08c0.55-0.57,1.43-0.78,2.24-0.73c2.78,0.19,6.96,2.67,8.64,4.79
							C389.43,405.41,391.68,411.65,387.09,411.57z"/>
					</g>
					<g class="st1">
						<path d="M438.37,360.48c1.57,0.17,2.66,1.58,3.18,2.98c0.52,1.4,0.7,2.93,1.5,4.21c0.95,1.53,2.66,2.51,3.89,3.86
							c1.23,1.35,1.88,3.56,0.53,4.81c-2.96,2.74-8.83-3.05-10.66-5.2C434.79,368.79,432.6,359.87,438.37,360.48z"/>
						<path d="M451.09,347.2c1.38-0.03,2.81,0.15,3.98,0.84c1.17,0.68,2.01,1.96,1.81,3.24c-0.17,1.1-1.08,2.01-2.15,2.46
							c-1.08,0.45-2.3,0.5-3.48,0.38c-0.96-0.1-1.94-0.3-2.87-0.07c-1.59,0.4-2.5,1.88-4,2.45c-1.46,0.55-3.57,0.23-4.44-1.12
							c-1.85-2.86,2.98-5.83,5.2-6.83C446.99,347.71,449.03,347.23,451.09,347.2z"/>
						<path d="M466.74,359.72c-0.72,0.84-1.7,1.43-2.62,2.08c-1.83,1.29-3.46,2.86-5.47,3.9c-2.01,1.03-4.61,1.45-6.55,0.31
							c-0.42-0.24-0.79-0.56-1.03-0.96c-0.44-0.74-0.33-1.68,0.09-2.42s1.11-1.32,1.84-1.82c0.61-0.42,1.26-0.79,1.99-0.96
							c0.86-0.2,1.78-0.09,2.64-0.27c3.01-0.61,4.06-3.89,6.69-5.06C467.81,352.97,468.34,357.83,466.74,359.72z"/>
						<path d="M447.18,380.66c0.49-1.29,1.68-2.34,3.09-2.71c1.17-0.31,2.43-0.19,3.6-0.51c1.7-0.47,2.94-1.78,4.34-2.8
							c1.4-1.01,3.39-1.74,4.89-0.87c0.86,0.5,1.36,1.45,1.43,2.39c0.07,0.95-0.24,1.89-0.71,2.73c-1.83,3.25-5.75,4.91-9.49,6.02
							c-1.71,0.51-4.27,1.19-5.97,0.3C446.87,384.44,446.66,382.04,447.18,380.66z"/>
						<path d="M462.01,346.68c0.93-0.34,1.99-0.28,2.92-0.65c2.53-1,2.86-4.56,5.3-5.74c0.96-0.46,2.17-0.46,3.12,0.03
							c0.95,0.49,1.61,1.45,1.67,2.46c0.04,0.68-0.16,1.35-0.43,1.99c-1.04,2.46-3.05,4.56-5.55,5.79
							c-2.07,1.01-5.49,1.87-7.82,1.14C458.69,350.91,460.08,347.39,462.01,346.68z"/>
					</g>
					<g class="st1">
						<path d="M390.16,382.75c1.57,0.17,2.66,1.58,3.18,2.98c0.52,1.4,0.7,2.93,1.5,4.21c0.95,1.53,2.66,2.51,3.89,3.86
							c1.23,1.35,1.88,3.56,0.53,4.81c-2.96,2.74-8.83-3.05-10.66-5.2C386.59,391.06,384.4,382.14,390.16,382.75z"/>
						<path d="M402.89,369.47c1.38-0.03,2.81,0.15,3.98,0.84c1.17,0.68,2.01,1.96,1.81,3.24c-0.17,1.1-1.08,2.01-2.15,2.46
							c-1.08,0.45-2.3,0.5-3.48,0.38c-0.96-0.1-1.94-0.3-2.87-0.07c-1.59,0.4-2.5,1.88-4,2.44c-1.47,0.55-3.57,0.23-4.44-1.12
							c-1.85-2.86,2.98-5.83,5.2-6.83C398.78,369.98,400.83,369.51,402.89,369.47z"/>
						<path d="M418.53,381.99c-0.72,0.84-1.7,1.43-2.62,2.08c-1.83,1.29-3.46,2.86-5.47,3.9c-2.01,1.03-4.61,1.45-6.55,0.31
							c-0.42-0.24-0.79-0.56-1.03-0.96c-0.44-0.74-0.33-1.68,0.09-2.42c0.42-0.75,1.11-1.32,1.84-1.82
							c0.61-0.42,1.26-0.79,1.99-0.96c0.86-0.2,1.78-0.09,2.64-0.27c3.01-0.61,4.06-3.89,6.69-5.06
							C419.6,375.24,420.14,380.1,418.53,381.99z"/>
						<path d="M398.98,402.94c0.49-1.29,1.68-2.34,3.09-2.71c1.17-0.31,2.43-0.19,3.6-0.51c1.7-0.47,2.94-1.78,4.34-2.8
							c1.4-1.01,3.39-1.74,4.89-0.87c0.86,0.5,1.36,1.45,1.43,2.39c0.07,0.95-0.24,1.89-0.71,2.73c-1.83,3.25-5.75,4.91-9.49,6.02
							c-1.71,0.51-4.27,1.19-5.97,0.3C398.66,406.71,398.45,404.31,398.98,402.94z"/>
						<path d="M420.49,388.15c1.22,0.07,2.18,1.02,2.76,2.03c0.59,1,0.95,2.13,1.71,3.03c0.72,0.87,1.74,1.46,2.72,2.08
							c0.97,0.61,1.95,1.3,2.51,2.27c0.56,0.97,0.58,2.29-0.25,3.07c-0.58,0.54-1.46,0.73-2.27,0.64c-2.77-0.3-6.83-2.95-8.41-5.14
							C417.87,394.2,415.91,387.88,420.49,388.15z"/>
						<path d="M413.8,368.95c0.93-0.34,1.99-0.28,2.92-0.65c2.53-1,2.86-4.56,5.3-5.74c0.96-0.46,2.17-0.46,3.12,0.03
							c0.95,0.49,1.61,1.45,1.67,2.46c0.04,0.68-0.16,1.35-0.43,1.99c-1.04,2.46-3.05,4.56-5.55,5.79
							c-2.07,1.01-5.49,1.87-7.82,1.14C410.49,373.18,411.88,369.66,413.8,368.95z"/>
						<path d="M435.3,389.3c-1.22-0.02-2.22-0.93-2.85-1.91c-0.63-0.98-1.05-2.09-1.84-2.96c-0.76-0.84-1.81-1.39-2.81-1.96
							c-1-0.57-2.01-1.22-2.61-2.16c-0.6-0.94-0.69-2.27,0.11-3.08c0.55-0.57,1.43-0.78,2.24-0.73c2.78,0.19,6.96,2.67,8.64,4.79
							C437.63,383.14,439.88,389.38,435.3,389.3z"/>
					</g>
					<g class="st1">
						<path d="M370.33,359.72c-0.72,0.84-1.7,1.43-2.62,2.08c-1.83,1.29-3.46,2.86-5.47,3.9c-2.01,1.03-4.61,1.45-6.55,0.31
							c-0.42-0.24-0.79-0.56-1.03-0.96c-0.44-0.74-0.33-1.68,0.09-2.42c0.42-0.75,1.11-1.32,1.84-1.82
							c0.61-0.42,1.26-0.79,1.99-0.96c0.86-0.2,1.78-0.09,2.64-0.27c3.01-0.61,4.06-3.89,6.69-5.06
							C371.4,352.97,371.94,357.83,370.33,359.72z"/>
						<path d="M350.77,380.66c0.49-1.29,1.68-2.34,3.09-2.71c1.17-0.31,2.43-0.19,3.6-0.51c1.7-0.47,2.94-1.78,4.34-2.8
							c1.4-1.01,3.39-1.74,4.89-0.87c0.86,0.5,1.36,1.45,1.43,2.39c0.07,0.95-0.24,1.89-0.71,2.73c-1.83,3.25-5.75,4.91-9.49,6.02
							c-1.71,0.51-4.27,1.19-5.97,0.3C350.46,384.44,350.25,382.04,350.77,380.66z"/>
						<path d="M372.28,365.88c1.22,0.07,2.18,1.02,2.76,2.03c0.59,1,0.95,2.13,1.71,3.03c0.72,0.87,1.74,1.46,2.72,2.08
							c0.97,0.61,1.95,1.3,2.51,2.27c0.56,0.97,0.58,2.29-0.25,3.07c-0.58,0.54-1.46,0.73-2.27,0.64c-2.77-0.3-6.83-2.95-8.41-5.14
							C369.67,371.93,367.71,365.61,372.28,365.88z"/>
						<path d="M365.6,346.68c0.93-0.34,1.99-0.28,2.92-0.65c2.53-1,2.86-4.56,5.3-5.74c0.96-0.46,2.17-0.46,3.12,0.03
							c0.95,0.49,1.61,1.45,1.67,2.46c0.04,0.68-0.16,1.35-0.43,1.99c-1.04,2.46-3.05,4.56-5.55,5.79
							c-2.07,1.01-5.49,1.87-7.82,1.14C362.28,350.91,363.67,347.39,365.6,346.68z"/>
						<path d="M387.09,367.03c-1.22-0.02-2.22-0.93-2.85-1.91c-0.63-0.98-1.05-2.09-1.84-2.96c-0.76-0.84-1.81-1.39-2.81-1.96
							c-1-0.57-2.01-1.22-2.61-2.16c-0.6-0.94-0.69-2.27,0.11-3.08c0.55-0.57,1.43-0.78,2.24-0.73c2.78,0.19,6.96,2.67,8.64,4.79
							C389.43,360.87,391.68,367.11,387.09,367.03z"/>
					</g>
					<g class="st1">
						<path d="M447.18,336.12c0.49-1.29,1.68-2.34,3.09-2.71c1.17-0.31,2.43-0.19,3.6-0.51c1.7-0.47,2.94-1.78,4.34-2.8
							c1.4-1.01,3.39-1.74,4.89-0.87c0.86,0.5,1.36,1.45,1.43,2.39c0.07,0.95-0.24,1.89-0.71,2.73c-1.83,3.25-5.75,4.91-9.49,6.02
							c-1.71,0.51-4.27,1.19-5.97,0.3C446.87,339.9,446.66,337.5,447.18,336.12z"/>
					</g>
					<g class="st1">
						<path d="M390.16,338.21c1.57,0.17,2.66,1.58,3.18,2.98c0.52,1.4,0.7,2.93,1.5,4.21c0.95,1.53,2.66,2.51,3.89,3.86
							c1.23,1.35,1.88,3.56,0.53,4.81c-2.96,2.74-8.83-3.05-10.66-5.2C386.59,346.51,384.4,337.6,390.16,338.21z"/>
						<path d="M418.53,337.45c-0.72,0.84-1.7,1.43-2.62,2.08c-1.83,1.29-3.46,2.86-5.47,3.9c-2.01,1.03-4.61,1.45-6.55,0.31
							c-0.42-0.24-0.79-0.56-1.03-0.96c-0.44-0.74-0.33-1.68,0.09-2.42c0.42-0.75,1.11-1.32,1.84-1.82
							c0.61-0.42,1.26-0.79,1.99-0.96c0.86-0.2,1.78-0.09,2.64-0.27c3.01-0.61,4.06-3.89,6.69-5.06
							C419.6,330.7,420.14,335.56,418.53,337.45z"/>
						<path d="M398.98,358.39c0.49-1.29,1.68-2.34,3.09-2.71c1.17-0.31,2.43-0.19,3.6-0.51c1.7-0.47,2.94-1.78,4.34-2.8
							c1.4-1.01,3.39-1.74,4.89-0.87c0.86,0.5,1.36,1.45,1.43,2.39c0.07,0.95-0.24,1.89-0.71,2.73c-1.83,3.25-5.75,4.91-9.49,6.02
							c-1.71,0.51-4.27,1.19-5.97,0.3C398.66,362.17,398.45,359.77,398.98,358.39z"/>
						<path d="M420.49,343.6c1.22,0.07,2.18,1.02,2.76,2.03c0.59,1,0.95,2.13,1.71,3.03c0.72,0.87,1.74,1.46,2.72,2.08
							c0.97,0.61,1.95,1.3,2.51,2.27c0.56,0.97,0.58,2.29-0.25,3.07c-0.58,0.54-1.46,0.73-2.27,0.64c-2.77-0.3-6.83-2.95-8.41-5.14
							C417.87,349.66,415.91,343.34,420.49,343.6z"/>
						<path d="M435.3,344.76c-1.22-0.02-2.22-0.93-2.85-1.91c-0.63-0.98-1.05-2.09-1.84-2.96c-0.76-0.84-1.81-1.39-2.81-1.96
							c-1-0.57-2.01-1.22-2.61-2.16c-0.6-0.94-0.69-2.27,0.11-3.08c0.55-0.57,1.43-0.78,2.24-0.73c2.78,0.19,6.96,2.67,8.64,4.79
							C437.63,338.6,439.88,344.84,435.3,344.76z"/>
					</g>
					<g class="st1">
						<path d="M350.77,336.12c0.49-1.29,1.68-2.34,3.09-2.71c1.17-0.31,2.43-0.19,3.6-0.51c1.7-0.47,2.94-1.78,4.34-2.8
							c1.4-1.01,3.39-1.74,4.89-0.87c0.86,0.5,1.36,1.45,1.43,2.39c0.07,0.95-0.24,1.89-0.71,2.73c-1.83,3.25-5.75,4.91-9.49,6.02
							c-1.71,0.51-4.27,1.19-5.97,0.3C350.46,339.9,350.25,337.5,350.77,336.12z"/>
					</g>
				</g>
			</g>
			<g class="st0">
				<g>
					<defs>
						<rect id="SVGID_5_" x="364.04" y="429.62" width="96.41" height="89.08"/>
					</defs>
					<clipPath id="SVGID_6_">
						<use xlink:href="#SVGID_5_"  style="overflow:visible;"/>
					</clipPath>
					<g class="st2">
						<path d="M462.01,524.85c0.93-0.34,1.99-0.28,2.92-0.65c2.53-1,2.86-4.56,5.3-5.74c0.96-0.46,2.17-0.46,3.12,0.03
							c0.95,0.49,1.61,1.45,1.67,2.46c0.04,0.68-0.16,1.35-0.43,1.99c-1.04,2.46-3.05,4.56-5.55,5.79
							c-2.07,1.01-5.49,1.87-7.82,1.14C458.69,529.08,460.08,525.56,462.01,524.85z"/>
					</g>
					<g class="st2">
						<path d="M365.6,524.85c0.93-0.34,1.99-0.28,2.92-0.65c2.53-1,2.86-4.56,5.3-5.74c0.96-0.46,2.17-0.46,3.12,0.03
							s1.61,1.45,1.67,2.46c0.04,0.68-0.16,1.35-0.43,1.99c-1.04,2.46-3.05,4.56-5.55,5.79c-2.07,1.01-5.49,1.87-7.82,1.14
							C362.28,529.08,363.67,525.56,365.6,524.85z"/>
					</g>
					<g class="st2">
						<path d="M438.37,494.11c1.57,0.17,2.66,1.58,3.18,2.98s0.7,2.93,1.5,4.21c0.95,1.53,2.66,2.51,3.89,3.86
							c1.23,1.35,1.88,3.56,0.53,4.81c-2.96,2.74-8.83-3.05-10.66-5.2C434.79,502.41,432.6,493.5,438.37,494.11z"/>
						<path d="M451.09,480.82c1.38-0.03,2.81,0.15,3.98,0.84s2.01,1.96,1.81,3.24c-0.17,1.1-1.08,2.01-2.15,2.46s-2.3,0.5-3.48,0.38
							c-0.96-0.1-1.94-0.3-2.87-0.07c-1.59,0.4-2.5,1.88-4,2.44c-1.46,0.55-3.57,0.23-4.44-1.12c-1.85-2.86,2.98-5.83,5.2-6.83
							C446.99,481.33,449.03,480.86,451.09,480.82z"/>
						<path d="M466.74,493.34c-0.72,0.84-1.7,1.43-2.62,2.08c-1.83,1.29-3.46,2.86-5.47,3.9c-2.01,1.03-4.61,1.45-6.55,0.31
							c-0.42-0.24-0.79-0.56-1.03-0.96c-0.44-0.74-0.33-1.68,0.09-2.42c0.42-0.75,1.11-1.32,1.84-1.82
							c0.61-0.42,1.26-0.79,1.99-0.96c0.86-0.2,1.78-0.09,2.64-0.27c3.01-0.61,4.06-3.89,6.69-5.06
							C467.81,486.59,468.34,491.45,466.74,493.34z"/>
						<path d="M447.18,514.29c0.49-1.29,1.68-2.34,3.09-2.71c1.17-0.31,2.43-0.19,3.6-0.51c1.7-0.47,2.94-1.78,4.34-2.8
							c1.4-1.01,3.39-1.74,4.89-0.87c0.86,0.5,1.36,1.45,1.43,2.39c0.07,0.95-0.24,1.89-0.71,2.73c-1.83,3.25-5.75,4.91-9.49,6.02
							c-1.71,0.51-4.27,1.2-5.97,0.3C446.87,518.07,446.66,515.67,447.18,514.29z"/>
						<path d="M462.01,480.3c0.93-0.34,1.99-0.28,2.92-0.65c2.53-1,2.86-4.56,5.3-5.74c0.96-0.46,2.17-0.46,3.12,0.03
							c0.95,0.49,1.61,1.45,1.67,2.46c0.04,0.68-0.16,1.35-0.43,1.99c-1.04,2.46-3.05,4.56-5.55,5.79
							c-2.07,1.01-5.49,1.87-7.82,1.14C458.69,484.54,460.08,481.01,462.01,480.3z"/>
					</g>
					<g class="st2">
						<path d="M390.16,516.38c1.57,0.17,2.66,1.58,3.18,2.98c0.52,1.4,0.7,2.93,1.5,4.21c0.95,1.53,2.66,2.51,3.89,3.86
							c1.23,1.35,1.88,3.56,0.53,4.81c-2.96,2.74-8.83-3.05-10.66-5.2C386.59,524.68,384.4,515.77,390.16,516.38z"/>
						<path d="M402.89,503.09c1.38-0.03,2.81,0.15,3.98,0.84c1.17,0.68,2.01,1.96,1.81,3.24c-0.17,1.1-1.08,2.01-2.15,2.46
							c-1.08,0.45-2.3,0.5-3.48,0.38c-0.96-0.1-1.94-0.3-2.87-0.07c-1.59,0.4-2.5,1.88-4,2.44c-1.47,0.55-3.57,0.23-4.44-1.12
							c-1.85-2.86,2.98-5.83,5.2-6.83C398.78,503.6,400.83,503.13,402.89,503.09z"/>
						<path d="M418.53,515.62c-0.72,0.84-1.7,1.43-2.62,2.08c-1.83,1.29-3.46,2.86-5.47,3.9c-2.01,1.03-4.61,1.45-6.55,0.31
							c-0.42-0.24-0.79-0.56-1.03-0.96c-0.44-0.74-0.33-1.68,0.09-2.42c0.42-0.75,1.11-1.32,1.84-1.82
							c0.61-0.42,1.26-0.79,1.99-0.96c0.86-0.2,1.78-0.09,2.64-0.27c3.01-0.61,4.06-3.89,6.69-5.06
							C419.6,508.86,420.14,513.72,418.53,515.62z"/>
						<path d="M413.8,502.58c0.93-0.34,1.99-0.28,2.92-0.65c2.53-1,2.86-4.56,5.3-5.74c0.96-0.46,2.17-0.46,3.12,0.03
							c0.95,0.49,1.61,1.45,1.67,2.46c0.04,0.68-0.16,1.35-0.43,1.99c-1.04,2.46-3.05,4.56-5.55,5.79
							c-2.07,1.01-5.49,1.87-7.82,1.14C410.49,506.81,411.88,503.29,413.8,502.58z"/>
						<path d="M435.3,522.93c-1.22-0.02-2.22-0.93-2.85-1.91c-0.63-0.98-1.05-2.09-1.84-2.96c-0.76-0.84-1.81-1.39-2.81-1.96
							c-1-0.57-2.01-1.22-2.61-2.16c-0.6-0.94-0.69-2.27,0.11-3.08c0.55-0.57,1.43-0.78,2.24-0.73c2.78,0.19,6.96,2.67,8.64,4.79
							C437.63,516.77,439.88,523,435.3,522.93z"/>
					</g>
					<g class="st2">
						<path d="M370.33,493.34c-0.72,0.84-1.7,1.43-2.62,2.08c-1.83,1.29-3.46,2.86-5.47,3.9c-2.01,1.03-4.61,1.45-6.55,0.31
							c-0.42-0.24-0.79-0.56-1.03-0.96c-0.44-0.74-0.33-1.68,0.09-2.42c0.42-0.75,1.11-1.32,1.84-1.82
							c0.61-0.42,1.26-0.79,1.99-0.96c0.86-0.2,1.78-0.09,2.64-0.27c3.01-0.61,4.06-3.89,6.69-5.06
							C371.4,486.59,371.94,491.45,370.33,493.34z"/>
						<path d="M350.77,514.29c0.49-1.29,1.68-2.34,3.09-2.71c1.17-0.31,2.43-0.19,3.6-0.51c1.7-0.47,2.94-1.78,4.34-2.8
							c1.4-1.01,3.39-1.74,4.89-0.87c0.86,0.5,1.36,1.45,1.43,2.39c0.07,0.95-0.24,1.89-0.71,2.73c-1.83,3.25-5.75,4.91-9.49,6.02
							c-1.71,0.51-4.27,1.2-5.97,0.3C350.46,518.07,350.25,515.67,350.77,514.29z"/>
						<path d="M372.28,499.5c1.22,0.07,2.18,1.02,2.76,2.03c0.59,1,0.95,2.13,1.71,3.03c0.72,0.87,1.74,1.46,2.72,2.08
							c0.97,0.61,1.95,1.3,2.51,2.27c0.56,0.97,0.58,2.29-0.25,3.07c-0.58,0.54-1.46,0.73-2.27,0.64c-2.77-0.3-6.83-2.95-8.41-5.14
							C369.67,505.56,367.71,499.24,372.28,499.5z"/>
						<path d="M365.6,480.3c0.93-0.34,1.99-0.28,2.92-0.65c2.53-1,2.86-4.56,5.3-5.74c0.96-0.46,2.17-0.46,3.12,0.03
							c0.95,0.49,1.61,1.45,1.67,2.46c0.04,0.68-0.16,1.35-0.43,1.99c-1.04,2.46-3.05,4.56-5.55,5.79
							c-2.07,1.01-5.49,1.87-7.82,1.14C362.28,484.54,363.67,481.01,365.6,480.3z"/>
						<path d="M387.09,500.65c-1.22-0.02-2.22-0.93-2.85-1.91c-0.63-0.98-1.05-2.09-1.84-2.96c-0.76-0.84-1.81-1.39-2.81-1.96
							c-1-0.57-2.01-1.22-2.61-2.16c-0.6-0.94-0.69-2.27,0.11-3.08c0.55-0.57,1.43-0.78,2.24-0.73c2.78,0.19,6.96,2.67,8.64,4.79
							C389.43,494.5,391.68,500.73,387.09,500.65z"/>
					</g>
					<g class="st2">
						<path d="M438.37,449.57c1.57,0.17,2.66,1.58,3.18,2.98s0.7,2.93,1.5,4.21c0.95,1.53,2.66,2.51,3.89,3.86
							c1.23,1.35,1.88,3.56,0.53,4.81c-2.96,2.74-8.83-3.05-10.66-5.2C434.79,457.87,432.6,448.95,438.37,449.57z"/>
						<path d="M451.09,436.28c1.38-0.03,2.81,0.15,3.98,0.84c1.17,0.68,2.01,1.96,1.81,3.24c-0.17,1.1-1.08,2.01-2.15,2.46
							c-1.08,0.45-2.3,0.5-3.48,0.38c-0.96-0.1-1.94-0.3-2.87-0.07c-1.59,0.4-2.5,1.88-4,2.44c-1.46,0.55-3.57,0.23-4.44-1.12
							c-1.85-2.86,2.98-5.83,5.2-6.83C446.99,436.79,449.03,436.32,451.09,436.28z"/>
						<path d="M466.74,448.8c-0.72,0.84-1.7,1.43-2.62,2.08c-1.83,1.29-3.46,2.86-5.47,3.9c-2.01,1.03-4.61,1.45-6.55,0.31
							c-0.42-0.24-0.79-0.56-1.03-0.96c-0.44-0.74-0.33-1.68,0.09-2.42c0.42-0.75,1.11-1.32,1.84-1.82
							c0.61-0.42,1.26-0.79,1.99-0.96c0.86-0.2,1.78-0.09,2.64-0.27c3.01-0.61,4.06-3.89,6.69-5.06
							C467.81,442.05,468.34,446.91,466.74,448.8z"/>
						<path d="M447.18,469.75c0.49-1.29,1.68-2.34,3.09-2.71c1.17-0.31,2.43-0.19,3.6-0.51c1.7-0.47,2.94-1.78,4.34-2.8
							c1.4-1.01,3.39-1.74,4.89-0.87c0.86,0.5,1.36,1.45,1.43,2.39c0.07,0.95-0.24,1.89-0.71,2.73c-1.83,3.25-5.75,4.91-9.49,6.02
							c-1.71,0.51-4.27,1.2-5.97,0.3C446.87,473.53,446.66,471.12,447.18,469.75z"/>
						<path d="M462.01,435.76c0.93-0.34,1.99-0.28,2.92-0.65c2.53-1,2.86-4.56,5.3-5.74c0.96-0.46,2.17-0.46,3.12,0.03
							c0.95,0.49,1.61,1.45,1.67,2.46c0.04,0.68-0.16,1.35-0.43,1.99c-1.04,2.46-3.05,4.56-5.55,5.79
							c-2.07,1.01-5.49,1.87-7.82,1.14C458.69,439.99,460.08,436.47,462.01,435.76z"/>
					</g>
					<g class="st2">
						<path d="M390.16,471.84c1.57,0.17,2.66,1.58,3.18,2.98c0.52,1.4,0.7,2.93,1.5,4.21c0.95,1.53,2.66,2.51,3.89,3.86
							c1.23,1.35,1.88,3.56,0.53,4.81c-2.96,2.74-8.83-3.05-10.66-5.2C386.59,480.14,384.4,471.23,390.16,471.84z"/>
						<path d="M402.89,458.55c1.38-0.03,2.81,0.15,3.98,0.84c1.17,0.68,2.01,1.96,1.81,3.24c-0.17,1.1-1.08,2.01-2.15,2.46
							c-1.08,0.45-2.3,0.5-3.48,0.38c-0.96-0.1-1.94-0.3-2.87-0.07c-1.59,0.4-2.5,1.88-4,2.44c-1.47,0.55-3.57,0.23-4.44-1.12
							c-1.85-2.86,2.98-5.83,5.2-6.83C398.78,459.06,400.83,458.59,402.89,458.55z"/>
						<path d="M418.53,471.07c-0.72,0.84-1.7,1.43-2.62,2.08c-1.83,1.29-3.46,2.86-5.47,3.9c-2.01,1.03-4.61,1.45-6.55,0.31
							c-0.42-0.24-0.79-0.56-1.03-0.96c-0.44-0.74-0.33-1.68,0.09-2.42c0.42-0.75,1.11-1.32,1.84-1.82
							c0.61-0.42,1.26-0.79,1.99-0.96c0.86-0.2,1.78-0.09,2.64-0.27c3.01-0.61,4.06-3.89,6.69-5.06
							C419.6,464.32,420.14,469.18,418.53,471.07z"/>
						<path d="M398.98,492.02c0.49-1.29,1.68-2.34,3.09-2.71c1.17-0.31,2.43-0.19,3.6-0.51c1.7-0.47,2.94-1.78,4.34-2.8
							c1.4-1.01,3.39-1.74,4.89-0.87c0.86,0.5,1.36,1.45,1.43,2.39c0.07,0.95-0.24,1.89-0.71,2.73c-1.83,3.25-5.75,4.91-9.49,6.02
							c-1.71,0.51-4.27,1.19-5.97,0.3C398.66,495.8,398.45,493.4,398.98,492.02z"/>
						<path d="M420.49,477.23c1.22,0.07,2.18,1.02,2.76,2.03s0.95,2.13,1.71,3.03c0.72,0.87,1.74,1.46,2.72,2.08
							c0.97,0.61,1.95,1.3,2.51,2.27c0.56,0.97,0.58,2.29-0.25,3.07c-0.58,0.54-1.46,0.73-2.27,0.64c-2.77-0.3-6.83-2.95-8.41-5.14
							C417.87,483.29,415.91,476.97,420.49,477.23z"/>
						<path d="M413.8,458.03c0.93-0.34,1.99-0.28,2.92-0.65c2.53-1,2.86-4.56,5.3-5.74c0.96-0.46,2.17-0.46,3.12,0.03
							c0.95,0.49,1.61,1.45,1.67,2.46c0.04,0.68-0.16,1.35-0.43,1.99c-1.04,2.46-3.05,4.56-5.55,5.79
							c-2.07,1.01-5.49,1.87-7.82,1.14C410.49,462.27,411.88,458.74,413.8,458.03z"/>
						<path d="M435.3,478.38c-1.22-0.02-2.22-0.93-2.85-1.91s-1.05-2.09-1.84-2.96c-0.76-0.84-1.81-1.39-2.81-1.96
							c-1-0.57-2.01-1.22-2.61-2.16c-0.6-0.94-0.69-2.27,0.11-3.08c0.55-0.57,1.43-0.78,2.24-0.73c2.78,0.19,6.96,2.67,8.64,4.79
							C437.63,472.23,439.88,478.46,435.3,478.38z"/>
					</g>
					<g class="st2">
						<path d="M370.33,448.8c-0.72,0.84-1.7,1.43-2.62,2.08c-1.83,1.29-3.46,2.86-5.47,3.9c-2.01,1.03-4.61,1.45-6.55,0.31
							c-0.42-0.24-0.79-0.56-1.03-0.96c-0.44-0.74-0.33-1.68,0.09-2.42c0.42-0.75,1.11-1.32,1.84-1.82
							c0.61-0.42,1.26-0.79,1.99-0.96c0.86-0.2,1.78-0.09,2.64-0.27c3.01-0.61,4.06-3.89,6.69-5.06
							C371.4,442.05,371.94,446.91,370.33,448.8z"/>
						<path d="M350.77,469.75c0.49-1.29,1.68-2.34,3.09-2.71c1.17-0.31,2.43-0.19,3.6-0.51c1.7-0.47,2.94-1.78,4.34-2.8
							c1.4-1.01,3.39-1.74,4.89-0.87c0.86,0.5,1.36,1.45,1.43,2.39c0.07,0.95-0.24,1.89-0.71,2.73c-1.83,3.25-5.75,4.91-9.49,6.02
							c-1.71,0.51-4.27,1.2-5.97,0.3C350.46,473.53,350.25,471.12,350.77,469.75z"/>
						<path d="M372.28,454.96c1.22,0.07,2.18,1.02,2.76,2.03c0.59,1,0.95,2.13,1.71,3.03c0.72,0.87,1.74,1.46,2.72,2.08
							c0.97,0.61,1.95,1.3,2.51,2.27c0.56,0.97,0.58,2.29-0.25,3.07c-0.58,0.54-1.46,0.73-2.27,0.64c-2.77-0.3-6.83-2.95-8.41-5.14
							C369.67,461.01,367.71,454.69,372.28,454.96z"/>
						<path d="M365.6,435.76c0.93-0.34,1.99-0.28,2.92-0.65c2.53-1,2.86-4.56,5.3-5.74c0.96-0.46,2.17-0.46,3.12,0.03
							c0.95,0.49,1.61,1.45,1.67,2.46c0.04,0.68-0.16,1.35-0.43,1.99c-1.04,2.46-3.05,4.56-5.55,5.79
							c-2.07,1.01-5.49,1.87-7.82,1.14C362.28,439.99,363.67,436.47,365.6,435.76z"/>
						<path d="M387.09,456.11c-1.22-0.02-2.22-0.93-2.85-1.91c-0.63-0.98-1.05-2.09-1.84-2.96c-0.76-0.84-1.81-1.39-2.81-1.96
							c-1-0.57-2.01-1.22-2.61-2.16c-0.6-0.94-0.69-2.27,0.11-3.08c0.55-0.57,1.43-0.78,2.24-0.73c2.78,0.19,6.96,2.67,8.64,4.79
							C389.43,449.96,391.68,456.19,387.09,456.11z"/>
					</g>
					<g class="st2">
						<path d="M447.18,425.21c0.49-1.29,1.68-2.34,3.09-2.71c1.17-0.31,2.43-0.19,3.6-0.51c1.7-0.47,2.94-1.78,4.34-2.8
							c1.4-1.01,3.39-1.74,4.89-0.87c0.86,0.5,1.36,1.45,1.43,2.39c0.07,0.95-0.24,1.89-0.71,2.73c-1.83,3.25-5.75,4.91-9.49,6.02
							c-1.71,0.51-4.27,1.2-5.97,0.3C446.87,428.99,446.66,426.58,447.18,425.21z"/>
					</g>
					<g class="st2">
						<path d="M390.16,427.29c1.57,0.17,2.66,1.58,3.18,2.98c0.52,1.4,0.7,2.93,1.5,4.21c0.95,1.53,2.66,2.51,3.89,3.86
							c1.23,1.35,1.88,3.56,0.53,4.81c-2.96,2.74-8.83-3.05-10.66-5.2C386.59,435.6,384.4,426.68,390.16,427.29z"/>
						<path d="M418.53,426.53c-0.72,0.84-1.7,1.43-2.62,2.08c-1.83,1.29-3.46,2.86-5.47,3.9c-2.01,1.03-4.61,1.45-6.55,0.31
							c-0.42-0.24-0.79-0.56-1.03-0.96c-0.44-0.74-0.33-1.68,0.09-2.42c0.42-0.75,1.11-1.32,1.84-1.82
							c0.61-0.42,1.26-0.79,1.99-0.96c0.86-0.2,1.78-0.09,2.64-0.27c3.01-0.61,4.06-3.89,6.69-5.06
							C419.6,419.78,420.14,424.64,418.53,426.53z"/>
						<path d="M398.98,447.48c0.49-1.29,1.68-2.34,3.09-2.71c1.17-0.31,2.43-0.19,3.6-0.51c1.7-0.47,2.94-1.78,4.34-2.8
							c1.4-1.01,3.39-1.74,4.89-0.87c0.86,0.5,1.36,1.45,1.43,2.39c0.07,0.95-0.24,1.89-0.71,2.73c-1.83,3.25-5.75,4.91-9.49,6.02
							c-1.71,0.51-4.27,1.19-5.97,0.3C398.66,451.26,398.45,448.85,398.98,447.48z"/>
						<path d="M420.49,432.69c1.22,0.07,2.18,1.02,2.76,2.03s0.95,2.13,1.71,3.03c0.72,0.87,1.74,1.46,2.72,2.08
							c0.97,0.61,1.95,1.3,2.51,2.27c0.56,0.97,0.58,2.29-0.25,3.07c-0.58,0.54-1.46,0.73-2.27,0.64c-2.77-0.3-6.83-2.95-8.41-5.14
							C417.87,438.74,415.91,432.42,420.49,432.69z"/>
						<path d="M435.3,433.84c-1.22-0.02-2.22-0.93-2.85-1.91c-0.63-0.98-1.05-2.09-1.84-2.96c-0.76-0.84-1.81-1.39-2.81-1.96
							c-1-0.57-2.01-1.22-2.61-2.16c-0.6-0.94-0.69-2.27,0.11-3.08c0.55-0.57,1.43-0.78,2.24-0.73c2.78,0.19,6.96,2.67,8.64,4.79
							C437.63,427.69,439.88,433.92,435.3,433.84z"/>
					</g>
					<g class="st2">
						<path d="M350.77,425.21c0.49-1.29,1.68-2.34,3.09-2.71c1.17-0.31,2.43-0.19,3.6-0.51c1.7-0.47,2.94-1.78,4.34-2.8
							c1.4-1.01,3.39-1.74,4.89-0.87c0.86,0.5,1.36,1.45,1.43,2.39c0.07,0.95-0.24,1.89-0.71,2.73c-1.83,3.25-5.75,4.91-9.49,6.02
							c-1.71,0.51-4.27,1.2-5.97,0.3C350.46,428.99,350.25,426.58,350.77,425.21z"/>
					</g>
				</g>
			</g>
			<g class="st0">
				<g>
					<defs>
						<rect id="SVGID_7_" x="267.63" y="340.53" width="96.41" height="89.08"/>
					</defs>
					<clipPath id="SVGID_8_">
						<use xlink:href="#SVGID_7_"  style="overflow:visible;"/>
					</clipPath>
					<g class="st3">
						<path d="M365.6,435.76c0.93-0.34,1.99-0.28,2.92-0.65c2.53-1,2.86-4.56,5.3-5.74c0.96-0.46,2.17-0.46,3.12,0.03
							c0.95,0.49,1.61,1.45,1.67,2.46c0.04,0.68-0.16,1.35-0.43,1.99c-1.04,2.46-3.05,4.56-5.55,5.79
							c-2.07,1.01-5.49,1.87-7.82,1.14C362.28,439.99,363.67,436.47,365.6,435.76z"/>
					</g>
					<g class="st3">
						<path d="M269.19,435.76c0.93-0.34,1.99-0.28,2.92-0.65c2.53-1,2.86-4.56,5.3-5.74c0.96-0.46,2.17-0.46,3.12,0.03
							c0.95,0.49,1.61,1.45,1.67,2.46c0.04,0.68-0.16,1.35-0.43,1.99c-1.04,2.46-3.05,4.56-5.55,5.79
							c-2.07,1.01-5.49,1.87-7.82,1.14C265.87,439.99,267.26,436.47,269.19,435.76z"/>
					</g>
					<g class="st3">
						<path d="M341.96,405.02c1.57,0.17,2.66,1.58,3.18,2.98s0.7,2.93,1.5,4.21c0.95,1.53,2.66,2.51,3.89,3.86s1.88,3.56,0.53,4.81
							c-2.96,2.74-8.83-3.05-10.66-5.2C338.39,413.33,336.19,404.41,341.96,405.02z"/>
						<path d="M354.68,391.74c1.38-0.03,2.81,0.15,3.98,0.84c1.17,0.68,2.01,1.96,1.81,3.24c-0.17,1.1-1.08,2.01-2.15,2.46
							c-1.08,0.45-2.3,0.5-3.48,0.38c-0.96-0.1-1.94-0.3-2.87-0.07c-1.59,0.4-2.5,1.88-4,2.44c-1.47,0.55-3.57,0.23-4.44-1.12
							c-1.85-2.86,2.98-5.83,5.2-6.83C350.58,392.25,352.62,391.78,354.68,391.74z"/>
						<path d="M370.33,404.26c-0.72,0.84-1.7,1.43-2.62,2.08c-1.83,1.29-3.46,2.86-5.47,3.9c-2.01,1.03-4.61,1.45-6.55,0.31
							c-0.42-0.24-0.79-0.56-1.03-0.96c-0.44-0.74-0.33-1.68,0.09-2.42c0.42-0.75,1.11-1.32,1.84-1.82
							c0.61-0.42,1.26-0.79,1.99-0.96c0.86-0.2,1.78-0.09,2.64-0.27c3.01-0.61,4.06-3.89,6.69-5.06
							C371.4,397.51,371.94,402.37,370.33,404.26z"/>
						<path d="M350.77,425.21c0.49-1.29,1.68-2.34,3.09-2.71c1.17-0.31,2.43-0.19,3.6-0.51c1.7-0.47,2.94-1.78,4.34-2.8
							c1.4-1.01,3.39-1.74,4.89-0.87c0.86,0.5,1.36,1.45,1.43,2.39c0.07,0.95-0.24,1.89-0.71,2.73c-1.83,3.25-5.75,4.91-9.49,6.02
							c-1.71,0.51-4.27,1.2-5.97,0.3C350.46,428.99,350.25,426.58,350.77,425.21z"/>
						<path d="M365.6,391.22c0.93-0.34,1.99-0.28,2.92-0.65c2.53-1,2.86-4.56,5.3-5.74c0.96-0.46,2.17-0.46,3.12,0.03
							c0.95,0.49,1.61,1.45,1.67,2.46c0.04,0.68-0.16,1.35-0.43,1.99c-1.04,2.46-3.05,4.56-5.55,5.79
							c-2.07,1.01-5.49,1.87-7.82,1.14C362.28,395.45,363.67,391.93,365.6,391.22z"/>
					</g>
					<g class="st3">
						<path d="M293.75,427.29c1.57,0.17,2.66,1.58,3.18,2.98c0.52,1.4,0.7,2.93,1.5,4.21c0.95,1.53,2.66,2.51,3.89,3.86
							c1.23,1.35,1.88,3.56,0.53,4.81c-2.96,2.74-8.83-3.05-10.66-5.2C290.18,435.6,287.99,426.68,293.75,427.29z"/>
						<path d="M306.48,414.01c1.38-0.03,2.81,0.15,3.98,0.84c1.17,0.68,2.01,1.96,1.81,3.24c-0.17,1.1-1.08,2.01-2.15,2.46
							s-2.3,0.5-3.48,0.38c-0.96-0.1-1.94-0.3-2.87-0.07c-1.59,0.4-2.5,1.88-4,2.44c-1.46,0.55-3.57,0.23-4.44-1.12
							c-1.85-2.86,2.98-5.83,5.2-6.83C302.37,414.52,304.42,414.05,306.48,414.01z"/>
						<path d="M322.12,426.53c-0.72,0.84-1.7,1.43-2.62,2.08c-1.83,1.29-3.46,2.86-5.47,3.9c-2.01,1.03-4.61,1.45-6.55,0.31
							c-0.42-0.24-0.79-0.56-1.03-0.96c-0.44-0.74-0.33-1.68,0.09-2.42c0.42-0.75,1.11-1.32,1.84-1.82
							c0.61-0.42,1.26-0.79,1.99-0.96c0.86-0.2,1.78-0.09,2.64-0.27c3.01-0.61,4.06-3.89,6.69-5.06
							C323.19,419.78,323.73,424.64,322.12,426.53z"/>
						<path d="M317.39,413.49c0.93-0.34,1.99-0.28,2.92-0.65c2.53-1,2.86-4.56,5.3-5.74c0.96-0.46,2.17-0.46,3.12,0.03
							s1.61,1.45,1.67,2.46c0.04,0.68-0.16,1.35-0.43,1.99c-1.04,2.46-3.05,4.56-5.55,5.79c-2.07,1.01-5.49,1.87-7.82,1.14
							C314.08,417.72,315.47,414.2,317.39,413.49z"/>
						<path d="M338.89,433.84c-1.22-0.02-2.22-0.93-2.85-1.91c-0.63-0.98-1.05-2.09-1.84-2.96c-0.76-0.84-1.81-1.39-2.81-1.96
							c-1-0.57-2.01-1.22-2.61-2.16c-0.6-0.94-0.69-2.27,0.11-3.08c0.55-0.57,1.43-0.78,2.24-0.73c2.78,0.19,6.96,2.67,8.64,4.79
							C341.22,427.69,343.47,433.92,338.89,433.84z"/>
					</g>
					<g class="st3">
						<path d="M273.92,404.26c-0.72,0.84-1.7,1.43-2.62,2.08c-1.83,1.29-3.46,2.86-5.47,3.9c-2.01,1.03-4.61,1.45-6.55,0.31
							c-0.42-0.24-0.79-0.56-1.03-0.96c-0.44-0.74-0.33-1.68,0.09-2.42c0.42-0.75,1.11-1.32,1.84-1.82
							c0.61-0.42,1.26-0.79,1.99-0.96c0.86-0.2,1.78-0.09,2.64-0.27c3.01-0.61,4.06-3.89,6.69-5.06
							C274.99,397.51,275.53,402.37,273.92,404.26z"/>
						<path d="M254.36,425.21c0.49-1.29,1.68-2.34,3.09-2.71c1.17-0.31,2.43-0.19,3.6-0.51c1.7-0.47,2.94-1.78,4.34-2.8
							s3.39-1.74,4.89-0.87c0.86,0.5,1.36,1.45,1.43,2.39c0.07,0.95-0.24,1.89-0.71,2.73c-1.83,3.25-5.75,4.91-9.49,6.02
							c-1.71,0.51-4.27,1.2-5.97,0.3C254.05,428.99,253.84,426.58,254.36,425.21z"/>
						<path d="M275.87,410.42c1.22,0.07,2.18,1.02,2.76,2.03c0.59,1,0.95,2.13,1.71,3.03c0.72,0.87,1.74,1.46,2.72,2.08
							s1.95,1.3,2.51,2.27c0.56,0.97,0.58,2.29-0.25,3.07c-0.58,0.54-1.46,0.73-2.27,0.64c-2.77-0.3-6.83-2.95-8.41-5.14
							C273.26,416.47,271.3,410.15,275.87,410.42z"/>
						<path d="M269.19,391.22c0.93-0.34,1.99-0.28,2.92-0.65c2.53-1,2.86-4.56,5.3-5.74c0.96-0.46,2.17-0.46,3.12,0.03
							c0.95,0.49,1.61,1.45,1.67,2.46c0.04,0.68-0.16,1.35-0.43,1.99c-1.04,2.46-3.05,4.56-5.55,5.79
							c-2.07,1.01-5.49,1.87-7.82,1.14C265.87,395.45,267.26,391.93,269.19,391.22z"/>
						<path d="M290.68,411.57c-1.22-0.02-2.22-0.93-2.85-1.91c-0.63-0.98-1.05-2.09-1.84-2.96c-0.76-0.84-1.81-1.39-2.81-1.96
							c-1-0.57-2.01-1.22-2.61-2.16c-0.6-0.94-0.69-2.27,0.11-3.08c0.55-0.57,1.43-0.78,2.24-0.73c2.78,0.19,6.96,2.67,8.64,4.79
							C293.02,405.41,295.27,411.65,290.68,411.57z"/>
					</g>
					<g class="st3">
						<path d="M341.96,360.48c1.57,0.17,2.66,1.58,3.18,2.98c0.52,1.4,0.7,2.93,1.5,4.21c0.95,1.53,2.66,2.51,3.89,3.86
							c1.23,1.35,1.88,3.56,0.53,4.81c-2.96,2.74-8.83-3.05-10.66-5.2C338.39,368.79,336.19,359.87,341.96,360.48z"/>
						<path d="M354.68,347.2c1.38-0.03,2.81,0.15,3.98,0.84c1.17,0.68,2.01,1.96,1.81,3.24c-0.17,1.1-1.08,2.01-2.15,2.46
							c-1.08,0.45-2.3,0.5-3.48,0.38c-0.96-0.1-1.94-0.3-2.87-0.07c-1.59,0.4-2.5,1.88-4,2.45c-1.47,0.55-3.57,0.23-4.44-1.12
							c-1.85-2.86,2.98-5.83,5.2-6.83C350.58,347.71,352.62,347.23,354.68,347.2z"/>
						<path d="M370.33,359.72c-0.72,0.84-1.7,1.43-2.62,2.08c-1.83,1.29-3.46,2.86-5.47,3.9c-2.01,1.03-4.61,1.45-6.55,0.31
							c-0.42-0.24-0.79-0.56-1.03-0.96c-0.44-0.74-0.33-1.68,0.09-2.42c0.42-0.75,1.11-1.32,1.84-1.82
							c0.61-0.42,1.26-0.79,1.99-0.96c0.86-0.2,1.78-0.09,2.64-0.27c3.01-0.61,4.06-3.89,6.69-5.06
							C371.4,352.97,371.94,357.83,370.33,359.72z"/>
						<path d="M350.77,380.66c0.49-1.29,1.68-2.34,3.09-2.71c1.17-0.31,2.43-0.19,3.6-0.51c1.7-0.47,2.94-1.78,4.34-2.8
							c1.4-1.01,3.39-1.74,4.89-0.87c0.86,0.5,1.36,1.45,1.43,2.39c0.07,0.95-0.24,1.89-0.71,2.73c-1.83,3.25-5.75,4.91-9.49,6.02
							c-1.71,0.51-4.27,1.19-5.97,0.3C350.46,384.44,350.25,382.04,350.77,380.66z"/>
						<path d="M365.6,346.68c0.93-0.34,1.99-0.28,2.92-0.65c2.53-1,2.86-4.56,5.3-5.74c0.96-0.46,2.17-0.46,3.12,0.03
							c0.95,0.49,1.61,1.45,1.67,2.46c0.04,0.68-0.16,1.35-0.43,1.99c-1.04,2.46-3.05,4.56-5.55,5.79
							c-2.07,1.01-5.49,1.87-7.82,1.14C362.28,350.91,363.67,347.39,365.6,346.68z"/>
					</g>
					<g class="st3">
						<path d="M293.75,382.75c1.57,0.17,2.66,1.58,3.18,2.98s0.7,2.93,1.5,4.21c0.95,1.53,2.66,2.51,3.89,3.86
							c1.23,1.35,1.88,3.56,0.53,4.81c-2.96,2.74-8.83-3.05-10.66-5.2C290.18,391.06,287.99,382.14,293.75,382.75z"/>
						<path d="M306.48,369.47c1.38-0.03,2.81,0.15,3.98,0.84c1.17,0.68,2.01,1.96,1.81,3.24c-0.17,1.1-1.08,2.01-2.15,2.46
							s-2.3,0.5-3.48,0.38c-0.96-0.1-1.94-0.3-2.87-0.07c-1.59,0.4-2.5,1.88-4,2.44c-1.46,0.55-3.57,0.23-4.44-1.12
							c-1.85-2.86,2.98-5.83,5.2-6.83C302.37,369.98,304.42,369.51,306.48,369.47z"/>
						<path d="M322.12,381.99c-0.72,0.84-1.7,1.43-2.62,2.08c-1.83,1.29-3.46,2.86-5.47,3.9c-2.01,1.03-4.61,1.45-6.55,0.31
							c-0.42-0.24-0.79-0.56-1.03-0.96c-0.44-0.74-0.33-1.68,0.09-2.42c0.42-0.75,1.11-1.32,1.84-1.82
							c0.61-0.42,1.26-0.79,1.99-0.96c0.86-0.2,1.78-0.09,2.64-0.27c3.01-0.61,4.06-3.89,6.69-5.06
							C323.19,375.24,323.73,380.1,322.12,381.99z"/>
						<path d="M302.57,402.94c0.49-1.29,1.68-2.34,3.09-2.71c1.17-0.31,2.43-0.19,3.6-0.51c1.7-0.47,2.94-1.78,4.34-2.8
							c1.4-1.01,3.39-1.74,4.89-0.87c0.86,0.5,1.36,1.45,1.43,2.39c0.07,0.95-0.24,1.89-0.71,2.73c-1.83,3.25-5.75,4.91-9.49,6.02
							c-1.71,0.51-4.27,1.19-5.97,0.3C302.26,406.71,302.04,404.31,302.57,402.94z"/>
						<path d="M324.08,388.15c1.22,0.07,2.18,1.02,2.76,2.03c0.59,1,0.95,2.13,1.71,3.03c0.72,0.87,1.74,1.46,2.72,2.08
							c0.97,0.61,1.95,1.3,2.51,2.27c0.56,0.97,0.58,2.29-0.25,3.07c-0.58,0.54-1.46,0.73-2.27,0.64c-2.77-0.3-6.83-2.95-8.41-5.14
							C321.46,394.2,319.5,387.88,324.08,388.15z"/>
						<path d="M317.39,368.95c0.93-0.34,1.99-0.28,2.92-0.65c2.53-1,2.86-4.56,5.3-5.74c0.96-0.46,2.17-0.46,3.12,0.03
							c0.95,0.49,1.61,1.45,1.67,2.46c0.04,0.68-0.16,1.35-0.43,1.99c-1.04,2.46-3.05,4.56-5.55,5.79
							c-2.07,1.01-5.49,1.87-7.82,1.14C314.08,373.18,315.47,369.66,317.39,368.95z"/>
						<path d="M338.89,389.3c-1.22-0.02-2.22-0.93-2.85-1.91c-0.63-0.98-1.05-2.09-1.84-2.96c-0.76-0.84-1.81-1.39-2.81-1.96
							c-1-0.57-2.01-1.22-2.61-2.16c-0.6-0.94-0.69-2.27,0.11-3.08c0.55-0.57,1.43-0.78,2.24-0.73c2.78,0.19,6.96,2.67,8.64,4.79
							C341.22,383.14,343.47,389.38,338.89,389.3z"/>
					</g>
					<g class="st3">
						<path d="M273.92,359.72c-0.72,0.84-1.7,1.43-2.62,2.08c-1.83,1.29-3.46,2.86-5.47,3.9c-2.01,1.03-4.61,1.45-6.55,0.31
							c-0.42-0.24-0.79-0.56-1.03-0.96c-0.44-0.74-0.33-1.68,0.09-2.42s1.11-1.32,1.84-1.82c0.61-0.42,1.26-0.79,1.99-0.96
							c0.86-0.2,1.78-0.09,2.64-0.27c3.01-0.61,4.06-3.89,6.69-5.06C274.99,352.97,275.53,357.83,273.92,359.72z"/>
						<path d="M254.36,380.66c0.49-1.29,1.68-2.34,3.09-2.71c1.17-0.31,2.43-0.19,3.6-0.51c1.7-0.47,2.94-1.78,4.34-2.8
							s3.39-1.74,4.89-0.87c0.86,0.5,1.36,1.45,1.43,2.39c0.07,0.95-0.24,1.89-0.71,2.73c-1.83,3.25-5.75,4.91-9.49,6.02
							c-1.71,0.51-4.27,1.19-5.97,0.3C254.05,384.44,253.84,382.04,254.36,380.66z"/>
						<path d="M275.87,365.88c1.22,0.07,2.18,1.02,2.76,2.03c0.59,1,0.95,2.13,1.71,3.03c0.72,0.87,1.74,1.46,2.72,2.08
							s1.95,1.3,2.51,2.27c0.56,0.97,0.58,2.29-0.25,3.07c-0.58,0.54-1.46,0.73-2.27,0.64c-2.77-0.3-6.83-2.95-8.41-5.14
							C273.26,371.93,271.3,365.61,275.87,365.88z"/>
						<path d="M269.19,346.68c0.93-0.34,1.99-0.28,2.92-0.65c2.53-1,2.86-4.56,5.3-5.74c0.96-0.46,2.17-0.46,3.12,0.03
							c0.95,0.49,1.61,1.45,1.67,2.46c0.04,0.68-0.16,1.35-0.43,1.99c-1.04,2.46-3.05,4.56-5.55,5.79
							c-2.07,1.01-5.49,1.87-7.82,1.14C265.87,350.91,267.26,347.39,269.19,346.68z"/>
						<path d="M290.68,367.03c-1.22-0.02-2.22-0.93-2.85-1.91c-0.63-0.98-1.05-2.09-1.84-2.96c-0.76-0.84-1.81-1.39-2.81-1.96
							c-1-0.57-2.01-1.22-2.61-2.16c-0.6-0.94-0.69-2.27,0.11-3.08c0.55-0.57,1.43-0.78,2.24-0.73c2.78,0.19,6.96,2.67,8.64,4.79
							C293.02,360.87,295.27,367.11,290.68,367.03z"/>
					</g>
					<g class="st3">
						<path d="M350.77,336.12c0.49-1.29,1.68-2.34,3.09-2.71c1.17-0.31,2.43-0.19,3.6-0.51c1.7-0.47,2.94-1.78,4.34-2.8
							c1.4-1.01,3.39-1.74,4.89-0.87c0.86,0.5,1.36,1.45,1.43,2.39c0.07,0.95-0.24,1.89-0.71,2.73c-1.83,3.25-5.75,4.91-9.49,6.02
							c-1.71,0.51-4.27,1.19-5.97,0.3C350.46,339.9,350.25,337.5,350.77,336.12z"/>
					</g>
					<g class="st3">
						<path d="M293.75,338.21c1.57,0.17,2.66,1.58,3.18,2.98s0.7,2.93,1.5,4.21c0.95,1.53,2.66,2.51,3.89,3.86s1.88,3.56,0.53,4.81
							c-2.96,2.74-8.83-3.05-10.66-5.2C290.18,346.51,287.99,337.6,293.75,338.21z"/>
						<path d="M322.12,337.45c-0.72,0.84-1.7,1.43-2.62,2.08c-1.83,1.29-3.46,2.86-5.47,3.9c-2.01,1.03-4.61,1.45-6.55,0.31
							c-0.42-0.24-0.79-0.56-1.03-0.96c-0.44-0.74-0.33-1.68,0.09-2.42c0.42-0.75,1.11-1.32,1.84-1.82
							c0.61-0.42,1.26-0.79,1.99-0.96c0.86-0.2,1.78-0.09,2.64-0.27c3.01-0.61,4.06-3.89,6.69-5.06
							C323.19,330.7,323.73,335.56,322.12,337.45z"/>
						<path d="M302.57,358.39c0.49-1.29,1.68-2.34,3.09-2.71c1.17-0.31,2.43-0.19,3.6-0.51c1.7-0.47,2.94-1.78,4.34-2.8
							c1.4-1.01,3.39-1.74,4.89-0.87c0.86,0.5,1.36,1.45,1.43,2.39c0.07,0.95-0.24,1.89-0.71,2.73c-1.83,3.25-5.75,4.91-9.49,6.02
							c-1.71,0.51-4.27,1.19-5.97,0.3C302.26,362.17,302.04,359.77,302.57,358.39z"/>
						<path d="M324.08,343.6c1.22,0.07,2.18,1.02,2.76,2.03c0.59,1,0.95,2.13,1.71,3.03c0.72,0.87,1.74,1.46,2.72,2.08
							c0.97,0.61,1.95,1.3,2.51,2.27c0.56,0.97,0.58,2.29-0.25,3.07c-0.58,0.54-1.46,0.73-2.27,0.64c-2.77-0.3-6.83-2.95-8.41-5.14
							C321.46,349.66,319.5,343.34,324.08,343.6z"/>
						<path d="M338.89,344.76c-1.22-0.02-2.22-0.93-2.85-1.91c-0.63-0.98-1.05-2.09-1.84-2.96c-0.76-0.84-1.81-1.39-2.81-1.96
							c-1-0.57-2.01-1.22-2.61-2.16c-0.6-0.94-0.69-2.27,0.11-3.08c0.55-0.57,1.43-0.78,2.24-0.73c2.78,0.19,6.96,2.67,8.64,4.79
							C341.22,338.6,343.47,344.84,338.89,344.76z"/>
					</g>
					<g class="st3">
						<path d="M254.36,336.12c0.49-1.29,1.68-2.34,3.09-2.71c1.17-0.31,2.43-0.19,3.6-0.51c1.7-0.47,2.94-1.78,4.34-2.8
							s3.39-1.74,4.89-0.87c0.86,0.5,1.36,1.45,1.43,2.39c0.07,0.95-0.24,1.89-0.71,2.73c-1.83,3.25-5.75,4.91-9.49,6.02
							c-1.71,0.51-4.27,1.19-5.97,0.3C254.05,339.9,253.84,337.5,254.36,336.12z"/>
					</g>
				</g>
			</g>
			<g class="st0">
				<g>
					<defs>
						<rect id="SVGID_9_" x="267.63" y="429.62" width="96.41" height="89.08"/>
					</defs>
					<clipPath id="SVGID_10_">
						<use xlink:href="#SVGID_9_"  style="overflow:visible;"/>
					</clipPath>
					<g class="st4">
						<path d="M365.6,524.85c0.93-0.34,1.99-0.28,2.92-0.65c2.53-1,2.86-4.56,5.3-5.74c0.96-0.46,2.17-0.46,3.12,0.03
							s1.61,1.45,1.67,2.46c0.04,0.68-0.16,1.35-0.43,1.99c-1.04,2.46-3.05,4.56-5.55,5.79c-2.07,1.01-5.49,1.87-7.82,1.14
							C362.28,529.08,363.67,525.56,365.6,524.85z"/>
					</g>
					<g class="st4">
						<path d="M269.19,524.85c0.93-0.34,1.99-0.28,2.92-0.65c2.53-1,2.86-4.56,5.3-5.74c0.96-0.46,2.17-0.46,3.12,0.03
							s1.61,1.45,1.67,2.46c0.04,0.68-0.16,1.35-0.43,1.99c-1.04,2.46-3.05,4.56-5.55,5.79c-2.07,1.01-5.49,1.87-7.82,1.14
							C265.87,529.08,267.26,525.56,269.19,524.85z"/>
					</g>
					<g class="st4">
						<path d="M341.96,494.11c1.57,0.17,2.66,1.58,3.18,2.98s0.7,2.93,1.5,4.21c0.95,1.53,2.66,2.51,3.89,3.86s1.88,3.56,0.53,4.81
							c-2.96,2.74-8.83-3.05-10.66-5.2C338.39,502.41,336.19,493.5,341.96,494.11z"/>
						<path d="M354.68,480.82c1.38-0.03,2.81,0.15,3.98,0.84s2.01,1.96,1.81,3.24c-0.17,1.1-1.08,2.01-2.15,2.46
							c-1.08,0.45-2.3,0.5-3.48,0.38c-0.96-0.1-1.94-0.3-2.87-0.07c-1.59,0.4-2.5,1.88-4,2.44c-1.47,0.55-3.57,0.23-4.44-1.12
							c-1.85-2.86,2.98-5.83,5.2-6.83C350.58,481.33,352.62,480.86,354.68,480.82z"/>
						<path d="M370.33,493.34c-0.72,0.84-1.7,1.43-2.62,2.08c-1.83,1.29-3.46,2.86-5.47,3.9c-2.01,1.03-4.61,1.45-6.55,0.31
							c-0.42-0.24-0.79-0.56-1.03-0.96c-0.44-0.74-0.33-1.68,0.09-2.42c0.42-0.75,1.11-1.32,1.84-1.82
							c0.61-0.42,1.26-0.79,1.99-0.96c0.86-0.2,1.78-0.09,2.64-0.27c3.01-0.61,4.06-3.89,6.69-5.06
							C371.4,486.59,371.94,491.45,370.33,493.34z"/>
						<path d="M350.77,514.29c0.49-1.29,1.68-2.34,3.09-2.71c1.17-0.31,2.43-0.19,3.6-0.51c1.7-0.47,2.94-1.78,4.34-2.8
							c1.4-1.01,3.39-1.74,4.89-0.87c0.86,0.5,1.36,1.45,1.43,2.39c0.07,0.95-0.24,1.89-0.71,2.73c-1.83,3.25-5.75,4.91-9.49,6.02
							c-1.71,0.51-4.27,1.2-5.97,0.3C350.46,518.07,350.25,515.67,350.77,514.29z"/>
						<path d="M365.6,480.3c0.93-0.34,1.99-0.28,2.92-0.65c2.53-1,2.86-4.56,5.3-5.74c0.96-0.46,2.17-0.46,3.12,0.03
							c0.95,0.49,1.61,1.45,1.67,2.46c0.04,0.68-0.16,1.35-0.43,1.99c-1.04,2.46-3.05,4.56-5.55,5.79
							c-2.07,1.01-5.49,1.87-7.82,1.14C362.28,484.54,363.67,481.01,365.6,480.3z"/>
					</g>
					<g class="st4">
						<path d="M293.75,516.38c1.57,0.17,2.66,1.58,3.18,2.98s0.7,2.93,1.5,4.21c0.95,1.53,2.66,2.51,3.89,3.86s1.88,3.56,0.53,4.81
							c-2.96,2.74-8.83-3.05-10.66-5.2C290.18,524.68,287.99,515.77,293.75,516.38z"/>
						<path d="M306.48,503.09c1.38-0.03,2.81,0.15,3.98,0.84c1.17,0.68,2.01,1.96,1.81,3.24c-0.17,1.1-1.08,2.01-2.15,2.46
							c-1.08,0.45-2.3,0.5-3.48,0.38c-0.96-0.1-1.94-0.3-2.87-0.07c-1.59,0.4-2.5,1.88-4,2.44c-1.46,0.55-3.57,0.23-4.44-1.12
							c-1.85-2.86,2.98-5.83,5.2-6.83C302.37,503.6,304.42,503.13,306.48,503.09z"/>
						<path d="M322.12,515.62c-0.72,0.84-1.7,1.43-2.62,2.08c-1.83,1.29-3.46,2.86-5.47,3.9c-2.01,1.03-4.61,1.45-6.55,0.31
							c-0.42-0.24-0.79-0.56-1.03-0.96c-0.44-0.74-0.33-1.68,0.09-2.42c0.42-0.75,1.11-1.32,1.84-1.82
							c0.61-0.42,1.26-0.79,1.99-0.96c0.86-0.2,1.78-0.09,2.64-0.27c3.01-0.61,4.06-3.89,6.69-5.06
							C323.19,508.86,323.73,513.72,322.12,515.62z"/>
						<path d="M317.39,502.58c0.93-0.34,1.99-0.28,2.92-0.65c2.53-1,2.86-4.56,5.3-5.74c0.96-0.46,2.17-0.46,3.12,0.03
							c0.95,0.49,1.61,1.45,1.67,2.46c0.04,0.68-0.16,1.35-0.43,1.99c-1.04,2.46-3.05,4.56-5.55,5.79
							c-2.07,1.01-5.49,1.87-7.82,1.14C314.08,506.81,315.47,503.29,317.39,502.58z"/>
						<path d="M338.89,522.93c-1.22-0.02-2.22-0.93-2.85-1.91c-0.63-0.98-1.05-2.09-1.84-2.96c-0.76-0.84-1.81-1.39-2.81-1.96
							c-1-0.57-2.01-1.22-2.61-2.16c-0.6-0.94-0.69-2.27,0.11-3.08c0.55-0.57,1.43-0.78,2.24-0.73c2.78,0.19,6.96,2.67,8.64,4.79
							C341.22,516.77,343.47,523,338.89,522.93z"/>
					</g>
					<g class="st4">
						<path d="M273.92,493.34c-0.72,0.84-1.7,1.43-2.62,2.08c-1.83,1.29-3.46,2.86-5.47,3.9c-2.01,1.03-4.61,1.45-6.55,0.31
							c-0.42-0.24-0.79-0.56-1.03-0.96c-0.44-0.74-0.33-1.68,0.09-2.42c0.42-0.75,1.11-1.32,1.84-1.82
							c0.61-0.42,1.26-0.79,1.99-0.96c0.86-0.2,1.78-0.09,2.64-0.27c3.01-0.61,4.06-3.89,6.69-5.06
							C274.99,486.59,275.53,491.45,273.92,493.34z"/>
						<path d="M254.36,514.29c0.49-1.29,1.68-2.34,3.09-2.71c1.17-0.31,2.43-0.19,3.6-0.51c1.7-0.47,2.94-1.78,4.34-2.8
							s3.39-1.74,4.89-0.87c0.86,0.5,1.36,1.45,1.43,2.39c0.07,0.95-0.24,1.89-0.71,2.73c-1.83,3.25-5.75,4.91-9.49,6.02
							c-1.71,0.51-4.27,1.2-5.97,0.3C254.05,518.07,253.84,515.67,254.36,514.29z"/>
						<path d="M275.87,499.5c1.22,0.07,2.18,1.02,2.76,2.03c0.59,1,0.95,2.13,1.71,3.03c0.72,0.87,1.74,1.46,2.72,2.08
							c0.97,0.61,1.95,1.3,2.51,2.27c0.56,0.97,0.58,2.29-0.25,3.07c-0.58,0.54-1.46,0.73-2.27,0.64c-2.77-0.3-6.83-2.95-8.41-5.14
							C273.26,505.56,271.3,499.24,275.87,499.5z"/>
						<path d="M269.19,480.3c0.93-0.34,1.99-0.28,2.92-0.65c2.53-1,2.86-4.56,5.3-5.74c0.96-0.46,2.17-0.46,3.12,0.03
							c0.95,0.49,1.61,1.45,1.67,2.46c0.04,0.68-0.16,1.35-0.43,1.99c-1.04,2.46-3.05,4.56-5.55,5.79
							c-2.07,1.01-5.49,1.87-7.82,1.14C265.87,484.54,267.26,481.01,269.19,480.3z"/>
						<path d="M290.68,500.65c-1.22-0.02-2.22-0.93-2.85-1.91c-0.63-0.98-1.05-2.09-1.84-2.96c-0.76-0.84-1.81-1.39-2.81-1.96
							c-1-0.57-2.01-1.22-2.61-2.16c-0.6-0.94-0.69-2.27,0.11-3.08c0.55-0.57,1.43-0.78,2.24-0.73c2.78,0.19,6.96,2.67,8.64,4.79
							C293.02,494.5,295.27,500.73,290.68,500.65z"/>
					</g>
					<g class="st4">
						<path d="M341.96,449.57c1.57,0.17,2.66,1.58,3.18,2.98s0.7,2.93,1.5,4.21c0.95,1.53,2.66,2.51,3.89,3.86s1.88,3.56,0.53,4.81
							c-2.96,2.74-8.83-3.05-10.66-5.2C338.39,457.87,336.19,448.95,341.96,449.57z"/>
						<path d="M354.68,436.28c1.38-0.03,2.81,0.15,3.98,0.84c1.17,0.68,2.01,1.96,1.81,3.24c-0.17,1.1-1.08,2.01-2.15,2.46
							c-1.08,0.45-2.3,0.5-3.48,0.38c-0.96-0.1-1.94-0.3-2.87-0.07c-1.59,0.4-2.5,1.88-4,2.44c-1.47,0.55-3.57,0.23-4.44-1.12
							c-1.85-2.86,2.98-5.83,5.2-6.83C350.58,436.79,352.62,436.32,354.68,436.28z"/>
						<path d="M370.33,448.8c-0.72,0.84-1.7,1.43-2.62,2.08c-1.83,1.29-3.46,2.86-5.47,3.9c-2.01,1.03-4.61,1.45-6.55,0.31
							c-0.42-0.24-0.79-0.56-1.03-0.96c-0.44-0.74-0.33-1.68,0.09-2.42c0.42-0.75,1.11-1.32,1.84-1.82
							c0.61-0.42,1.26-0.79,1.99-0.96c0.86-0.2,1.78-0.09,2.64-0.27c3.01-0.61,4.06-3.89,6.69-5.06
							C371.4,442.05,371.94,446.91,370.33,448.8z"/>
						<path d="M350.77,469.75c0.49-1.29,1.68-2.34,3.09-2.71c1.17-0.31,2.43-0.19,3.6-0.51c1.7-0.47,2.94-1.78,4.34-2.8
							c1.4-1.01,3.39-1.74,4.89-0.87c0.86,0.5,1.36,1.45,1.43,2.39c0.07,0.95-0.24,1.89-0.71,2.73c-1.83,3.25-5.75,4.91-9.49,6.02
							c-1.71,0.51-4.27,1.2-5.97,0.3C350.46,473.53,350.25,471.12,350.77,469.75z"/>
						<path d="M365.6,435.76c0.93-0.34,1.99-0.28,2.92-0.65c2.53-1,2.86-4.56,5.3-5.74c0.96-0.46,2.17-0.46,3.12,0.03
							c0.95,0.49,1.61,1.45,1.67,2.46c0.04,0.68-0.16,1.35-0.43,1.99c-1.04,2.46-3.05,4.56-5.55,5.79
							c-2.07,1.01-5.49,1.87-7.82,1.14C362.28,439.99,363.67,436.47,365.6,435.76z"/>
					</g>
					<g class="st4">
						<path d="M293.75,471.84c1.57,0.17,2.66,1.58,3.18,2.98c0.52,1.4,0.7,2.93,1.5,4.21c0.95,1.53,2.66,2.51,3.89,3.86
							c1.23,1.35,1.88,3.56,0.53,4.81c-2.96,2.74-8.83-3.05-10.66-5.2C290.18,480.14,287.99,471.23,293.75,471.84z"/>
						<path d="M306.48,458.55c1.38-0.03,2.81,0.15,3.98,0.84c1.17,0.68,2.01,1.96,1.81,3.24c-0.17,1.1-1.08,2.01-2.15,2.46
							c-1.08,0.45-2.3,0.5-3.48,0.38c-0.96-0.1-1.94-0.3-2.87-0.07c-1.59,0.4-2.5,1.88-4,2.44c-1.46,0.55-3.57,0.23-4.44-1.12
							c-1.85-2.86,2.98-5.83,5.2-6.83C302.37,459.06,304.42,458.59,306.48,458.55z"/>
						<path d="M322.12,471.07c-0.72,0.84-1.7,1.43-2.62,2.08c-1.83,1.29-3.46,2.86-5.47,3.9c-2.01,1.03-4.61,1.45-6.55,0.31
							c-0.42-0.24-0.79-0.56-1.03-0.96c-0.44-0.74-0.33-1.68,0.09-2.42c0.42-0.75,1.11-1.32,1.84-1.82
							c0.61-0.42,1.26-0.79,1.99-0.96c0.86-0.2,1.78-0.09,2.64-0.27c3.01-0.61,4.06-3.89,6.69-5.06
							C323.19,464.32,323.73,469.18,322.12,471.07z"/>
						<path d="M302.57,492.02c0.49-1.29,1.68-2.34,3.09-2.71c1.17-0.31,2.43-0.19,3.6-0.51c1.7-0.47,2.94-1.78,4.34-2.8
							c1.4-1.01,3.39-1.74,4.89-0.87c0.86,0.5,1.36,1.45,1.43,2.39c0.07,0.95-0.24,1.89-0.71,2.73c-1.83,3.25-5.75,4.91-9.49,6.02
							c-1.71,0.51-4.27,1.19-5.97,0.3C302.26,495.8,302.04,493.4,302.57,492.02z"/>
						<path d="M324.08,477.23c1.22,0.07,2.18,1.02,2.76,2.03c0.59,1,0.95,2.13,1.71,3.03c0.72,0.87,1.74,1.46,2.72,2.08
							c0.97,0.61,1.95,1.3,2.51,2.27c0.56,0.97,0.58,2.29-0.25,3.07c-0.58,0.54-1.46,0.73-2.27,0.64c-2.77-0.3-6.83-2.95-8.41-5.14
							C321.46,483.29,319.5,476.97,324.08,477.23z"/>
						<path d="M317.39,458.03c0.93-0.34,1.99-0.28,2.92-0.65c2.53-1,2.86-4.56,5.3-5.74c0.96-0.46,2.17-0.46,3.12,0.03
							s1.61,1.45,1.67,2.46c0.04,0.68-0.16,1.35-0.43,1.99c-1.04,2.46-3.05,4.56-5.55,5.79c-2.07,1.01-5.49,1.87-7.82,1.14
							C314.08,462.27,315.47,458.74,317.39,458.03z"/>
						<path d="M338.89,478.38c-1.22-0.02-2.22-0.93-2.85-1.91c-0.63-0.98-1.05-2.09-1.84-2.96c-0.76-0.84-1.81-1.39-2.81-1.96
							c-1-0.57-2.01-1.22-2.61-2.16c-0.6-0.94-0.69-2.27,0.11-3.08c0.55-0.57,1.43-0.78,2.24-0.73c2.78,0.19,6.96,2.67,8.64,4.79
							C341.22,472.23,343.47,478.46,338.89,478.38z"/>
					</g>
					<g class="st4">
						<path d="M273.92,448.8c-0.72,0.84-1.7,1.43-2.62,2.08c-1.83,1.29-3.46,2.86-5.47,3.9c-2.01,1.03-4.61,1.45-6.55,0.31
							c-0.42-0.24-0.79-0.56-1.03-0.96c-0.44-0.74-0.33-1.68,0.09-2.42c0.42-0.75,1.11-1.32,1.84-1.82
							c0.61-0.42,1.26-0.79,1.99-0.96c0.86-0.2,1.78-0.09,2.64-0.27c3.01-0.61,4.06-3.89,6.69-5.06
							C274.99,442.05,275.53,446.91,273.92,448.8z"/>
						<path d="M254.36,469.75c0.49-1.29,1.68-2.34,3.09-2.71c1.17-0.31,2.43-0.19,3.6-0.51c1.7-0.47,2.94-1.78,4.34-2.8
							s3.39-1.74,4.89-0.87c0.86,0.5,1.36,1.45,1.43,2.39c0.07,0.95-0.24,1.89-0.71,2.73c-1.83,3.25-5.75,4.91-9.49,6.02
							c-1.71,0.51-4.27,1.2-5.97,0.3C254.05,473.53,253.84,471.12,254.36,469.75z"/>
						<path d="M275.87,454.96c1.22,0.07,2.18,1.02,2.76,2.03c0.59,1,0.95,2.13,1.71,3.03c0.72,0.87,1.74,1.46,2.72,2.08
							c0.97,0.61,1.95,1.3,2.51,2.27c0.56,0.97,0.58,2.29-0.25,3.07c-0.58,0.54-1.46,0.73-2.27,0.64c-2.77-0.3-6.83-2.95-8.41-5.14
							C273.26,461.01,271.3,454.69,275.87,454.96z"/>
						<path d="M269.19,435.76c0.93-0.34,1.99-0.28,2.92-0.65c2.53-1,2.86-4.56,5.3-5.74c0.96-0.46,2.17-0.46,3.12,0.03
							c0.95,0.49,1.61,1.45,1.67,2.46c0.04,0.68-0.16,1.35-0.43,1.99c-1.04,2.46-3.05,4.56-5.55,5.79
							c-2.07,1.01-5.49,1.87-7.82,1.14C265.87,439.99,267.26,436.47,269.19,435.76z"/>
						<path d="M290.68,456.11c-1.22-0.02-2.22-0.93-2.85-1.91c-0.63-0.98-1.05-2.09-1.84-2.96c-0.76-0.84-1.81-1.39-2.81-1.96
							c-1-0.57-2.01-1.22-2.61-2.16c-0.6-0.94-0.69-2.27,0.11-3.08c0.55-0.57,1.43-0.78,2.24-0.73c2.78,0.19,6.96,2.67,8.64,4.79
							C293.02,449.96,295.27,456.19,290.68,456.11z"/>
					</g>
					<g class="st4">
						<path d="M350.77,425.21c0.49-1.29,1.68-2.34,3.09-2.71c1.17-0.31,2.43-0.19,3.6-0.51c1.7-0.47,2.94-1.78,4.34-2.8
							c1.4-1.01,3.39-1.74,4.89-0.87c0.86,0.5,1.36,1.45,1.43,2.39c0.07,0.95-0.24,1.89-0.71,2.73c-1.83,3.25-5.75,4.91-9.49,6.02
							c-1.71,0.51-4.27,1.2-5.97,0.3C350.46,428.99,350.25,426.58,350.77,425.21z"/>
					</g>
					<g class="st4">
						<path d="M293.75,427.29c1.57,0.17,2.66,1.58,3.18,2.98c0.52,1.4,0.7,2.93,1.5,4.21c0.95,1.53,2.66,2.51,3.89,3.86
							c1.23,1.35,1.88,3.56,0.53,4.81c-2.96,2.74-8.83-3.05-10.66-5.2C290.18,435.6,287.99,426.68,293.75,427.29z"/>
						<path d="M322.12,426.53c-0.72,0.84-1.7,1.43-2.62,2.08c-1.83,1.29-3.46,2.86-5.47,3.9c-2.01,1.03-4.61,1.45-6.55,0.31
							c-0.42-0.24-0.79-0.56-1.03-0.96c-0.44-0.74-0.33-1.68,0.09-2.42c0.42-0.75,1.11-1.32,1.84-1.82
							c0.61-0.42,1.26-0.79,1.99-0.96c0.86-0.2,1.78-0.09,2.64-0.27c3.01-0.61,4.06-3.89,6.69-5.06
							C323.19,419.78,323.73,424.64,322.12,426.53z"/>
						<path d="M302.57,447.48c0.49-1.29,1.68-2.34,3.09-2.71c1.17-0.31,2.43-0.19,3.6-0.51c1.7-0.47,2.94-1.78,4.34-2.8
							c1.4-1.01,3.39-1.74,4.89-0.87c0.86,0.5,1.36,1.45,1.43,2.39c0.07,0.95-0.24,1.89-0.71,2.73c-1.83,3.25-5.75,4.91-9.49,6.02
							c-1.71,0.51-4.27,1.19-5.97,0.3C302.26,451.26,302.04,448.85,302.57,447.48z"/>
						<path d="M324.08,432.69c1.22,0.07,2.18,1.02,2.76,2.03c0.59,1,0.95,2.13,1.71,3.03c0.72,0.87,1.74,1.46,2.72,2.08
							c0.97,0.61,1.95,1.3,2.51,2.27c0.56,0.97,0.58,2.29-0.25,3.07c-0.58,0.54-1.46,0.73-2.27,0.64c-2.77-0.3-6.83-2.95-8.41-5.14
							C321.46,438.74,319.5,432.42,324.08,432.69z"/>
						<path d="M338.89,433.84c-1.22-0.02-2.22-0.93-2.85-1.91c-0.63-0.98-1.05-2.09-1.84-2.96c-0.76-0.84-1.81-1.39-2.81-1.96
							c-1-0.57-2.01-1.22-2.61-2.16c-0.6-0.94-0.69-2.27,0.11-3.08c0.55-0.57,1.43-0.78,2.24-0.73c2.78,0.19,6.96,2.67,8.64,4.79
							C341.22,427.69,343.47,433.92,338.89,433.84z"/>
					</g>
					<g class="st4">
						<path d="M254.36,425.21c0.49-1.29,1.68-2.34,3.09-2.71c1.17-0.31,2.43-0.19,3.6-0.51c1.7-0.47,2.94-1.78,4.34-2.8
							s3.39-1.74,4.89-0.87c0.86,0.5,1.36,1.45,1.43,2.39c0.07,0.95-0.24,1.89-0.71,2.73c-1.83,3.25-5.75,4.91-9.49,6.02
							c-1.71,0.51-4.27,1.2-5.97,0.3C254.05,428.99,253.84,426.58,254.36,425.21z"/>
					</g>
				</g>
			</g>
		</g>
	</g>
	<g>
		<g>
			<path d="M390.87,391.08c-18.9,2.08-37.94,2.41-56.87,4.14c-5.4,0.49-10.78,1.11-16.14,1.9c-0.67,0.1-1.36,0.84-1.48,1.48
				c-3.17,16.39-3.34,33.2-3.33,49.83c0,9.27,0.1,18.54,0.02,27.82c-0.01,1.24-0.19,2.42,0.77,3.37c0.77,0.76,1.64,1.44,2.44,2.17
				c1.67,1.52,3.31,3.06,4.99,4.56c3.43,3.07,7.1,5.74,10.84,8.4c3.97,2.82,7.94,5.65,11.9,8.47c1.95,1.39,3.9,2.78,5.85,4.16
				c0.94,0.67,1.88,1.34,2.82,2.01c0.98,0.7,1.97,1.58,3.03,2.15c0.8,0.44,1.75,0.25,2.63,0.19c1.31-0.1,2.63-0.2,3.94-0.31
				c10.5-0.83,21-1.7,31.51-2.53c12.5-0.99,25.01-1.97,37.52-2.8c1.27-0.09,2.55-0.17,3.83-0.25c1.15-0.07,2.13-0.92,2.13-2.13
				c-0.01-5.36-0.21-10.72-0.31-16.08c-0.21-10.42-0.41-20.83-0.56-31.25c-0.08-5.45-0.15-10.9-0.19-16.35
				c-0.02-2.45-0.04-4.9-0.04-7.35c0-1.14-0.01-2.27-0.01-3.41c0-0.53,0.07-1.1,0-1.62c0-0.09,0-0.18,0-0.27
				c-0.11,0.48-0.11,0.38,0-0.28c0-0.11-0.05-0.49-0.08-0.6c-0.23-0.85-0.98-1.52-1.58-2.12c-0.9-0.9-1.85-1.76-2.8-2.61
				c-3.21-2.88-6.51-5.67-9.84-8.41c-9.53-7.85-19.35-15.58-29.91-22.03c-2.34-1.43-4.48,2.25-2.15,3.67
				c9.25,5.64,17.89,12.31,26.3,19.12c5.56,4.5,10.93,9.17,16.15,14.06c0.32,0.3-0.16-0.22-0.13-0.18c0.02,0.03,0.04,0.06,0.05,0.09
				c-0.23-0.43-0.17-2.51-0.27-0.98c-0.08,1.17,0,2.37,0,3.55c0,2.38,0.01,4.77,0.03,7.15c0.04,5.28,0.1,10.55,0.17,15.83
				c0.14,10.41,0.34,20.81,0.55,31.22c0.13,6.28,0.36,12.56,0.37,18.84c0.71-0.71,1.42-1.42,2.13-2.13
				c-12.47,0.79-24.92,1.76-37.38,2.74c-11.19,0.88-22.39,1.8-33.58,2.69c-2.45,0.2-4.94,0.54-7.39,0.56
				c0.36,0.1,0.72,0.19,1.07,0.29c-7.33-5.22-14.66-10.43-21.99-15.65c-3.42-2.43-6.9-4.78-10.07-7.54
				c-3.09-2.68-6.02-5.55-9.12-8.22c0.21,0.5,0.42,1,0.62,1.5c0.22-20.98-0.78-42.07,1.08-63c0.45-5.11,1.12-10.2,2.09-15.24
				c-0.49,0.49-0.99,0.99-1.48,1.48c18.55-2.71,37.33-3.16,56-4.48c5.3-0.38,10.59-0.82,15.88-1.4c1.14-0.13,2.13-0.89,2.13-2.13
				C393,392.15,392.02,390.95,390.87,391.08z"/>
		</g>
	</g>
</g>
<g>
	<g>
		<path d="M359.2,508.13c-0.47-20.4-0.52-40.8-0.15-61.2c0.11-5.8,0.25-11.61,0.42-17.41c-0.71,0.71-1.42,1.42-2.13,2.13
			c19.69,0.92,39.55,0.5,59.2-1.02c5.12-0.4,10.23-0.89,15.31-1.57c1.14-0.15,2.13-0.87,2.13-2.13c0-1.03-0.98-2.28-2.13-2.13
			c-19.53,2.6-39.43,3.15-59.11,2.99c-5.13-0.04-10.27-0.16-15.4-0.4c-1.17-0.05-2.09,1.02-2.13,2.13
			c-0.61,20.39-0.81,40.8-0.58,61.2c0.07,5.8,0.17,11.61,0.3,17.41C355.01,510.86,359.26,510.87,359.2,508.13L359.2,508.13z"/>
	</g>
</g>
<g>
	<g>
		<path d="M319.29,401.33c4.35,4.39,9.29,8.27,14.05,12.19c5.76,4.74,11.58,9.43,17.52,13.95c1.75,1.33,3.5,2.79,5.41,3.89
			c2.38,1.36,4.52-2.31,2.15-3.67c-1.59-0.91-3.05-2.1-4.5-3.2c-2.57-1.94-4.98-3.83-7.6-5.92c-5.91-4.7-11.78-9.47-17.51-14.38
			c-2.21-1.9-4.45-3.8-6.51-5.87C320.37,396.37,317.36,399.38,319.29,401.33L319.29,401.33z"/>
	</g>
</g>
<g>
	<path d="M339.5,495.81c0.39-17.52,2.68-34.95,4.96-52.32c0.94-7.16,1.88-14.32,2.83-21.48l-8.65-7.34
		c-0.94,7.16-1.88,14.32-2.83,21.48c-2.29,17.38-4.58,34.8-4.96,52.32L339.5,495.81z"/>
</g>
<g>
	<path d="M392.95,429.52c0-0.02,0.01-0.04,0.01-0.04c0.27-0.05,5.03,34.83-0.9,78.64l10.84-2.12c4.96-16.67,3.1-60.59,3.48-78.11
		L392.95,429.52z"/>
</g>
<g>
	<path d="M354.99,395.08c0.13-0.25,17.12,11.86,37.96,34.44l13.41-0.09c-10.08-14.18-21.58-24.33-35.15-35.43
		C371.21,394,354.99,395.09,354.99,395.08z"/>
</g>
<g>
	<path d="M363.51,374.49c-2.79-3.36-6.34-6.74-10.71-6.8c-2.72-0.03-5.31,1.28-7.45,2.96c-5.02,3.93-8.08,9.79-10.99,15.46
		c-2.09,4.07-4.23,8.71-2.75,13.03c1,2.92,3.48,5.08,6.07,6.78c9.68,6.36,28.46,10.28,38.6,2.45
		C385.19,401.51,368.43,380.43,363.51,374.49z"/>
</g>
<g>
	<path d="M346.73,422.34c16.83-4.9,62.65-9.33,69.77-10.58l-8.5-7.51c-7.11,1.25-52.52,5.53-69.35,10.43L346.73,422.34z"/>
</g>
<g>
	<path d="M410.62,422.17c4.35,0.41,9.25,0.29,12.38-2.77c1.95-1.9,2.85-4.66,3.17-7.36c0.76-6.33-1.21-12.63-3.16-18.7
		c-1.4-4.35-3.17-9.15-7.27-11.16c-2.77-1.36-6.06-1.13-9.08-0.5c-11.34,2.34-27.39,12.85-29.03,25.57
		C376.18,418.4,402.95,421.45,410.62,422.17z"/>
</g>
</svg>
