<svg width="126" height="145" viewBox="0 0 126 145" fill="none" xmlns="http://www.w3.org/2000/svg">
<path d="M53.4964 68.9189C54.4264 68.5789 55.4864 68.6388 56.4164 68.2688C58.9464 67.2688 59.2764 63.7088 61.7164 62.5288C62.6764 62.0688 63.8864 62.0688 64.8364 62.5588C65.7864 63.0488 66.4464 64.0088 66.5064 65.0188C66.5464 65.6988 66.3464 66.3689 66.0764 67.0089C65.0364 69.4689 63.0264 71.5689 60.5264 72.7989C58.4564 73.8089 55.0364 74.6688 52.7064 73.9388C50.1764 73.1488 51.5664 69.6289 53.4964 68.9189Z" fill="black"/>
<path d="M78.0564 60.4488C79.6264 60.6188 80.7164 62.0288 81.2364 63.4288C81.7564 64.8288 81.9364 66.3588 82.7364 67.6388C83.6864 69.1688 85.3964 70.1488 86.6264 71.4988C87.8564 72.8488 88.5064 75.0588 87.1564 76.3088C84.1964 79.0488 78.3264 73.2588 76.4964 71.1088C74.4864 68.7588 72.2964 59.8388 78.0564 60.4488Z" fill="black"/>
<path d="M106.426 59.6889C105.706 60.5289 104.726 61.1189 103.806 61.7689C101.976 63.0589 100.346 64.6289 98.3364 65.6689C96.3264 66.6989 93.7264 67.1189 91.7864 65.9789C91.3664 65.7389 90.9964 65.4189 90.7564 65.0189C90.3164 64.2789 90.4264 63.3389 90.8464 62.5989C91.2664 61.8489 91.9564 61.2789 92.6864 60.7789C93.2964 60.3589 93.9464 59.9889 94.6764 59.8189C95.5364 59.6189 96.4564 59.7289 97.3164 59.5489C100.326 58.9389 101.376 55.6589 104.006 54.4889C107.496 52.9389 108.036 57.7989 106.426 59.6889Z" fill="black"/>
<path d="M123.196 66.999C121.976 66.979 120.976 66.069 120.346 65.089C119.716 64.109 119.296 62.999 118.506 62.129C117.746 61.289 116.696 60.739 115.696 60.169C114.696 59.599 113.686 58.949 113.086 58.009C112.486 57.069 112.396 55.739 113.196 54.929C113.746 54.359 114.626 54.149 115.436 54.199C118.216 54.389 122.396 56.869 124.076 58.989C125.526 60.849 127.776 67.079 123.196 66.999Z" fill="black"/>
<path d="M38.6666 58.3689C39.1566 57.0789 40.3466 56.0289 41.7566 55.6589C42.9266 55.3489 44.1866 55.4689 45.3566 55.1489C47.0566 54.6789 48.2966 53.369 49.6966 52.349C51.0966 51.339 53.0866 50.609 54.5866 51.479C55.4466 51.979 55.9466 52.9289 56.0166 53.8689C56.0866 54.8189 55.7766 55.759 55.3066 56.599C53.4766 59.849 49.5566 61.5089 45.8166 62.6189C44.1066 63.1289 41.5466 63.819 39.8466 62.919C38.3566 62.149 38.1466 59.7389 38.6666 58.3689Z" fill="black"/>
<path d="M60.1767 43.579C61.3967 43.649 62.3567 44.5989 62.9367 45.6089C63.5267 46.6089 63.8867 47.7389 64.6467 48.6389C65.3667 49.5089 66.3867 50.0989 67.3667 50.7189C68.3367 51.3289 69.3167 52.0189 69.8767 52.9889C70.4367 53.9589 70.4567 55.2789 69.6267 56.0589C69.0467 56.5989 68.1667 56.7889 67.3567 56.6989C64.5867 56.3989 60.5267 53.7489 58.9467 51.5589C57.5667 49.6289 55.6067 43.309 60.1767 43.579Z" fill="black"/>
<path d="M101.696 134.731C102.626 134.391 103.686 134.451 104.616 134.081C107.146 133.081 107.476 129.521 109.916 128.341C110.876 127.881 112.086 127.881 113.036 128.371C113.986 128.861 114.646 129.821 114.706 130.831C114.746 131.511 114.546 132.181 114.276 132.821C113.236 135.281 111.226 137.381 108.726 138.611C106.656 139.621 103.236 140.481 100.906 139.751C98.3863 138.961 99.7763 135.441 101.696 134.731Z" fill="black"/>
<path d="M58.2267 126.499C57.5067 127.339 56.5267 127.929 55.6067 128.579C53.7767 129.869 52.1467 131.439 50.1367 132.479C48.1267 133.509 45.5267 133.929 43.5867 132.789C43.1667 132.549 42.7967 132.229 42.5567 131.829C42.1167 131.089 42.2267 130.149 42.6467 129.409C43.0667 128.659 43.7567 128.089 44.4867 127.589C45.0967 127.169 45.7467 126.799 46.4767 126.629C47.3367 126.429 48.2567 126.539 49.1167 126.359C52.1267 125.749 53.1767 122.469 55.8067 121.299C59.2967 119.749 59.8367 124.609 58.2267 126.499Z" fill="black"/>
<path d="M60.1767 130.008C61.3967 130.078 62.3567 131.028 62.9367 132.038C63.5267 133.038 63.8867 134.168 64.6467 135.068C65.3667 135.938 66.3867 136.528 67.3667 137.148C68.3367 137.758 69.3167 138.448 69.8767 139.418C70.4367 140.388 70.4567 141.708 69.6267 142.488C69.0467 143.028 68.1667 143.218 67.3567 143.128C64.5867 142.828 60.5267 140.178 58.9467 137.988C57.5667 136.068 55.6067 129.748 60.1767 130.008Z" fill="black"/>
<path d="M53.4969 113.459C54.4269 113.119 55.4869 113.179 56.4169 112.809C58.9469 111.809 59.2769 108.249 61.7169 107.069C62.6769 106.609 63.8869 106.609 64.8369 107.099C65.7869 107.589 66.4469 108.549 66.5069 109.559C66.5469 110.239 66.3469 110.909 66.0769 111.549C65.0369 114.009 63.0269 116.109 60.5269 117.339C58.4569 118.349 55.0369 119.209 52.7069 118.479C50.1769 117.699 51.5669 114.169 53.4969 113.459Z" fill="black"/>
<path d="M74.9868 133.809C73.7668 133.789 72.7668 132.879 72.1368 131.899C71.5068 130.919 71.0868 129.809 70.2968 128.939C69.5368 128.099 68.4868 127.549 67.4868 126.979C66.4868 126.409 65.4768 125.759 64.8768 124.819C64.2768 123.879 64.1868 122.549 64.9868 121.739C65.5368 121.169 66.4167 120.959 67.2267 121.009C70.0067 121.199 74.1868 123.679 75.8668 125.799C77.3268 127.659 79.5768 133.889 74.9868 133.809Z" fill="black"/>
<path d="M78.0564 104.999C79.6264 105.169 80.7164 106.579 81.2364 107.979C81.7564 109.379 81.9364 110.909 82.7364 112.189C83.6864 113.719 85.3964 114.699 86.6264 116.049C87.8564 117.399 88.5064 119.609 87.1564 120.859C84.1964 123.599 78.3264 117.809 76.4964 115.659C74.4864 113.299 72.2964 104.389 78.0564 104.999Z" fill="black"/>
<path d="M90.7866 91.7089C92.1666 91.6789 93.5965 91.8589 94.7665 92.5489C95.9365 93.2289 96.7765 94.5089 96.5765 95.7889C96.4065 96.8889 95.4965 97.7989 94.4265 98.2489C93.3465 98.6989 92.1265 98.7489 90.9465 98.6289C89.9865 98.5289 89.0065 98.3289 88.0765 98.5589C86.4865 98.9589 85.5765 100.439 84.0765 100.999C82.6065 101.549 80.5065 101.229 79.6365 99.8789C77.7865 97.0189 82.6165 94.0489 84.8365 93.0489C86.6765 92.2189 88.7266 91.7489 90.7866 91.7089Z" fill="black"/>
<path d="M106.426 104.229C105.706 105.069 104.726 105.659 103.806 106.309C101.976 107.599 100.346 109.169 98.3364 110.209C96.3264 111.239 93.7264 111.659 91.7864 110.519C91.3664 110.279 90.9964 109.959 90.7564 109.559C90.3164 108.819 90.4264 107.879 90.8464 107.139C91.2664 106.389 91.9564 105.819 92.6864 105.319C93.2964 104.899 93.9464 104.529 94.6764 104.359C95.5364 104.159 96.4564 104.269 97.3164 104.089C100.326 103.479 101.376 100.199 104.006 99.0289C107.496 97.4789 108.036 102.339 106.426 104.229Z" fill="black"/>
<path d="M86.8762 125.179C87.3662 123.889 88.5562 122.839 89.9662 122.469C91.1362 122.159 92.3962 122.279 93.5662 121.959C95.2662 121.489 96.5062 120.179 97.9062 119.159C99.3062 118.149 101.296 117.419 102.796 118.289C103.656 118.789 104.156 119.739 104.226 120.679C104.296 121.629 103.986 122.569 103.516 123.409C101.686 126.659 97.7662 128.319 94.0262 129.429C92.3162 129.939 89.7562 130.619 88.0562 129.729C86.5562 128.959 86.3462 126.559 86.8762 125.179Z" fill="black"/>
<path d="M108.386 110.389C109.606 110.459 110.566 111.409 111.146 112.419C111.726 113.429 112.096 114.549 112.856 115.449C113.576 116.319 114.596 116.909 115.576 117.529C116.546 118.139 117.526 118.829 118.086 119.799C118.646 120.769 118.666 122.089 117.836 122.869C117.256 123.409 116.376 123.599 115.566 123.509C112.796 123.209 108.736 120.559 107.156 118.369C105.766 116.449 103.806 110.129 108.386 110.389Z" fill="black"/>
<path d="M101.696 91.1888C102.626 90.8488 103.686 90.9088 104.616 90.5388C107.146 89.5388 107.476 85.9789 109.916 84.7989C110.876 84.3389 112.086 84.3389 113.036 84.8289C113.986 85.3189 114.646 86.2788 114.706 87.2888C114.746 87.9688 114.546 88.6388 114.276 89.2788C113.236 91.7388 111.226 93.8388 108.726 95.0688C106.656 96.0788 103.236 96.9388 100.906 96.2088C98.3863 95.4288 99.7763 91.8988 101.696 91.1888Z" fill="black"/>
<path d="M121.58 111.539C120.36 111.519 119.36 110.609 118.73 109.629C118.1 108.649 117.68 107.539 116.89 106.669C116.13 105.829 115.08 105.279 114.08 104.709C113.08 104.139 112.07 103.489 111.47 102.549C110.87 101.609 110.78 100.279 111.58 99.4688C112.13 98.8988 113.01 98.6888 113.82 98.7388C116.6 98.9288 120.78 101.409 122.46 103.529C123.91 105.389 126.16 111.619 121.58 111.539Z" fill="black"/>
<path d="M58.2267 81.9589C57.5067 82.7989 56.5267 83.3889 55.6067 84.0389C53.7767 85.3289 52.1467 86.8989 50.1367 87.9389C48.1267 88.9689 45.5267 89.3889 43.5867 88.2489C43.1667 88.0089 42.7967 87.6889 42.5567 87.2889C42.1167 86.5489 42.2267 85.6089 42.6467 84.8689C43.0667 84.1189 43.7567 83.5489 44.4867 83.0489C45.0967 82.6289 45.7467 82.2589 46.4767 82.0889C47.3367 81.8889 48.2567 81.9989 49.1167 81.8189C52.1267 81.2089 53.1767 77.9289 55.8067 76.7589C59.2967 75.2089 59.8367 80.0689 58.2267 81.9589Z" fill="black"/>
<path d="M38.6666 102.909C39.1566 101.619 40.3466 100.569 41.7566 100.199C42.9266 99.8888 44.1866 100.009 45.3566 99.6888C47.0566 99.2188 48.2966 97.9088 49.6966 96.8888C51.0966 95.8788 53.0866 95.1487 54.5866 96.0187C55.4466 96.5187 55.9466 97.4688 56.0166 98.4088C56.0866 99.3588 55.7766 100.299 55.3066 101.139C53.4766 104.389 49.5566 106.049 45.8166 107.159C44.1066 107.669 41.5466 108.359 39.8466 107.459C38.3566 106.689 38.1466 104.279 38.6666 102.909Z" fill="black"/>
<path d="M60.1767 88.1187C61.3967 88.1887 62.3567 89.1387 62.9367 90.1487C63.5267 91.1487 63.8867 92.2787 64.6467 93.1787C65.3667 94.0487 66.3867 94.6388 67.3667 95.2588C68.3367 95.8688 69.3167 96.5587 69.8767 97.5287C70.4367 98.4987 70.4567 99.8188 69.6267 100.599C69.0467 101.139 68.1667 101.329 67.3567 101.239C64.5867 100.939 60.5267 98.2888 58.9467 96.0988C57.5667 94.1688 55.6067 87.8487 60.1767 88.1187Z" fill="black"/>
<path d="M53.4964 68.9189C54.4264 68.5789 55.4864 68.6388 56.4164 68.2688C58.9464 67.2688 59.2764 63.7088 61.7164 62.5288C62.6764 62.0688 63.8864 62.0688 64.8364 62.5588C65.7864 63.0488 66.4464 64.0088 66.5064 65.0188C66.5464 65.6988 66.3464 66.3689 66.0764 67.0089C65.0364 69.4689 63.0264 71.5689 60.5264 72.7989C58.4564 73.8089 55.0364 74.6688 52.7064 73.9388C50.1764 73.1488 51.5664 69.6289 53.4964 68.9189Z" fill="black"/>
<path d="M74.9868 89.2688C73.7668 89.2488 72.7668 88.3388 72.1368 87.3588C71.5068 86.3788 71.0868 85.2688 70.2968 84.3988C69.5368 83.5588 68.4868 83.0088 67.4868 82.4388C66.4868 81.8688 65.4768 81.2188 64.8768 80.2788C64.2768 79.3388 64.1868 78.0088 64.9868 77.1988C65.5368 76.6288 66.4167 76.4188 67.2267 76.4688C70.0067 76.6588 74.1868 79.1388 75.8668 81.2588C77.3268 83.1188 79.5768 89.3488 74.9868 89.2688Z" fill="black"/>
<path d="M78.0564 60.4488C79.6264 60.6188 80.7164 62.0288 81.2364 63.4288C81.7564 64.8288 81.9364 66.3588 82.7364 67.6388C83.6864 69.1688 85.3964 70.1488 86.6264 71.4988C87.8564 72.8488 88.5064 75.0588 87.1564 76.3088C84.1964 79.0488 78.3264 73.2588 76.4964 71.1088C74.4864 68.7588 72.2964 59.8388 78.0564 60.4488Z" fill="black"/>
<path d="M106.426 59.6889C105.706 60.5289 104.726 61.1189 103.806 61.7689C101.976 63.0589 100.346 64.6289 98.3364 65.6689C96.3264 66.6989 93.7264 67.1189 91.7864 65.9789C91.3664 65.7389 90.9964 65.4189 90.7564 65.0189C90.3164 64.2789 90.4264 63.3389 90.8464 62.5989C91.2664 61.8489 91.9564 61.2789 92.6864 60.7789C93.2964 60.3589 93.9464 59.9889 94.6764 59.8189C95.5364 59.6189 96.4564 59.7289 97.3164 59.5489C100.326 58.9389 101.376 55.6589 104.006 54.4889C107.496 52.9389 108.036 57.7989 106.426 59.6889Z" fill="black"/>
<path d="M86.8762 80.639C87.3662 79.349 88.5562 78.299 89.9662 77.929C91.1362 77.619 92.3962 77.739 93.5662 77.419C95.2662 76.949 96.5062 75.639 97.9062 74.619C99.3062 73.609 101.296 72.879 102.796 73.749C103.656 74.249 104.156 75.199 104.226 76.139C104.296 77.089 103.986 78.029 103.516 78.869C101.686 82.119 97.7662 83.779 94.0262 84.889C92.3162 85.399 89.7562 86.079 88.0562 85.189C86.5562 84.419 86.3462 82.009 86.8762 80.639Z" fill="black"/>
<path d="M108.386 65.849C109.606 65.919 110.566 66.869 111.146 67.879C111.726 68.889 112.096 70.009 112.856 70.909C113.576 71.779 114.596 72.369 115.576 72.989C116.546 73.599 117.526 74.289 118.086 75.259C118.646 76.229 118.666 77.549 117.836 78.329C117.256 78.869 116.376 79.059 115.566 78.969C112.796 78.669 108.736 76.019 107.156 73.829C105.766 71.899 103.806 65.579 108.386 65.849Z" fill="black"/>
<path d="M123.196 66.999C121.976 66.979 120.976 66.069 120.346 65.089C119.716 64.109 119.296 62.999 118.506 62.129C117.746 61.289 116.696 60.739 115.696 60.169C114.696 59.599 113.686 58.949 113.086 58.009C112.486 57.069 112.396 55.739 113.196 54.929C113.746 54.359 114.626 54.149 115.436 54.199C118.216 54.389 122.396 56.869 124.076 58.989C125.526 60.849 127.776 67.079 123.196 66.999Z" fill="black"/>
<path d="M38.6666 58.3689C39.1566 57.0789 40.3466 56.0289 41.7566 55.6589C42.9266 55.3489 44.1866 55.4689 45.3566 55.1489C47.0566 54.6789 48.2966 53.369 49.6966 52.349C51.0966 51.339 53.0866 50.609 54.5866 51.479C55.4466 51.979 55.9466 52.9289 56.0166 53.8689C56.0866 54.8189 55.7766 55.759 55.3066 56.599C53.4766 59.849 49.5566 61.5089 45.8166 62.6189C44.1066 63.1289 41.5466 63.819 39.8466 62.919C38.3566 62.149 38.1466 59.7389 38.6666 58.3689Z" fill="black"/>
<path d="M53.4969 68.9191C54.4269 68.5791 55.4869 68.6391 56.4169 68.2691C58.9469 67.2691 59.2769 63.7091 61.7169 62.5291C62.6769 62.0691 63.8869 62.0691 64.8369 62.5591C65.7869 63.0491 66.4469 64.0091 66.5069 65.0191C66.5469 65.6991 66.3469 66.3691 66.0769 67.0091C65.0369 69.4691 63.0269 71.5691 60.5269 72.7991C58.4569 73.8091 55.0369 74.6691 52.7069 73.9391C50.1769 73.1491 51.5669 69.6291 53.4969 68.9191Z" fill="black"/>
<path d="M29.8567 38.179C31.4267 38.349 32.5167 39.759 33.0367 41.159C33.5567 42.559 33.7367 44.089 34.5367 45.369C35.4867 46.899 37.1967 47.879 38.4267 49.229C39.6567 50.579 40.3067 52.789 38.9567 54.039C35.9967 56.779 30.1267 50.989 28.2967 48.839C26.2867 46.489 24.0867 37.569 29.8567 38.179Z" fill="black"/>
<path d="M38.6666 58.3689C39.1566 57.0789 40.3466 56.0289 41.7566 55.6589C42.9266 55.3489 44.1866 55.4689 45.3566 55.1489C47.0566 54.6789 48.2966 53.369 49.6966 52.349C51.0966 51.339 53.0866 50.609 54.5866 51.479C55.4466 51.979 55.9466 52.9289 56.0166 53.8689C56.0866 54.8189 55.7766 55.759 55.3066 56.599C53.4766 59.849 49.5566 61.5089 45.8166 62.6189C44.1066 63.1289 41.5466 63.819 39.8466 62.919C38.3566 62.149 38.1466 59.7389 38.6666 58.3689Z" fill="black"/>
<path d="M5.28668 46.649C6.21668 46.309 7.27666 46.3691 8.20666 45.9991C10.7367 44.9991 11.0666 41.4391 13.5066 40.2591C14.4666 39.7991 15.6767 39.7991 16.6267 40.2891C17.5767 40.7791 18.2367 41.7391 18.2967 42.7491C18.3367 43.4291 18.1367 44.099 17.8667 44.739C16.8267 47.199 14.8167 49.2991 12.3167 50.5291C10.2467 51.5391 6.82667 52.3991 4.49667 51.6691C1.97667 50.8791 3.36668 47.359 5.28668 46.649Z" fill="black"/>
<path d="M23.58 67.8071C22.36 67.7871 21.36 66.8771 20.73 65.8971C20.1 64.9171 19.68 63.8071 18.89 62.9371C18.13 62.0971 17.08 61.5471 16.08 60.9771C15.08 60.4071 14.07 59.7571 13.47 58.8171C12.87 57.8771 12.78 56.5471 13.58 55.7371C14.13 55.1671 15.01 54.9571 15.82 55.0071C18.6 55.1971 22.78 57.6771 24.46 59.7971C25.91 61.6571 28.16 67.8871 23.58 67.8071Z" fill="black"/>
<path d="M42.5766 113.979C43.9566 113.949 45.3866 114.129 46.5566 114.819C47.7266 115.509 48.5666 116.779 48.3666 118.059C48.1966 119.159 47.2866 120.069 46.2166 120.519C45.1366 120.969 43.9166 121.019 42.7366 120.899C41.7766 120.799 40.7966 120.599 39.8666 120.829C38.2766 121.229 37.3666 122.709 35.8666 123.269C34.3966 123.819 32.2966 123.499 31.4266 122.149C29.5766 119.289 34.4066 116.319 36.6266 115.319C38.4766 114.489 40.5166 114.019 42.5766 113.979Z" fill="black"/>
<path d="M58.2267 126.499C57.5067 127.339 56.5267 127.929 55.6067 128.579C53.7767 129.869 52.1467 131.439 50.1367 132.479C48.1267 133.509 45.5267 133.929 43.5867 132.789C43.1667 132.549 42.7967 132.229 42.5567 131.829C42.1167 131.089 42.2267 130.149 42.6467 129.409C43.0667 128.659 43.7567 128.089 44.4867 127.589C45.0967 127.169 45.7467 126.799 46.4767 126.629C47.3367 126.429 48.2567 126.539 49.1167 126.359C52.1267 125.749 53.1767 122.469 55.8067 121.299C59.2967 119.749 59.8367 124.609 58.2267 126.499Z" fill="black"/>
<path d="M53.4964 113.459C54.4264 113.119 55.4864 113.179 56.4164 112.809C58.9464 111.809 59.2764 108.249 61.7164 107.069C62.6764 106.609 63.8864 106.609 64.8364 107.099C65.7864 107.589 66.4464 108.549 66.5064 109.559C66.5464 110.239 66.3464 110.909 66.0764 111.549C65.0364 114.009 63.0264 116.109 60.5264 117.339C58.4564 118.349 55.0364 119.209 52.7064 118.479C50.1764 117.699 51.5664 114.169 53.4964 113.459Z" fill="black"/>
<path d="M29.8567 82.7288C31.4267 82.8988 32.5167 84.3088 33.0367 85.7088C33.5567 87.1088 33.7367 88.6388 34.5367 89.9188C35.4867 91.4488 37.1967 92.4288 38.4267 93.7788C39.6567 95.1288 40.3067 97.3388 38.9567 98.5888C35.9967 101.329 30.1267 95.5388 28.2967 93.3888C26.2867 91.0288 24.0867 82.1088 29.8567 82.7288Z" fill="black"/>
<path d="M42.5766 69.4389C43.9566 69.4089 45.3866 69.5889 46.5566 70.2789C47.7266 70.9589 48.5666 72.2389 48.3666 73.5189C48.1966 74.6189 47.2866 75.5289 46.2166 75.9789C45.1366 76.4289 43.9166 76.4789 42.7366 76.3589C41.7766 76.2589 40.7966 76.0589 39.8666 76.2889C38.2766 76.6889 37.3666 78.1689 35.8666 78.7289C34.3966 79.2789 32.2966 78.9589 31.4266 77.6089C29.5766 74.7489 34.4066 71.7789 36.6266 70.7789C38.4766 69.9489 40.5166 69.4789 42.5766 69.4389Z" fill="black"/>
<path d="M58.2267 81.9589C57.5067 82.7989 56.5267 83.3889 55.6067 84.0389C53.7767 85.3289 52.1467 86.8989 50.1367 87.9389C48.1267 88.9689 45.5267 89.3889 43.5867 88.2489C43.1667 88.0089 42.7967 87.6889 42.5567 87.2889C42.1167 86.5489 42.2267 85.6089 42.6467 84.8689C43.0667 84.1189 43.7567 83.5489 44.4867 83.0489C45.0967 82.6289 45.7467 82.2589 46.4767 82.0889C47.3367 81.8889 48.2567 81.9989 49.1167 81.8189C52.1267 81.2089 53.1767 77.9289 55.8067 76.7589C59.2967 75.2089 59.8367 80.0689 58.2267 81.9589Z" fill="black"/>
<path d="M38.6666 102.909C39.1566 101.619 40.3466 100.569 41.7566 100.199C42.9266 99.8888 44.1866 100.009 45.3566 99.6888C47.0566 99.2188 48.2966 97.9088 49.6966 96.8888C51.0966 95.8788 53.0866 95.1487 54.5866 96.0187C55.4466 96.5187 55.9466 97.4688 56.0166 98.4088C56.0866 99.3588 55.7766 100.299 55.3066 101.139C53.4766 104.389 49.5566 106.049 45.8166 107.159C44.1066 107.669 41.5466 108.359 39.8466 107.459C38.3566 106.689 38.1466 104.279 38.6666 102.909Z" fill="black"/>
<path d="M53.4969 68.9189C54.4269 68.5789 55.4869 68.6388 56.4169 68.2688C58.9469 67.2688 59.2769 63.7088 61.7169 62.5288C62.6769 62.0688 63.8869 62.0688 64.8369 62.5588C65.7869 63.0488 66.4469 64.0088 66.5069 65.0188C66.5469 65.6988 66.3469 66.3689 66.0769 67.0089C65.0369 69.4689 63.0269 71.5689 60.5269 72.7989C58.4569 73.8089 55.0369 74.6688 52.7069 73.9388C50.1769 73.1488 51.5669 69.6289 53.4969 68.9189Z" fill="black"/>
<path d="M11.9767 110.389C13.1967 110.459 14.1567 111.409 14.7367 112.419C15.3267 113.419 15.6867 114.549 16.4467 115.449C17.1667 116.319 18.1867 116.909 19.1667 117.529C20.1367 118.139 21.1167 118.829 21.6767 119.799C22.2367 120.769 22.2567 122.089 21.4267 122.869C20.8467 123.409 19.9667 123.599 19.1567 123.509C16.3867 123.209 12.3267 120.559 10.7467 118.369C9.35668 116.449 7.39666 110.129 11.9767 110.389Z" fill="black"/>
<path d="M5.28668 91.1888C6.21668 90.8488 7.27666 90.9088 8.20666 90.5388C10.7367 89.5388 11.0666 85.9789 13.5066 84.7989C14.4666 84.3389 15.6767 84.3389 16.6267 84.8289C17.5767 85.3189 18.2367 86.2788 18.2967 87.2888C18.3367 87.9688 18.1367 88.6388 17.8667 89.2788C16.8267 91.7388 14.8167 93.8388 12.3167 95.0688C10.2467 96.0788 6.82667 96.9388 4.49667 96.2088C1.97667 95.4288 3.36668 91.8988 5.28668 91.1888Z" fill="black"/>
<path d="M26.7866 111.539C25.5666 111.519 24.5666 110.609 23.9366 109.629C23.3066 108.649 22.8866 107.539 22.0966 106.669C21.3366 105.829 20.2866 105.279 19.2866 104.709C18.2866 104.139 17.2766 103.489 16.6766 102.549C16.0766 101.609 15.9866 100.279 16.7866 99.4688C17.3366 98.8988 18.2166 98.6888 19.0266 98.7388C21.8066 98.9288 25.9866 101.409 27.6666 103.529C29.1166 105.389 31.3666 111.619 26.7866 111.539Z" fill="black"/>
<path d="M38.6666 58.3689C39.1566 57.0789 40.3466 56.0289 41.7566 55.6589C42.9266 55.3489 44.1866 55.4689 45.3566 55.1489C47.0566 54.6789 48.2966 53.369 49.6966 52.349C51.0966 51.339 53.0866 50.609 54.5866 51.479C55.4466 51.979 55.9466 52.9289 56.0166 53.8689C56.0866 54.8189 55.7766 55.759 55.3066 56.599C53.4766 59.849 49.5566 61.5089 45.8166 62.6189C44.1066 63.1289 41.5466 63.819 39.8466 62.919C38.3566 62.149 38.1466 59.7389 38.6666 58.3689Z" fill="black"/>
<path d="M8.86192 65.0084C10.0819 65.0784 11.0419 66.0284 11.6219 67.0384C12.2119 68.0384 12.5719 69.1684 13.3319 70.0684C14.0519 70.9384 15.0719 71.5284 16.0519 72.1484C17.0219 72.7584 18.0019 73.4484 18.5619 74.4184C19.1219 75.3884 19.1419 76.7084 18.3119 77.4884C17.7319 78.0284 16.8519 78.2184 16.0419 78.1284C13.2719 77.8284 9.21194 75.1784 7.63194 72.9884C6.24194 71.0584 4.28192 64.7384 8.86192 65.0084Z" fill="black"/>
<path d="M78.7667 24.239C59.8667 26.319 40.8267 26.649 21.8967 28.379C16.4967 28.869 11.1167 29.489 5.75666 30.279C5.08666 30.379 4.39668 31.119 4.27668 31.759C1.10668 48.149 0.936659 64.959 0.946659 81.589C0.946659 90.859 1.04668 100.129 0.966679 109.409C0.956679 110.649 0.776668 111.829 1.73667 112.779C2.50667 113.539 3.37667 114.219 4.17667 114.949C5.84667 116.469 7.48666 118.009 9.16666 119.509C12.5967 122.579 16.2667 125.249 20.0067 127.909C23.9767 130.729 27.9467 133.559 31.9067 136.379C33.8567 137.769 35.8067 139.159 37.7567 140.539C38.6967 141.209 39.6367 141.879 40.5767 142.549C41.5567 143.249 42.5467 144.129 43.6067 144.699C44.4067 145.139 45.3567 144.949 46.2367 144.889C47.5467 144.789 48.8667 144.689 50.1767 144.579C60.6767 143.749 71.1767 142.879 81.6867 142.049C94.1867 141.059 106.697 140.079 119.207 139.249C120.477 139.159 121.757 139.079 123.037 138.999C124.187 138.929 125.167 138.079 125.167 136.869C125.157 131.509 124.957 126.149 124.857 120.789C124.647 110.369 124.447 99.959 124.297 89.539C124.217 84.089 124.147 78.639 124.107 73.189C124.087 70.739 124.067 68.289 124.067 65.839C124.067 64.699 124.057 63.569 124.057 62.429C124.057 61.899 124.127 61.329 124.057 60.809C124.057 60.719 124.057 60.629 124.057 60.539C123.947 61.019 123.947 60.919 124.057 60.259C124.057 60.149 124.007 59.769 123.977 59.659C123.747 58.809 122.997 58.139 122.397 57.539C121.497 56.639 120.547 55.779 119.597 54.929C116.387 52.049 113.087 49.259 109.757 46.519C100.227 38.669 90.4067 30.939 79.8467 24.489C77.5067 23.059 75.3667 26.739 77.6967 28.159C86.9467 33.799 95.5867 40.469 103.997 47.279C109.557 51.779 114.927 56.449 120.147 61.339C120.467 61.639 119.987 61.119 120.017 61.159C120.037 61.189 120.057 61.219 120.067 61.249C119.837 60.819 119.897 58.739 119.797 60.269C119.717 61.439 119.797 62.639 119.797 63.819C119.797 66.199 119.807 68.589 119.827 70.969C119.867 76.249 119.927 81.519 119.997 86.799C120.137 97.209 120.337 107.609 120.547 118.019C120.677 124.299 120.907 130.579 120.917 136.859C121.627 136.149 122.337 135.439 123.047 134.729C110.577 135.519 98.1267 136.489 85.6667 137.469C74.4767 138.349 63.2767 139.269 52.0867 140.159C49.6367 140.359 47.1467 140.699 44.6967 140.719C45.0567 140.819 45.4167 140.909 45.7667 141.009C38.4367 135.789 31.1067 130.579 23.7767 125.359C20.3567 122.929 16.8767 120.579 13.7067 117.819C10.6167 115.139 7.68667 112.269 4.58667 109.599C4.79667 110.099 5.00667 110.599 5.20667 111.099C5.42667 90.119 4.42669 69.029 6.28669 48.099C6.73669 42.989 7.40668 37.899 8.37668 32.859C7.88668 33.349 7.38667 33.849 6.89667 34.339C25.4467 31.629 44.2267 31.179 62.8967 29.859C68.1967 29.479 73.4867 29.039 78.7767 28.459C79.9167 28.329 80.9067 27.569 80.9067 26.329C80.8967 25.309 79.9167 24.109 78.7667 24.239Z" fill="black"/>
<path d="M47.0963 141.289C46.6263 120.889 46.5762 100.489 46.9462 80.0889C47.0562 74.2889 47.1962 68.4788 47.3662 62.6788C46.6562 63.3888 45.9462 64.0989 45.2362 64.8089C64.9262 65.7289 84.7863 65.3089 104.436 63.7889C109.556 63.3889 114.666 62.8989 119.746 62.2189C120.886 62.0689 121.876 61.3489 121.876 60.0889C121.876 59.0589 120.896 57.8088 119.746 57.9588C100.216 60.5588 80.3162 61.1089 60.6362 60.9489C55.5062 60.9089 50.3662 60.7889 45.2362 60.5489C44.0662 60.4989 43.1462 61.5688 43.1062 62.6788C42.4962 83.0688 42.2962 103.479 42.5262 123.879C42.5962 129.679 42.6962 135.489 42.8262 141.289C42.9062 144.019 47.1563 144.029 47.0963 141.289Z" fill="black"/>
<path d="M7.18652 34.489C11.5365 38.879 16.4765 42.759 21.2365 46.679C26.9965 51.419 32.8165 56.109 38.7565 60.629C40.5065 61.959 42.2565 63.419 44.1665 64.519C46.5465 65.879 48.6865 62.209 46.3165 60.849C44.7265 59.939 43.2665 58.749 41.8165 57.649C39.2465 55.709 36.8365 53.819 34.2165 51.729C28.3065 47.029 22.4365 42.259 16.7065 37.349C14.4965 35.449 12.2565 33.549 10.1965 31.479C8.2665 29.529 5.25652 32.539 7.18652 34.489Z" fill="black"/>
<path d="M27.3966 128.969C27.7866 111.449 30.0766 94.0188 32.3566 76.6488C33.2966 69.4888 34.2366 62.3289 35.1866 55.1689L26.5366 47.8289C25.5966 54.9889 24.6566 62.1488 23.7066 69.3088C21.4166 86.6888 19.1266 104.109 18.7466 121.629L27.3966 128.969Z" fill="black"/>
<path d="M80.8466 62.679C80.8466 62.659 80.8565 62.6391 80.8565 62.6391C81.1265 62.5891 85.8865 97.4691 79.9565 141.279L90.7965 139.159C95.7565 122.489 93.8966 78.5691 94.2766 61.0491L80.8466 62.679Z" fill="black"/>
<path d="M42.8867 28.2389C43.0167 27.9889 60.0067 40.0989 80.8467 62.6789L94.2567 62.5889C84.1767 48.4089 72.6767 38.2589 59.1067 27.1589C59.1067 27.1589 42.8867 28.2489 42.8867 28.2389Z" fill="black"/>
<path d="M51.4065 7.64888C48.6165 4.28888 45.0665 0.908894 40.6965 0.848894C37.9765 0.818894 35.3865 2.12889 33.2465 3.80889C28.2265 7.73889 25.1665 13.5989 22.2565 19.2689C20.1665 23.3389 18.0265 27.9789 19.5065 32.2989C20.5065 35.2189 22.9865 37.3789 25.5765 39.0789C35.2565 45.4389 54.0365 49.3589 64.1765 41.5289C73.0865 34.6689 56.3265 13.5889 51.4065 7.64888Z" fill="black"/>
<path d="M34.6264 55.4989C51.4564 50.5989 97.2764 46.1689 104.396 44.9189L95.8964 37.4089C88.7864 38.6589 43.3764 42.9389 26.5464 47.8389L34.6264 55.4989Z" fill="black"/>
<path d="M98.5164 55.3289C102.866 55.7389 107.766 55.6188 110.896 52.5588C112.846 50.6588 113.746 47.8989 114.066 45.1989C114.826 38.8689 112.856 32.5688 110.906 26.4988C109.506 22.1488 107.736 17.3488 103.636 15.3388C100.866 13.9788 97.5764 14.2088 94.5564 14.8388C83.2164 17.1788 67.1664 27.6889 65.5264 40.4089C64.0764 51.5589 90.8464 54.6089 98.5164 55.3289Z" fill="black"/>
</svg>
