<svg width="56" height="46" viewBox="0 0 56 46" fill="none" xmlns="http://www.w3.org/2000/svg">
<g id="hamburger">
<path id="bottom" d="M13.698 30.2017C14.961 29.8718 21.2064 29.9818 22.4992 30.1117C33.1004 31.1914 34.2938 29.6219 42.6077 30.5716C47.958 31.1814 45.2431 34.5604 43.8906 35.1203C42.5381 35.6801 39.3657 35.5702 37.9038 35.4802C30.1866 35.0203 23.3147 36.3699 14.7223 35.4502C13.6085 35.3302 12.435 35.4102 11.4604 34.8603C10.6251 34.3905 9.6604 33.0309 10.1179 32.0212C10.625 30.9015 12.6538 30.4816 13.698 30.2017Z" fill="#1A5B5D"/>
<path id="middle" d="M13.698 20.1869C14.961 19.857 21.2064 19.967 22.4992 20.097C33.1004 21.1767 34.2938 19.6071 42.6077 20.5568C47.958 21.1667 45.2431 24.5457 43.8906 25.1055C42.5381 25.6653 39.3657 25.5554 37.9038 25.4654C30.1866 25.0055 23.3147 26.3552 14.7223 25.4354C13.6085 25.3155 12.435 25.3954 11.4604 24.8456C10.6251 24.3757 9.6604 23.0161 10.1179 22.0064C10.625 20.8867 12.6538 20.4569 13.698 20.1869Z" fill="#1A5B5D"/>
<path id="top" d="M13.698 10.2175C14.961 9.88761 21.2064 9.99758 22.4992 10.1275C33.1004 11.2072 34.2938 9.63768 42.6077 10.5874C47.958 11.1972 45.2431 14.5762 43.8906 15.1361C42.5381 15.6959 39.3657 15.5859 37.9038 15.496C30.1866 15.0361 23.3147 16.3857 14.7223 15.466C13.6085 15.346 12.435 15.426 11.4604 14.8762C10.6251 14.4063 9.6604 13.0467 10.1179 12.037C10.625 10.9073 12.6538 10.4874 13.698 10.2175Z" fill="#1A5B5D"/>
</g>
</svg>
