<svg width="36" height="22" viewBox="0 0 36 22" fill="none" xmlns="http://www.w3.org/2000/svg">
<path d="M3.71852 15.9777C4.98852 15.6477 11.2686 15.7577 12.5686 15.8877C23.2286 16.9677 24.4285 15.3977 32.7885 16.3477C38.1685 16.9577 35.4386 20.3377 34.0786 20.8977C32.7186 21.4577 29.5285 21.3477 28.0585 21.2577C20.2985 20.7977 13.3886 22.1477 4.74852 21.2277C3.62852 21.1077 2.44852 21.1877 1.46852 20.6377C0.628519 20.1677 -0.341487 18.8077 0.118513 17.7977C0.628513 16.6777 2.66852 16.2577 3.71852 15.9777Z" fill="#005B5D"/>
<path d="M3.71852 8.09759C4.98852 7.76759 11.2686 7.87759 12.5686 8.00759C23.2286 9.08759 24.4285 7.5176 32.7885 8.4676C38.1685 9.0776 35.4386 12.4576 34.0786 13.0176C32.7186 13.5776 29.5285 13.4676 28.0585 13.3776C20.2985 12.9176 13.3886 14.2676 4.74852 13.3476C3.62852 13.2276 2.44852 13.3076 1.46852 12.7576C0.628519 12.2876 -0.341487 10.9276 0.118513 9.91763C0.628513 8.79758 2.66852 8.36759 3.71852 8.09759Z" fill="#005B5D"/>
<path d="M3.71852 0.217579C4.98852 -0.112421 11.2686 -0.00241704 12.5686 0.127582C23.2286 1.20758 24.4285 -0.362426 32.7885 0.587574C38.1685 1.19757 35.4386 4.57757 34.0786 5.13757C32.7186 5.69757 29.5285 5.58757 28.0585 5.49757C20.2985 5.03757 13.3886 6.38757 4.74852 5.46757C3.62852 5.34757 2.44852 5.42758 1.46852 4.87758C0.628519 4.40758 -0.341487 3.04757 0.118513 2.03757C0.628513 0.907575 2.66852 0.487579 3.71852 0.217579Z" fill="#005B5D"/>
</svg>
