<svg width="20" height="20" viewBox="0 0 20 20" fill="none" xmlns="http://www.w3.org/2000/svg">
<path d="M12.0715 10.217C12.0715 9.13612 11.1881 8.2566 10.1023 8.2566C9.01658 8.2566 8.13318 9.13614 8.13318 10.217C8.13318 11.2982 9.01658 12.1775 10.1023 12.1775C11.1881 12.1775 12.0715 11.2982 12.0715 10.217ZM14.9971 0.0119629H5.00288C2.24934 0.0119629 0.00915527 2.2424 0.00915527 4.9839V6.36922H7.35741C8.13279 5.8193 9.07978 5.49444 10.1023 5.49444C11.1248 5.49444 12.0719 5.8193 12.8473 6.36922H19.9908V4.9839C19.9908 2.24238 17.7507 0.0119629 14.9971 0.0119629ZM17.0195 4.74066C17.0195 5.04448 16.7699 5.2931 16.4647 5.2931H14.7503C14.4451 5.2931 14.1954 5.04448 14.1954 4.74066V3.03362C14.1954 2.72982 14.445 2.48118 14.7503 2.48118H16.4647C16.7699 2.48118 17.0195 2.72978 17.0195 3.03362V4.74066V4.74066ZM14.8458 10.217C14.8458 12.8213 12.7177 14.9397 10.1023 14.9397C7.4867 14.9397 5.35886 12.8213 5.35886 10.217C5.35886 9.50004 5.52106 8.8201 5.8095 8.21064H0.00915527V15.0159C0.00915527 17.7576 2.24934 19.9878 5.00288 19.9878H14.9972C17.7507 19.9878 19.9909 17.7576 19.9909 15.0159V8.21064H14.3951C14.6836 8.8201 14.8458 9.50004 14.8458 10.217Z" fill="#005B5D"/>
</svg>
