<svg width="40" height="40" viewBox="0 0 40 40" fill="none" xmlns="http://www.w3.org/2000/svg">
<path d="M24.1429 20.4343C24.1429 18.2725 22.3761 16.5135 20.2044 16.5135C18.033 16.5135 16.2662 18.2725 16.2662 20.4343C16.2662 22.5966 18.033 24.3553 20.2044 24.3553C22.3761 24.3553 24.1429 22.5966 24.1429 20.4343ZM29.9941 0.0241699H10.0056C4.49855 0.0241699 0.0181885 4.48505 0.0181885 9.96805V12.7387H14.7147C16.2655 11.6388 18.1594 10.9891 20.2044 10.9891C22.2494 10.9891 24.1436 11.6388 25.6945 12.7387H39.9815V9.96805C39.9815 4.48501 35.5012 0.0241699 29.9941 0.0241699ZM34.0389 9.48157C34.0389 10.0892 33.5397 10.5864 32.9292 10.5864H29.5004C28.89 10.5864 28.3907 10.0892 28.3907 9.48157V6.06749C28.3907 5.45989 28.8899 4.96261 29.5004 4.96261H32.9292C33.5397 4.96261 34.0389 5.45981 34.0389 6.06749V9.48157V9.48157ZM29.6914 20.4343C29.6914 25.6428 25.4353 29.8796 20.2044 29.8796C14.9733 29.8796 10.7176 25.6428 10.7176 20.4343C10.7176 19.0003 11.042 17.6405 11.6189 16.4215H0.0181885V30.0321C0.0181885 35.5155 4.49855 39.9759 10.0056 39.9759H29.9942C35.5012 39.9759 39.9816 35.5154 39.9816 30.0321V16.4215H28.7901C29.367 17.6405 29.6914 19.0003 29.6914 20.4343Z" fill="#005B5D"/>
</svg>
