<svg xmlns="http://www.w3.org/2000/svg" width="224.098" height="27.857" viewBox="0 0 224.098 27.857">
  <g id="Group_2" data-name="Group 2" transform="translate(-48.56 -60.571)">
    <path id="Path_1" data-name="Path 1" d="M72.735,83.661c-.752-.353-.744-.907-.662-1.769.116-1.244.126-2.474.134-3.723.01-1.894.106-3.786.112-5.686.006-1.262-.239-2.55-.211-3.8.018-.8.122-1.679.185-2.488a1.311,1.311,0,0,1,.335-.947c.209-.195.576-.237.809-.421.433-.347.285-1.115.056-1.575-.349-.7-1.262-.835-1.98-.847-.742-.012-1.5-.048-2.249.012a3.193,3.193,0,0,0-.758.128,1,1,0,0,0-.335.173,1.718,1.718,0,0,0-.788.666,13.756,13.756,0,0,0-1.334,2.937c-.459,1.1-1,2.177-1.465,3.286-.479,1.152-.985,2.319-1.535,3.441-.335.682-.722,1.392-1.023,2.078-.672-.191-.941-1.105-1.19-1.683s-.485-1.192-.686-1.781a13.685,13.685,0,0,0-.688-1.8c-.173-.341-.417-.712-.634-1.085-.106-.237-.219-.469-.313-.714-.59-1.531-1.182-3.053-1.753-4.586-.152-.409-.536-1.641-1.266-1.569a11.122,11.122,0,0,0-2.345-.225,12.571,12.571,0,0,0-2.411-.042c-.548.064-1.216.044-1.579.52a1.522,1.522,0,0,0-.277,1.356,1.314,1.314,0,0,0,.694.991,2.457,2.457,0,0,0,.608.263c.116.018.369-.054.465-.016.506.2-.008,3.5-.026,4.187-.05,1.952.189,3.9.251,5.842.054,1.685.068,3.356.032,5.046-.028,1.256.064,2.524-.016,3.77-.052.823-.06.8-.861.947-.494.088-.949.108-1.264.53a1.108,1.108,0,0,0,.078,1.39,3.092,3.092,0,0,0,2.042.544,13.2,13.2,0,0,0,2.024-.2c.712-.108,1.2-.291,1.3-1.1a11.57,11.57,0,0,0-.183-2.433c-.136-1.374-.385-2.732-.393-4.121-.01-1.711.181-3.489.329-5.194.171-1.964.391-3.976.441-5.946.012-.506-.295-1.589.106-1.96.618.295.985,1.394,1.246,1.964.323.71.546,1.452.837,2.175.128.321.249.648.373.971a6.069,6.069,0,0,0,.429,1.109l.046.12a3.655,3.655,0,0,0,.251.5c.078.167.154.333.221.5.315.8.592,1.635.929,2.433.435,1.033.907,2.04,1.31,3.085a3.9,3.9,0,0,0,1.105,1.924,1.773,1.773,0,0,0,1.926-.323,5.8,5.8,0,0,0,.682-1.984,25.036,25.036,0,0,1,.885-2.568,39.17,39.17,0,0,1,2.642-5.972c.367-.606.867-1.25,1.3-1.92.006,1.244-.122,2.55-.2,3.76a40.721,40.721,0,0,0-.08,5.142c.132,2.219-.044,4.434.142,6.612a13.384,13.384,0,0,0,.2,2.337c.165.62.674.686,1.28.748a12.867,12.867,0,0,0,2.407-.038c.712-.062,1.687-.191,2.036-.907C75.16,84.321,73.608,84.072,72.735,83.661Z" transform="translate(0 1.032)"/>
    <g id="Group_1" data-name="Group 1" transform="translate(78.562 60.753)">
      <path id="Path_2" data-name="Path 2" d="M66.575,65.2c1.021,1.174,2.113,1.16,2.787.6.632-.528.323-2.149.307-2.915-.018-.965-.1-2.106-1.274-2.209C65.933,60.461,66.051,63.553,66.575,65.2Z" transform="translate(-60.746 -60.662)"/>
      <path id="Path_3" data-name="Path 3" d="M77.535,81.185c-1.216-.275-2.552.018-3.756-.233-.62-.128-.7-.656-.764-1.266-.152-1.354.09-2.692.048-4.05-.038-1.178-.231-2.371-.225-3.541.006-.961.074-1.876.165-2.829a11.8,11.8,0,0,0-.09-3.878,1.535,1.535,0,0,0-.522-.967,3.189,3.189,0,0,0-1.651-.072c-.562.038-1.131.012-1.7.048a24.107,24.107,0,0,0-3.326.231c-1.394.291-1.444,1.966-.291,2.706a3.411,3.411,0,0,0,2.08.329c.526-.042,1.434-.2,1.85.169.624.562.249,2.141.16,2.855a35.307,35.307,0,0,0-.076,5.6c.048,1.485.295,3,.285,4.472,0,.859-1.186.754-1.856.724-.55-.024-1.077-.038-1.623-.04a11.1,11.1,0,0,0-1.785-.112c-1.362.239-1.117,1.848-.124,2.472a4.241,4.241,0,0,0,2.4.453c.9.008,1.763.03,2.664-.02,1.705-.094,3.421.064,5.128,0,.706-.026,1.4-.124,2.111-.177a4.936,4.936,0,0,0,2.157-.3C80.319,82.866,78.55,81.416,77.535,81.185Z" transform="translate(-63.514 -57.026)"/>
    </g>
    <path id="Path_4" data-name="Path 4" d="M95.859,84.57c-.812-.1-1.661.08-2.462-.062a3.572,3.572,0,0,1-1.816-1.376c-2.09-2.45-4.267-4.825-6.323-7.3.486-.377.969-.752,1.434-1.156a17.8,17.8,0,0,1,2.8-2.046,6.544,6.544,0,0,1,2.3-1.079,2.334,2.334,0,0,0,.935.072,12.819,12.819,0,0,0,1.314.094,1.417,1.417,0,0,0,1.426-1.077,1.533,1.533,0,0,0-.963-1.717,4.462,4.462,0,0,0-1,0,15.757,15.757,0,0,0-1.623-.07,7.39,7.39,0,0,0-2.494.55,7.863,7.863,0,0,0-1.168.851c-.534.443-.933,1.029-1.463,1.485a12.065,12.065,0,0,1-1.535,1.077c-.752.465-1.466.947-2.221,1.454a24.974,24.974,0,0,1-2.221,1.525c-.054-1.691.148-3.37-.064-5.066-.16-1.27-.487-2.574-.548-3.854-.05-1.119.167-2.229.177-3.334a3.621,3.621,0,0,0-.6-2.123,2,2,0,0,0-1.547-.556c-1.192-.064-3.25.08-3.557,1.551a1.316,1.316,0,0,0,.648,1.442c.622.281,1.613-.068,2.137.285a12.825,12.825,0,0,0,.08,1.922c.006,1,.136,2,.193,3.005a25.636,25.636,0,0,1,.04,3.8,10.935,10.935,0,0,0,.221,2.979,17.009,17.009,0,0,1,.066,2.963c0,1.168.062,2.353-.022,3.521s-.1,2.72-1.442,2.873c-.558.064-2.145.138-2.413.706-.353.75.8,1.611,1.41,1.757a6.361,6.361,0,0,0,3.3-.124c.792-.257,1.723-.508,1.928-1.4a17.562,17.562,0,0,0,.383-3.609c.024-1.113.008-2.271-.072-3.411.379-.281.756-.626,1.043-.845.207-.156.419-.309.63-.463a12.113,12.113,0,0,0,.975,1c.744.69,1.368,1.491,2.123,2.171a18.5,18.5,0,0,1,1.5,1.581c.325.369.72.706,1.073,1.049A15.374,15.374,0,0,0,89.505,84.8c-.227.094-.582.008-.887.126a1.194,1.194,0,0,0-.782.654,2.253,2.253,0,0,0,.321,1.408,1.537,1.537,0,0,0,1.069.576,13.294,13.294,0,0,0,3.846.229c1.063-.1,2.084-.036,3.152-.048S97.708,87.3,97.58,86.2A1.894,1.894,0,0,0,95.859,84.57Z" transform="translate(25.686 0.271)"/>
    <path id="Path_5" data-name="Path 5" d="M111.916,85.383c-.479-.608-1.651-.349-2.261-.343a5.292,5.292,0,0,1-2-.245,1.956,1.956,0,0,1-1-.825,26.277,26.277,0,0,0-1.645-2.05c-.427-.5-1.025-.871-1.491-1.32a9.906,9.906,0,0,1-1.188-1.412,22.751,22.751,0,0,0-2.8-2.813,23.172,23.172,0,0,0,3.7-2.795,4.178,4.178,0,0,1,2.293-1.166,16.8,16.8,0,0,0,2.869-.152,1.331,1.331,0,0,0,1.115-1.5c-.1-1.013-1.83-1.15-2.6-1.117a16.67,16.67,0,0,0-4.279.371,4,4,0,0,0-1.246.851c-.52.441-1.049.859-1.571,1.3-.859.72-1.679,1.5-2.58,2.187a11.432,11.432,0,0,0-2.325,1.844c-.016-1.838-.052-3.675.026-5.5a30.065,30.065,0,0,0-.257-4.747c-.14-1.184.12-2.369-.016-3.535-.058-.514-.227-1.282-.722-1.509a3.644,3.644,0,0,0-1.188-.088c-.57-.026-1.146-.044-1.711-.09-.871-.07-2.231-.427-2.919.343a1.835,1.835,0,0,0-.207,1.725c.217.746.722.825,1.408,1.023a5.05,5.05,0,0,0,2.323.323c.03,1.725-.3,2.975-.321,4.111a43.379,43.379,0,0,0,.142,5.892c.271,2.161.538,4.353.616,6.53.042,1.2.61,2.875-.233,3.952-.383.488-1.21.415-1.773.58-.712.2-1.8,1.051-1.448,1.822.582,1.29,1.761,1,2.875,1.011.887.01,2.568.281,3.168-.538.636-.865.209-2.139.116-3.083a24.005,24.005,0,0,1,.042-3.836c.02-.327.02-.656.034-.985a17.921,17.921,0,0,0,1.7-1.079c.261-.2.538-.389.8-.59a12.387,12.387,0,0,0,1.346,1.4c.8.847,1.667,1.627,2.476,2.466.65.676,1.3,1.376,1.994,2a6.229,6.229,0,0,1,1.125,1.113c-.61.251-1.611.231-1.769,1.039-.177.895.463,1.34,1.252,1.577a16.2,16.2,0,0,0,4.462.275c.69,0,1.37-.052,2.058-.116a4.37,4.37,0,0,0,1.422-.173C112.265,87.207,112.249,85.806,111.916,85.383Z" transform="translate(39.487 0)"/>
    <path id="Path_6" data-name="Path 6" d="M122.53,78.679c-.835-.279-2.046.289-2.771.618-1,.453-2.038.839-3.073,1.192a8.781,8.781,0,0,1-7.3-.7,5.5,5.5,0,0,1-2.313-3.621,10.741,10.741,0,0,1-.281-1.252c3.651,0,7.288-.169,10.944-.169,1.073,0,3.587.2,4.143-.9a1.7,1.7,0,0,0,.128-.389,1,1,0,0,0,.13-.181c.688-1.5.026-2.9-.481-4.317a5.215,5.215,0,0,0-.8-1.729,6.106,6.106,0,0,0-1.6-1.053,10.123,10.123,0,0,0-5.352-1.645c-4.014,0-8.364,1.32-10.737,4.809a8.44,8.44,0,0,0-.742,7.72,9.832,9.832,0,0,0,1.713,3.575,9.688,9.688,0,0,0,3.31,2.217,13.981,13.981,0,0,0,4.221,1.212,31.6,31.6,0,0,0,4.135.024,12.166,12.166,0,0,0,6.408-2.1,2.057,2.057,0,0,0,1.1-1.677C123.288,79.794,123.117,78.873,122.53,78.679Zm-15.068-8.159a9.538,9.538,0,0,1,1.422-1.491,8.339,8.339,0,0,1,3.715-1.5,7,7,0,0,1,5.728,2.038,3.683,3.683,0,0,1,1.314,2.153c-.118-.006-.237-.012-.341-.012-2.287,0-4.554.309-6.835.337-2,.024-3.978-.175-5.982-.2A14.715,14.715,0,0,0,107.461,70.519Z" transform="translate(53.601 3.99)"/>
    <path id="Path_7" data-name="Path 7" d="M121.552,61.454a38.074,38.074,0,0,1-3.83-.144,2.754,2.754,0,0,0-1.621.367c-.455.261-.51.668-.508,1.188,0,.684.375.843,1.021,1.023a7.243,7.243,0,0,0,1.619.349c.558.022,1.174-.136,1.745-.158.67-.024,2.076-.407,2.582.156a2.005,2.005,0,0,1,.257,1.256c-.026.8-.215,1.585-.287,2.383a69.984,69.984,0,0,0,.289,9.3c.094,2.259-.483,4.731.162,6.951a30.935,30.935,0,0,0-3.146-.084c-.744.026-1.491-.054-2.233.02-.433.042-1.019,0-1.32.379a2.3,2.3,0,0,0,.578,2.718,6.4,6.4,0,0,0,3.2.572c1.569-.074,3.132-.379,4.71-.423l1.214.014a6.018,6.018,0,0,1,1.509-.006c.7-.036,1.41-.04,2.113-.05.788-.012,2.674.251,3.118-.666.951-1.97-3.021-1.978-4-2.026-.941-.046-1.876-.126-2.807-.211.016-.313.046-.628.058-.909.036-.7-.036-1.4,0-2.1.054-1.075-.09-2.113-.114-3.184-.064-2.927.2-5.864.187-8.8-.008-1.172.056-2.345.038-3.515a13.394,13.394,0,0,0-.16-3.431c-.146-.5-.315-.921-.821-1.059C124,61.069,122.672,61.438,121.552,61.454Z" transform="translate(67.448 0.685)"/>
    <path id="Path_8" data-name="Path 8" d="M134.779,60.724a13.582,13.582,0,0,0-2.939-.034c-.544.052-1.1.175-1.631.217a7.982,7.982,0,0,0-1.4.036,1.369,1.369,0,0,0-1.047.907,1.419,1.419,0,0,0,.53,1.268,2.367,2.367,0,0,0,1.725.5c.863.034,1.719-.01,2.572.012.586.016,1.218-.044,1.39.594a9.2,9.2,0,0,1,.114,2.066c.028.869.01,1.745-.03,2.616-.05,1.125-.241,2.231-.317,3.354s0,2.181.026,3.3c.042,1.9.3,3.794.255,5.7-.02.772-.088,1.533-.146,2.305-.024.329-.07.66-.116.991-.181,0-.361,0-.54-.01-1.487-.074-7.642-.712-5.912,2.444a2.471,2.471,0,0,0,.827.981,3.022,3.022,0,0,0,1.4.034c.829-.06,1.633-.1,2.45-.2.307-.04.608-.108.911-.173a7.25,7.25,0,0,0,1.15.12c.608.04,1.234.044,1.854.074a3.356,3.356,0,0,0,.5.086c1.473.11,2.939.03,4.41.1a8.34,8.34,0,0,0,1.753-.195,2.723,2.723,0,0,0,1.635-.493c.8-.744.413-1.595-.508-1.934a16.7,16.7,0,0,0-4.845-1.043,9.168,9.168,0,0,0-1.344.058c0-.215,0-.427,0-.62-.018-.682-.062-1.366-.078-2.046-.036-1.446.116-2.879.04-4.327-.086-1.6-.215-3.232-.2-4.837.006-.917-.046-1.79.024-2.7a21.392,21.392,0,0,1,.355-2.253,12.767,12.767,0,0,0-.052-3.938c-.086-.72-.016-1.886-.66-2.405A5.188,5.188,0,0,0,134.779,60.724Z" transform="translate(78.931 0.055)"/>
    <path id="Path_9" data-name="Path 9" d="M141.5,75.637a5.439,5.439,0,0,1-.018-.728,2.142,2.142,0,0,0,.574.024,9.875,9.875,0,0,0,3.033.1c1.647-.078,3.266-.237,4.913-.243a51.724,51.724,0,0,1,6.43.2c.568.068,1.174.225,1.37-.447a4.879,4.879,0,0,0-.026-1.627,6.166,6.166,0,0,0-.359-1.713,14.222,14.222,0,0,0-2.606-4.187,9.1,9.1,0,0,0-4.175-2.584,9.237,9.237,0,0,0-9.6,1.872,12.37,12.37,0,0,0-2.245,3.16,9.93,9.93,0,0,0-1.358,5.605c.11,1.142.227,2.859,1.093,3.768A11.99,11.99,0,0,0,140.2,81.1a8.1,8.1,0,0,0,2.508,2.223,12.782,12.782,0,0,0,7.575,1.479,10.728,10.728,0,0,0,4.3-1.633,7.9,7.9,0,0,0,1.511-1.495c.3-.337.736-.837.646-1.328a1.317,1.317,0,0,0-.853-.81c-.592-.179-1.129.245-1.629.477a10.076,10.076,0,0,1-2.678,1.025,15.534,15.534,0,0,1-2.767-.06,12.789,12.789,0,0,1-1.665-.016,9.945,9.945,0,0,1-1.35-.447A4.752,4.752,0,0,1,142.477,78,13.484,13.484,0,0,1,141.5,75.637Zm1.442-5.778a12.785,12.785,0,0,1,1.531-1.3,5.237,5.237,0,0,1,1.822-1.24,7.483,7.483,0,0,1,6.265,1.256,4.876,4.876,0,0,1,1.352,1.382c.142.229.538.843.494,1.138-.122.817-1.276.6-1.82.6-1.846.01-3.717-.076-5.553.046-.977.066-1.954.076-2.947.128a12.131,12.131,0,0,1-1.665-.01c-.169-.014-.419-.06-.662-.082A7.4,7.4,0,0,1,142.943,69.859Z" transform="translate(89.387 3.284)"/>
    <path id="Path_10" data-name="Path 10" d="M165.51,63.76a8.156,8.156,0,0,0-2.951,1.005,10.716,10.716,0,0,0-2.147,1.872c-.532.52-1.1.973-1.591,1.521-.383.425-.758.931-1.158,1.384a7.357,7.357,0,0,0-.1-2.773c-.431-1.338-2.482-1.2-3.617-1.26a22.3,22.3,0,0,0-3.015.239c-.588.048-1.412.179-1.723.768a3.044,3.044,0,0,0-.1,1.769c.275.818,1.16.746,1.874.674a9.913,9.913,0,0,1,2.953.02c1.071.217.736.742.692,1.691-.166,3.711-.449,7.469-.433,11.184l-.839-.1a16.332,16.332,0,0,0-2.078,0,1.819,1.819,0,0,0-1.378,1.5c-.094.829.758,1.481,1.5,1.639a9.349,9.349,0,0,0,3.487-.2c.265-.046.568-.1.875-.157l0,.012a4.16,4.16,0,0,0,.955-.078c.722-.028,1.442-.068,2.165-.1,1.023-.046,2.048-.058,3.069-.094.841-.03,1.679-.11,2.518-.134.514-.014,1.214.179,1.681-.08.716-.4,1.252-2.291.427-2.8-1.011-.63-2.674-.1-3.766-.026-.79.056-1.589.108-2.383.1-.815,0-1.729-.074-2.59-.046l0-.148c.018-2.265-.361-4.516-.351-6.777.2-.363.546-.7.74-1.007.492-.76.827-1.613,1.348-2.353A7.226,7.226,0,0,1,163.133,68a8.854,8.854,0,0,1,3.254-.714,2.74,2.74,0,0,1,1.162.181c.3.2.411.77.51,1.093a8.475,8.475,0,0,0,.566,1.509c.283.536.546.624,1.139.728.508.09.841.2,1.236-.179a2.025,2.025,0,0,0,.564-1.659A5.728,5.728,0,0,0,165.51,63.76Z" transform="translate(101.085 3.177)"/>
  </g>
</svg>
