<svg width="225" height="28" viewBox="0 0 225 28" fill="none" xmlns="http://www.w3.org/2000/svg">
<g clip-path="url(#clip0)">
<path d="M24.175 24.1218C23.423 23.7688 23.431 23.2148 23.513 22.3528C23.629 21.1088 23.639 19.8788 23.647 18.6298C23.657 16.7358 23.753 14.8438 23.759 12.9438C23.765 11.6818 23.52 10.3938 23.548 9.14384C23.566 8.34384 23.67 7.46484 23.733 6.65584C23.7238 6.48372 23.7487 6.31148 23.8062 6.14898C23.8637 5.98648 23.9526 5.83692 24.068 5.70884C24.277 5.51384 24.644 5.47184 24.877 5.28784C25.31 4.94084 25.162 4.17284 24.933 3.71284C24.584 3.01284 23.671 2.87784 22.953 2.86584C22.211 2.85384 21.453 2.81784 20.704 2.87784C20.4471 2.88982 20.1926 2.9328 19.946 3.00584C19.8244 3.04174 19.7107 3.10045 19.611 3.17884C19.2863 3.31486 19.0112 3.54735 18.823 3.84484C18.2647 4.76813 17.8169 5.75391 17.489 6.78184C17.03 7.88184 16.489 8.95884 16.024 10.0678C15.545 11.2198 15.039 12.3868 14.489 13.5088C14.154 14.1908 13.767 14.9008 13.466 15.5868C12.794 15.3958 12.525 14.4818 12.276 13.9038C12.027 13.3258 11.791 12.7118 11.59 12.1228C11.4032 11.5074 11.1733 10.9059 10.902 10.3228C10.729 9.98184 10.485 9.61084 10.268 9.23784C10.162 9.00084 10.049 8.76884 9.955 8.52384C9.365 6.99284 8.773 5.47084 8.202 3.93784C8.05 3.52884 7.666 2.29684 6.936 2.36884C6.1645 2.21104 5.37843 2.13561 4.591 2.14384C3.79054 2.05261 2.98316 2.03855 2.18 2.10184C1.632 2.16584 0.964 2.14584 0.601 2.62184C0.450945 2.80988 0.347606 3.03082 0.299455 3.26653C0.251305 3.50224 0.259716 3.74601 0.323999 3.97784C0.35182 4.18654 0.429385 4.3855 0.550161 4.55796C0.670937 4.73042 0.831387 4.87134 1.018 4.96884C1.20786 5.08355 1.41239 5.17203 1.626 5.23184C1.742 5.24984 1.995 5.17784 2.091 5.21584C2.597 5.41584 2.083 8.71584 2.065 9.40284C2.015 11.3548 2.254 13.3028 2.316 15.2448C2.37 16.9298 2.384 18.6008 2.348 20.2908C2.32 21.5468 2.412 22.8148 2.332 24.0608C2.28 24.8838 2.272 24.8608 1.471 25.0078C0.976999 25.0958 0.521999 25.1158 0.206999 25.5378C0.0591411 25.7435 -0.0137641 25.9937 0.00042899 26.2466C0.0146221 26.4995 0.115059 26.74 0.285002 26.9278C0.880656 27.3434 1.60357 27.536 2.327 27.4718C3.00581 27.4573 3.68248 27.3905 4.351 27.2718C5.063 27.1638 5.551 26.9808 5.651 26.1718C5.67592 25.3567 5.61458 24.5411 5.468 23.7388C5.332 22.3648 5.083 21.0068 5.075 19.6178C5.065 17.9068 5.256 16.1288 5.404 14.4238C5.575 12.4598 5.795 10.4478 5.845 8.47784C5.857 7.97184 5.55 6.88884 5.951 6.51784C6.569 6.81284 6.936 7.91184 7.197 8.48184C7.52 9.19184 7.743 9.93384 8.034 10.6568C8.162 10.9778 8.283 11.3048 8.407 11.6278C8.51335 12.0107 8.65704 12.3821 8.836 12.7368L8.882 12.8568C8.95277 13.0297 9.03668 13.1968 9.133 13.3568C9.211 13.5238 9.287 13.6898 9.354 13.8568C9.669 14.6568 9.946 15.4918 10.283 16.2898C10.718 17.3228 11.19 18.3298 11.593 19.3748C11.7673 20.1096 12.1512 20.778 12.698 21.2988C13.0154 21.4395 13.3671 21.4838 13.7095 21.4264C14.0519 21.369 14.3698 21.2123 14.624 20.9758C14.97 20.3615 15.2012 19.6891 15.306 18.9918C15.5543 18.1205 15.8497 17.2632 16.191 16.4238C16.9039 14.3631 17.7876 12.3655 18.833 10.4518C19.2 9.84584 19.7 9.20184 20.133 8.53184C20.139 9.77584 20.011 11.0818 19.933 12.2918C19.798 14.0024 19.7713 15.7199 19.853 17.4338C19.985 19.6528 19.809 21.8678 19.995 24.0458C19.9931 24.8292 20.0601 25.6112 20.195 26.3828C20.36 27.0028 20.869 27.0688 21.475 27.1308C22.2768 27.1934 23.0826 27.1807 23.882 27.0928C24.594 27.0308 25.569 26.9018 25.918 26.1858C26.6 24.7818 25.048 24.5328 24.175 24.1218Z" fill="#005B5D"/>
<path d="M35.831 4.71995C36.852 5.89395 37.944 5.87996 38.618 5.31996C39.25 4.79196 38.941 3.17096 38.925 2.40496C38.907 1.43996 38.825 0.298955 37.651 0.195955C35.189 -0.0190446 35.307 3.07295 35.831 4.71995Z" fill="#005B5D"/>
<path d="M44.023 24.341C42.807 24.066 41.471 24.359 40.267 24.108C39.647 23.98 39.567 23.452 39.503 22.842C39.351 21.488 39.593 20.15 39.551 18.792C39.513 17.614 39.32 16.421 39.326 15.251C39.332 14.29 39.4 13.375 39.491 12.422C39.6751 11.1333 39.6447 9.82288 39.401 8.54403C39.3523 8.16833 39.1663 7.8239 38.879 7.57703C38.3445 7.40838 37.7751 7.38354 37.228 7.50503C36.666 7.54303 36.097 7.51704 35.528 7.55304C34.4153 7.55319 33.304 7.63037 32.202 7.78403C30.808 8.07503 30.758 9.75003 31.911 10.49C32.5523 10.8163 33.2803 10.9315 33.991 10.819C34.517 10.777 35.425 10.619 35.841 10.988C36.465 11.55 36.09 13.129 36.001 13.843C35.8274 15.7047 35.802 17.5773 35.925 19.443C35.973 20.928 36.22 22.443 36.21 23.915C36.21 24.774 35.024 24.669 34.354 24.639C33.804 24.615 33.277 24.601 32.731 24.599C32.14 24.5137 31.543 24.4763 30.946 24.487C29.584 24.726 29.829 26.335 30.822 26.959C31.5603 27.3421 32.3949 27.4996 33.222 27.412C34.122 27.42 34.985 27.442 35.886 27.392C37.591 27.298 39.307 27.456 41.014 27.392C41.72 27.366 42.414 27.268 43.125 27.215C43.8574 27.2769 44.5943 27.1744 45.282 26.915C46.807 26.022 45.038 24.572 44.023 24.341Z" fill="#005B5D"/>
<path d="M72.985 24.2699C72.173 24.1699 71.324 24.3499 70.523 24.2079C69.7837 23.9598 69.1459 23.4765 68.707 22.8319C66.617 20.3819 64.44 18.0069 62.384 15.5319C62.87 15.1549 63.353 14.7799 63.818 14.3759C64.6825 13.6044 65.6203 12.9192 66.618 12.3299C67.3068 11.8235 68.0882 11.4569 68.918 11.2509C69.2216 11.3379 69.5397 11.3624 69.853 11.3229C70.2891 11.3768 70.7277 11.4081 71.167 11.4169C71.4922 11.4285 71.8115 11.3277 72.0712 11.1316C72.3308 10.9354 72.5151 10.6559 72.593 10.3399C72.6596 9.98622 72.5996 9.62036 72.4235 9.30643C72.2474 8.99251 71.9665 8.75055 71.63 8.62293C71.2977 8.58546 70.9623 8.58546 70.63 8.62293C70.0905 8.57171 69.5488 8.54834 69.007 8.55293C68.15 8.59014 67.3061 8.77625 66.513 9.10293C66.0984 9.35015 65.7074 9.63501 65.345 9.95393C64.811 10.3969 64.412 10.9829 63.882 11.4389C63.399 11.8372 62.8858 12.1973 62.347 12.5159C61.595 12.9809 60.881 13.4629 60.126 13.9699C59.4136 14.5179 58.6722 15.0269 57.905 15.4949C57.851 13.8039 58.053 12.1249 57.841 10.4289C57.681 9.15893 57.354 7.85493 57.293 6.57493C57.243 5.45594 57.46 4.34594 57.47 3.24094C57.4957 2.48809 57.2859 1.74596 56.87 1.11793C56.6662 0.920942 56.423 0.769502 56.1563 0.673648C55.8895 0.577794 55.6055 0.539713 55.323 0.561935C54.131 0.497935 52.073 0.641933 51.766 2.11293C51.7032 2.39105 51.7325 2.68202 51.8493 2.94208C51.9662 3.20214 52.1643 3.41721 52.414 3.55493C53.036 3.83593 54.027 3.48693 54.551 3.83993C54.5295 4.4817 54.5562 5.12417 54.631 5.76193C54.637 6.76193 54.767 7.76194 54.824 8.76694C54.9313 10.0309 54.9447 11.301 54.864 12.5669C54.801 13.5654 54.8754 14.5677 55.085 15.5459C55.1932 16.5298 55.2152 17.5212 55.151 18.5089C55.151 19.6769 55.213 20.8619 55.129 22.0299C55.045 23.1979 55.029 24.7499 53.687 24.9029C53.129 24.9669 51.542 25.0409 51.274 25.6089C50.921 26.3589 52.074 27.2199 52.684 27.3659C53.7757 27.6158 54.9141 27.5731 55.984 27.2419C56.776 26.9849 57.707 26.7339 57.912 25.8419C58.1639 24.6554 58.2923 23.4459 58.295 22.2329C58.319 21.1199 58.303 19.9619 58.223 18.8219C58.602 18.5409 58.979 18.1959 59.266 17.9769C59.473 17.8209 59.685 17.6679 59.896 17.5139C60.2015 17.8657 60.527 18.1996 60.871 18.5139C61.615 19.2039 62.239 20.0049 62.994 20.6849C63.5246 21.182 64.0255 21.7099 64.494 22.2659C64.819 22.6349 65.214 22.9719 65.567 23.3149C65.9009 23.7281 66.2561 24.1236 66.631 24.4999C66.404 24.5939 66.049 24.5079 65.744 24.6259C65.5734 24.6705 65.4149 24.7522 65.2797 24.8653C65.1445 24.9784 65.036 25.12 64.962 25.2799C64.9116 25.7718 65.0244 26.2665 65.283 26.6879C65.4127 26.8515 65.5744 26.987 65.7582 27.086C65.942 27.185 66.144 27.2456 66.352 27.2639C67.6161 27.5266 68.9117 27.6038 70.198 27.4929C71.261 27.3929 72.282 27.4569 73.35 27.4449C74.418 27.4329 74.834 26.9999 74.706 25.8999C74.6474 25.473 74.4449 25.0788 74.132 24.7824C73.8191 24.4861 73.4145 24.3053 72.985 24.2699V24.2699Z" fill="#005B5D"/>
<path d="M102.843 24.8119C102.364 24.2039 101.192 24.4629 100.582 24.4689C99.9058 24.5161 99.2268 24.4329 98.582 24.2239C98.1646 24.0706 97.8119 23.7796 97.582 23.3989C97.0682 22.6886 96.5192 22.0044 95.937 21.3489C95.51 20.8489 94.912 20.4779 94.446 20.0289C94.0069 19.5962 93.6092 19.1235 93.258 18.6169C92.4084 17.5995 91.4715 16.6582 90.458 15.8039C91.7817 14.9983 93.0212 14.062 94.158 13.0089C94.7807 12.3888 95.5831 11.9808 96.451 11.8429C97.4099 11.8743 98.3698 11.8234 99.32 11.6909C99.6657 11.6375 99.9764 11.4503 100.185 11.1696C100.394 10.8889 100.484 10.5373 100.435 10.1909C100.335 9.17793 98.605 9.04092 97.835 9.07392C96.3986 9.01256 94.9604 9.13726 93.556 9.44493C93.0904 9.64698 92.6676 9.93578 92.31 10.2959C91.79 10.7369 91.261 11.1549 90.739 11.5959C89.88 12.3159 89.06 13.0959 88.159 13.7829C87.3072 14.294 86.5256 14.9139 85.834 15.6269C85.818 13.7889 85.782 11.9519 85.86 10.1269C85.8998 8.54029 85.8138 6.95299 85.603 5.37992C85.463 4.19592 85.723 3.01093 85.587 1.84493C85.529 1.33093 85.36 0.562928 84.865 0.335928C84.4765 0.241627 84.0752 0.211896 83.677 0.247927C83.107 0.221927 82.531 0.203927 81.966 0.157927C81.095 0.0879268 79.735 -0.269075 79.047 0.500925C78.8727 0.748977 78.7625 1.03636 78.7264 1.33738C78.6903 1.6384 78.7293 1.94368 78.84 2.22593C79.057 2.97193 79.562 3.05093 80.248 3.24893C80.9863 3.5374 81.7821 3.64805 82.571 3.57192C82.601 5.29692 82.271 6.54692 82.25 7.68292C82.1637 9.64787 82.2111 11.6164 82.392 13.5749C82.663 15.7359 82.93 17.9279 83.008 20.1049C83.05 21.3049 83.618 22.9799 82.775 24.0569C82.392 24.5449 81.565 24.4719 81.002 24.6369C80.29 24.8369 79.202 25.6879 79.554 26.4589C80.136 27.7489 81.315 27.4589 82.429 27.4699C83.316 27.4799 84.997 27.7509 85.597 26.9319C86.233 26.0669 85.806 24.7929 85.713 23.8489C85.6246 22.5712 85.6387 21.2884 85.755 20.0129C85.775 19.6859 85.775 19.3569 85.789 19.0279C86.3754 18.7004 86.943 18.3402 87.489 17.9489C87.75 17.7489 88.027 17.5599 88.289 17.3589C88.7003 17.8601 89.1504 18.3282 89.635 18.7589C90.435 19.6059 91.302 20.3859 92.111 21.2249C92.761 21.9009 93.411 22.6009 94.105 23.2249C94.5258 23.5466 94.9038 23.9206 95.23 24.3379C94.62 24.5889 93.619 24.5689 93.461 25.3769C93.284 26.2719 93.924 26.7169 94.713 26.9539C96.1805 27.2514 97.6821 27.3439 99.175 27.2289C99.865 27.2289 100.545 27.1769 101.233 27.1129C101.713 27.1339 102.194 27.0754 102.655 26.9399C103.192 26.6359 103.176 25.2349 102.843 24.8119Z" fill="#005B5D"/>
<path d="M127.571 22.0979C126.736 21.8189 125.525 22.3869 124.8 22.7159C123.8 23.1689 122.762 23.5549 121.727 23.9079C120.532 24.3243 119.26 24.4773 118 24.3565C116.74 24.2356 115.521 23.8438 114.427 23.2079C113.818 22.7905 113.3 22.2547 112.902 21.6326C112.505 21.0105 112.237 20.3148 112.114 19.5869C111.995 19.1755 111.902 18.7575 111.833 18.3349C115.484 18.3349 119.121 18.1659 122.777 18.1659C123.85 18.1659 126.364 18.3659 126.92 17.2659C126.978 17.1419 127.021 17.0113 127.048 16.8769C127.098 16.8216 127.142 16.7609 127.178 16.6959C127.866 15.1959 127.204 13.7959 126.697 12.3789C126.539 11.7583 126.268 11.1722 125.897 10.6499C125.422 10.2169 124.882 9.86155 124.297 9.59691C122.703 8.5563 120.848 7.98615 118.945 7.9519C114.931 7.9519 110.581 9.27191 108.208 12.7609C107.476 13.8947 107.027 15.1874 106.898 16.5306C106.769 17.8739 106.964 19.2285 107.466 20.4809C107.788 21.7765 108.371 22.9929 109.179 24.0559C110.117 25.0162 111.244 25.7712 112.489 26.2729C113.823 26.8967 115.248 27.3058 116.71 27.4849C118.086 27.5832 119.468 27.5912 120.845 27.5089C123.136 27.4267 125.358 26.6987 127.253 25.4089C127.564 25.2465 127.829 25.0071 128.021 24.7135C128.214 24.42 128.328 24.0821 128.353 23.7319C128.329 23.2129 128.158 22.2919 127.571 22.0979ZM112.503 13.9389C112.922 13.392 113.399 12.8921 113.925 12.4479C115.023 11.6534 116.298 11.1386 117.64 10.9479C118.687 10.8351 119.745 10.9597 120.737 11.3126C121.729 11.6654 122.628 12.2374 123.368 12.9859C124.046 13.5265 124.511 14.289 124.682 15.1389C124.564 15.1329 124.445 15.1269 124.341 15.1269C122.054 15.1269 119.787 15.4359 117.506 15.4639C115.506 15.4879 113.528 15.2889 111.524 15.2639C111.875 14.8405 112.201 14.3978 112.502 13.9379L112.503 13.9389Z" fill="#005B5D"/>
<path d="M140.44 1.56798C139.162 1.58431 137.883 1.53625 136.61 1.42399C136.045 1.37646 135.479 1.50463 134.989 1.79098C134.534 2.05198 134.479 2.45899 134.481 2.97899C134.481 3.66299 134.856 3.82198 135.502 4.00198C136.027 4.17984 136.57 4.29694 137.121 4.35098C137.679 4.37298 138.295 4.21499 138.866 4.19299C139.536 4.16899 140.942 3.78598 141.448 4.34898C141.669 4.72824 141.759 5.16947 141.705 5.60498C141.679 6.40498 141.49 7.18998 141.418 7.98798C141.308 11.091 141.404 14.1978 141.707 17.288C141.801 19.547 141.224 22.019 141.869 24.239C140.822 24.1576 139.772 24.1296 138.723 24.155C137.979 24.181 137.232 24.101 136.49 24.175C136.057 24.217 135.471 24.175 135.17 24.554C134.957 25.0081 134.898 25.5194 135.002 26.0101C135.106 26.5008 135.368 26.944 135.748 27.272C136.748 27.7349 137.85 27.9319 138.948 27.844C140.517 27.77 142.08 27.465 143.658 27.421L144.872 27.435C145.373 27.3697 145.88 27.3677 146.381 27.429C147.081 27.393 147.791 27.389 148.494 27.379C149.282 27.367 151.168 27.63 151.612 26.713C152.563 24.743 148.591 24.735 147.612 24.687C146.671 24.641 145.736 24.561 144.805 24.476C144.821 24.163 144.851 23.848 144.863 23.567C144.899 22.867 144.827 22.167 144.863 21.467C144.917 20.392 144.773 19.354 144.749 18.283C144.685 15.356 144.949 12.419 144.936 9.48299C144.928 8.31099 144.992 7.13798 144.974 5.96798C145.068 4.82219 145.014 3.66904 144.814 2.53698C144.668 2.03698 144.499 1.61598 143.993 1.47798C142.888 1.18298 141.56 1.55198 140.44 1.56798Z" fill="#005B5D"/>
<path d="M165.15 0.207996C164.174 0.0903821 163.189 0.0789817 162.211 0.173996C161.667 0.225996 161.111 0.348998 160.58 0.390998C160.113 0.361957 159.645 0.374003 159.18 0.426998C158.941 0.471408 158.717 0.578868 158.533 0.7383C158.349 0.897731 158.211 1.10336 158.133 1.334C158.107 1.57294 158.142 1.81465 158.234 2.03644C158.327 2.25823 158.475 2.45284 158.663 2.602C159.15 2.98881 159.77 3.16842 160.388 3.102C161.251 3.136 162.107 3.092 162.96 3.114C163.546 3.13 164.178 3.07 164.35 3.708C164.466 4.39018 164.504 5.08324 164.464 5.774C164.492 6.643 164.474 7.519 164.434 8.39C164.384 9.515 164.193 10.621 164.117 11.744C164.041 12.867 164.117 13.925 164.143 15.044C164.185 16.944 164.443 18.838 164.398 20.744C164.378 21.516 164.31 22.277 164.252 23.049C164.228 23.378 164.182 23.709 164.136 24.04C163.955 24.04 163.775 24.04 163.596 24.03C162.109 23.956 155.954 23.318 157.684 26.474C157.869 26.8681 158.154 27.2065 158.511 27.455C158.969 27.5758 159.448 27.5874 159.911 27.489C160.74 27.429 161.544 27.389 162.361 27.289C162.668 27.249 162.969 27.181 163.272 27.116C163.652 27.1866 164.036 27.2267 164.422 27.236C165.03 27.276 165.656 27.28 166.276 27.31C166.44 27.3512 166.607 27.38 166.776 27.396C168.249 27.506 169.715 27.426 171.186 27.496C171.776 27.4931 172.363 27.4278 172.939 27.301C173.523 27.3162 174.096 27.1434 174.574 26.808C175.374 26.064 174.987 25.213 174.066 24.874C172.512 24.2873 170.879 23.9358 169.221 23.831C168.772 23.8174 168.323 23.8368 167.877 23.889C167.877 23.674 167.877 23.462 167.877 23.269C167.859 22.587 167.815 21.903 167.799 21.223C167.763 19.777 167.915 18.344 167.839 16.896C167.753 15.296 167.624 13.664 167.639 12.059C167.645 11.142 167.593 10.269 167.663 9.359C167.741 8.60222 167.86 7.85015 168.018 7.106C168.204 5.79854 168.187 4.47007 167.966 3.16799C167.88 2.44799 167.95 1.282 167.306 0.762996C166.636 0.424161 165.9 0.234801 165.15 0.207996V0.207996Z" fill="#005B5D"/>
<path d="M182.327 18.3498C182.305 18.1078 182.299 17.8646 182.309 17.6218C182.498 17.6556 182.691 17.6636 182.883 17.6458C183.883 17.8352 184.906 17.869 185.916 17.7458C187.563 17.6678 189.182 17.5088 190.829 17.5028C192.974 17.436 195.122 17.5028 197.259 17.7028C197.827 17.7708 198.433 17.9278 198.629 17.2558C198.711 16.7159 198.703 16.1659 198.603 15.6288C198.565 15.0437 198.445 14.4669 198.244 13.9158C197.626 12.379 196.744 10.9621 195.638 9.72882C194.509 8.50123 193.065 7.60735 191.463 7.14482C189.848 6.52705 188.092 6.37498 186.395 6.70592C184.698 7.03687 183.128 7.83753 181.863 9.01682C180.953 9.94563 180.196 11.0121 179.618 12.1768C178.621 13.8697 178.148 15.8203 178.26 17.7818C178.37 18.9238 178.487 20.6408 179.353 21.5498C179.82 22.3673 180.382 23.1268 181.027 23.8128C181.699 24.7206 182.553 25.4778 183.535 26.0358C185.847 27.2976 188.493 27.8141 191.11 27.5148C192.645 27.2878 194.112 26.7306 195.41 25.8818C195.979 25.4538 196.487 24.951 196.921 24.3868C197.221 24.0498 197.657 23.5498 197.567 23.0588C197.497 22.8669 197.384 22.6939 197.236 22.5533C197.088 22.4127 196.909 22.3085 196.714 22.2488C196.122 22.0698 195.585 22.4938 195.085 22.7258C194.246 23.1934 193.344 23.5386 192.407 23.7508C191.485 23.8132 190.559 23.7931 189.64 23.6908C189.085 23.7217 188.529 23.7163 187.975 23.6748C187.515 23.5582 187.064 23.4088 186.625 23.2278C185.917 23.0884 185.25 22.7894 184.674 22.3536C184.099 21.9179 183.63 21.3567 183.304 20.7128C182.904 19.9579 182.577 19.1667 182.327 18.3498V18.3498ZM183.769 12.5718C184.244 12.099 184.756 11.6643 185.3 11.2718C185.812 10.7339 186.434 10.3112 187.122 10.0318C188.194 9.76573 189.312 9.74035 190.395 9.95751C191.478 10.1747 192.5 10.629 193.387 11.2878C193.925 11.6536 194.385 12.1235 194.739 12.6698C194.881 12.8988 195.277 13.5128 195.233 13.8078C195.111 14.6248 193.957 14.4078 193.413 14.4078C191.567 14.4178 189.696 14.3318 187.86 14.4538C186.883 14.5198 185.906 14.5298 184.913 14.5818C184.358 14.6166 183.802 14.6133 183.248 14.5718C183.079 14.5578 182.829 14.5118 182.586 14.4898C182.88 13.7938 183.28 13.1469 183.77 12.5718H183.769Z" fill="#005B5D"/>
<path d="M218.035 6.36591C216.996 6.50805 215.994 6.84928 215.084 7.37091C214.288 7.89658 213.566 8.52615 212.937 9.24291C212.405 9.76291 211.837 10.2159 211.346 10.7639C210.963 11.1889 210.588 11.6949 210.188 12.1479C210.331 11.2256 210.297 10.2845 210.088 9.3749C209.657 8.0369 207.606 8.17491 206.471 8.11491C205.462 8.12625 204.454 8.2061 203.456 8.35391C202.868 8.40191 202.044 8.53291 201.733 9.12191C201.525 9.68861 201.49 10.3044 201.633 10.8909C201.908 11.7089 202.793 11.6369 203.507 11.5649C204.487 11.4241 205.482 11.4308 206.46 11.5849C207.531 11.8019 207.196 12.3269 207.152 13.2759C206.986 16.9869 206.703 20.7449 206.719 24.4599L205.88 24.3599C205.188 24.3158 204.494 24.3158 203.802 24.3599C203.449 24.4439 203.129 24.6316 202.883 24.8989C202.638 25.1663 202.478 25.5009 202.424 25.8599C202.33 26.6889 203.182 27.3409 203.924 27.4989C205.089 27.6519 206.272 27.584 207.411 27.2989C207.676 27.2529 207.979 27.1989 208.286 27.1419V27.1539C208.606 27.1648 208.927 27.1386 209.241 27.0759C209.963 27.0479 210.683 27.0079 211.406 26.9759C212.429 26.9299 213.454 26.9179 214.475 26.8819C215.316 26.8519 216.154 26.7719 216.993 26.7479C217.507 26.7339 218.207 26.9269 218.674 26.6679C219.39 26.2679 219.926 24.3769 219.101 23.8679C218.09 23.2379 216.427 23.7679 215.335 23.8419C214.545 23.8979 213.746 23.9499 212.952 23.9419C212.137 23.9419 211.223 23.8679 210.362 23.8959V23.7479C210.38 21.4829 210.001 19.2319 210.011 16.9709C210.211 16.6079 210.557 16.2709 210.751 15.9639C211.243 15.2039 211.578 14.3509 212.099 13.6109C212.921 12.2439 214.173 11.1873 215.658 10.6059C216.688 10.1642 217.792 9.92187 218.912 9.89191C219.308 9.86743 219.704 9.92919 220.074 10.0729C220.374 10.2729 220.485 10.8429 220.584 11.1659C220.724 11.6857 220.914 12.191 221.15 12.6749C221.433 13.2109 221.696 13.2989 222.289 13.4029C222.797 13.4929 223.13 13.6029 223.525 13.2239C223.737 13.0073 223.898 12.7457 223.996 12.4586C224.093 12.1714 224.125 11.866 224.089 11.5649C223.954 10.0812 223.247 8.70835 222.116 7.73771C220.986 6.76707 219.522 6.275 218.035 6.36591V6.36591Z" fill="#005B5D"/>
</g>
<defs>
<clipPath id="clip0">
<rect width="224.098" height="27.857" fill="white"/>
</clipPath>
</defs>
</svg>
