<svg width="20" height="23" viewBox="0 0 20 23" fill="none" xmlns="http://www.w3.org/2000/svg">
<path d="M17.8568 1.42847H2.14325C0.960266 1.42847 0.000488281 2.38824 0.000488281 3.57123V19.2848C0.000488281 20.4678 0.960266 21.4276 2.14325 21.4276H17.8568C19.0398 21.4276 19.9996 20.4678 19.9996 19.2848V3.57123C19.9996 2.38824 19.0398 1.42847 17.8568 1.42847ZM15.6739 8.51743C15.6828 8.64242 15.6828 8.77188 15.6828 8.89687C15.6828 12.7672 12.7365 17.2269 7.35283 17.2269C5.69219 17.2269 4.15208 16.7447 2.8575 15.9144C3.0941 15.9412 3.32177 15.9501 3.56283 15.9501C4.9333 15.9501 6.19217 15.4859 7.19659 14.7002C5.91093 14.6734 4.83062 13.8297 4.46011 12.669C4.91098 12.736 5.31721 12.736 5.78147 12.6155C4.44225 12.3431 3.43783 11.1646 3.43783 9.74059V9.70487C3.82621 9.92361 4.28154 10.0575 4.7592 10.0754C4.35762 9.80828 4.02842 9.4459 3.80097 9.0206C3.57352 8.5953 3.4549 8.1203 3.45569 7.638C3.45569 7.09339 3.59854 6.59341 3.85299 6.16039C5.29489 7.9371 7.45997 9.09776 9.88843 9.22275C9.47327 7.23624 10.9598 5.6247 12.7454 5.6247C13.5892 5.6247 14.348 5.97737 14.8837 6.54877C15.5444 6.42377 16.1783 6.17825 16.7408 5.84344C16.5221 6.52198 16.0623 7.09339 15.4551 7.45498C16.0444 7.39248 16.6158 7.22731 17.1426 6.99964C16.7453 7.58444 16.2453 8.10227 15.6739 8.51743Z" fill="#005B5D"/>
</svg>
