<svg width="40" height="46" viewBox="0 0 40 46" fill="none" xmlns="http://www.w3.org/2000/svg">
<path d="M35.7136 2.85693H4.28649C1.92053 2.85693 0.000976562 4.77649 0.000976562 7.14245V38.5696C0.000976562 40.9355 1.92053 42.8551 4.28649 42.8551H35.7136C38.0796 42.8551 39.9991 40.9355 39.9991 38.5696V7.14245C39.9991 4.77649 38.0796 2.85693 35.7136 2.85693ZM31.3478 17.0349C31.3656 17.2848 31.3656 17.5438 31.3656 17.7937C31.3656 25.5345 25.473 34.4537 14.7057 34.4537C11.3844 34.4537 8.30417 33.4895 5.715 31.8288C6.18819 31.8824 6.64353 31.9002 7.12565 31.9002C9.8666 31.9002 12.3843 30.9717 14.3932 29.4004C11.8219 29.3468 9.66125 27.6594 8.92021 25.338C9.82196 25.472 10.6344 25.472 11.5629 25.2309C8.8845 24.6863 6.87566 22.3293 6.87566 19.4812V19.4097C7.65241 19.8472 8.56309 20.1151 9.5184 20.1508C8.71525 19.6166 8.05684 18.8918 7.60194 18.0412C7.14704 17.1906 6.9098 16.2406 6.91138 15.276C6.91138 14.1868 7.19708 13.1868 7.70598 12.3208C10.5898 15.8742 14.9199 18.1955 19.7769 18.4455C18.9465 14.4725 21.9196 11.2494 25.4909 11.2494C27.1783 11.2494 28.6961 11.9547 29.7675 13.0975C31.0888 12.8475 32.3566 12.3565 33.4816 11.6869C33.0441 13.044 32.1245 14.1868 30.9103 14.91C32.0888 14.785 33.2316 14.4546 34.2851 13.9993C33.4905 15.1689 32.4906 16.2045 31.3478 17.0349Z" fill="#005B5D"/>
</svg>
